<?plantuml 1.2026.2?><svg xmlns="http://www.w3.org/2000/svg" xmlns:xlink="http://www.w3.org/1999/xlink" contentStyleType="text/css" data-diagram-type="CLASS" height="533px" preserveAspectRatio="none" style="width:612px;height:533px;background:#FFFFFF;" version="1.1" viewBox="0 0 612 533" width="612px" zoomAndPan="magnify"><title>Strategy Design M&#248;nster</title><defs/><g><g class="title" data-source-line="7"><text fill="#000000" font-family="sans-serif" font-size="14" font-weight="bold" lengthAdjust="spacing" textLength="177.9736" x="210.0832" y="23.5352">Strategy Design M&#248;nster</text></g><!--cluster Context--><g class="cluster" data-qualified-name="Context" data-source-line="9" id="ent0002"><rect fill="none" height="131" rx="2.5" ry="2.5" style="stroke:#000000;stroke-width:1.5;" width="229.81" x="7" y="99.7983"/><text fill="#000000" font-family="sans-serif" font-size="14" font-weight="bold" lengthAdjust="spacing" textLength="55.9316" x="93.9392" y="115.3334">Context</text></g><!--cluster Strategy--><g class="cluster" data-qualified-name="Strategy" data-source-line="16" id="ent0004"><rect fill="none" height="115" rx="2.5" ry="2.5" style="stroke:#000000;stroke-width:1.5;" width="341.33" x="264.81" y="246.7983"/><text fill="#000000" font-family="sans-serif" font-size="14" font-weight="bold" lengthAdjust="spacing" textLength="59.541" x="405.7045" y="262.3334">Strategy</text></g><!--cluster Concrete strategies--><g class="cluster" data-qualified-name="Concrete strategies" data-source-line="22" id="ent0006"><rect fill="none" height="182" rx="2.5" ry="2.5" style="stroke:#000000;stroke-width:1.5;" width="216.85" x="13.48" y="254.7983"/><text fill="#000000" font-family="sans-serif" font-size="14" font-weight="bold" lengthAdjust="spacing" textLength="140.5879" x="51.6111" y="270.3334">Concrete strategies</text></g><!--class BuyStockService--><g class="entity" data-qualified-name="Context.BuyStockService" data-source-line="10" id="ent0003"><rect fill="#F1F1F1" height="80.9766" rx="2.5" ry="2.5" style="stroke:#181818;stroke-width:0.5;" width="197.8076" x="23" y="134.3083"/><ellipse cx="63.9607" cy="150.3083" fill="#ADD1B2" rx="11" ry="11" style="stroke:#181818;stroke-width:1;"/><path d="M66.9338,155.9513 Q66.3528,156.2502 65.7136,156.3996 Q65.0745,156.549 64.3689,156.549 Q61.8621,156.549 60.5422,154.8971 Q59.2224,153.2453 59.2224,150.1242 Q59.2224,146.9948 60.5422,145.3429 Q61.8621,143.6911 64.3689,143.6911 Q65.0745,143.6911 65.7219,143.8405 Q66.3694,143.9899 66.9338,144.2888 L66.9338,147.0114 Q66.303,146.4304 65.7095,146.1606 Q65.116,145.8908 64.4851,145.8908 Q63.1404,145.8908 62.4556,146.9575 Q61.7708,148.0241 61.7708,150.1242 Q61.7708,152.216 62.4556,153.2826 Q63.1404,154.3493 64.4851,154.3493 Q65.116,154.3493 65.7095,154.0795 Q66.303,153.8097 66.9338,153.2287 Z " fill="#000000"/><text fill="#000000" font-family="sans-serif" font-size="14" lengthAdjust="spacing" textLength="108.1172" x="83.7297" y="155.5993">BuyStockService</text><line style="stroke:#181818;stroke-width:0.5;" x1="24" x2="219.8076" y1="166.3083" y2="166.3083"/><g data-visibility-modifier="PRIVATE_FIELD"><rect fill="none" height="6" style="stroke:#C82930;stroke-width:1;" width="6" x="31" y="177.0524"/></g><text fill="#000000" font-family="sans-serif" font-size="14" lengthAdjust="spacing" textLength="171.8076" x="43" y="183.8434">feeStrategy : IFeeStrategy</text><line style="stroke:#181818;stroke-width:0.5;" x1="24" x2="219.8076" y1="190.7966" y2="190.7966"/><g data-visibility-modifier="PUBLIC_METHOD"><ellipse cx="34" cy="204.5407" fill="#84BE84" rx="3" ry="3" style="stroke:#038048;stroke-width:1;"/></g><text fill="#000000" font-family="sans-serif" font-size="14" lengthAdjust="spacing" textLength="169.9824" x="43" y="208.3317">handleBuyStockRequest()</text></g><!--class IFeeStrategy--><g class="entity" data-qualified-name="Strategy.IFeeStrategy" data-source-line="17" id="ent0005"><rect fill="#F1F1F1" height="64.4883" rx="2.5" ry="2.5" style="stroke:#181818;stroke-width:0.5;" width="309.3359" x="280.81" y="281.5583"/><ellipse cx="390.0004" cy="297.5583" fill="#B4A7E5" rx="11" ry="11" style="stroke:#181818;stroke-width:1;"/><path d="M385.9282,293.3234 L385.9282,291.1652 L393.3076,291.1652 L393.3076,293.3234 L390.8422,293.3234 L390.8422,301.4001 L393.3076,301.4001 L393.3076,303.5583 L385.9282,303.5583 L385.9282,301.4001 L388.3935,301.4001 L388.3935,293.3234 Z " fill="#000000"/><text fill="#000000" font-family="sans-serif" font-size="14" font-style="italic" lengthAdjust="spacing" textLength="82.4551" x="410.5004" y="302.8493">IFeeStrategy</text><line style="stroke:#181818;stroke-width:0.5;" x1="281.81" x2="589.1459" y1="313.5583" y2="313.5583"/><line style="stroke:#181818;stroke-width:0.5;" x1="281.81" x2="589.1459" y1="321.5583" y2="321.5583"/><g data-visibility-modifier="PUBLIC_METHOD"><ellipse cx="291.81" cy="335.3024" fill="#84BE84" rx="3" ry="3" style="stroke:#038048;stroke-width:1;"/></g><text fill="#000000" font-family="sans-serif" font-size="14" lengthAdjust="spacing" textLength="283.3359" x="300.81" y="339.0934">calculate(pricePerShare, numberOfShares)</text></g><!--class FlatFeeStrategy--><g class="entity" data-qualified-name="Concrete strategies.FlatFeeStrategy" data-source-line="23" id="ent0007"><rect fill="#F1F1F1" height="48" rx="2.5" ry="2.5" style="stroke:#181818;stroke-width:0.5;" width="134.9424" x="54.43" y="372.7983"/><ellipse cx="69.43" cy="388.7983" fill="#ADD1B2" rx="11" ry="11" style="stroke:#181818;stroke-width:1;"/><path d="M72.4031,394.4413 Q71.8221,394.7402 71.1829,394.8896 Q70.5438,395.039 69.8382,395.039 Q67.3314,395.039 66.0115,393.3871 Q64.6917,391.7353 64.6917,388.6142 Q64.6917,385.4848 66.0115,383.8329 Q67.3314,382.1811 69.8382,382.1811 Q70.5438,382.1811 71.1912,382.3305 Q71.8387,382.4799 72.4031,382.7788 L72.4031,385.5014 Q71.7723,384.9204 71.1788,384.6506 Q70.5853,384.3808 69.9544,384.3808 Q68.6097,384.3808 67.9249,385.4475 Q67.2401,386.5141 67.2401,388.6142 Q67.2401,390.706 67.9249,391.7726 Q68.6097,392.8393 69.9544,392.8393 Q70.5853,392.8393 71.1788,392.5695 Q71.7723,392.2997 72.4031,391.7187 Z " fill="#000000"/><text fill="#000000" font-family="sans-serif" font-size="14" lengthAdjust="spacing" textLength="102.9424" x="83.43" y="394.0893">FlatFeeStrategy</text><line style="stroke:#181818;stroke-width:0.5;" x1="55.43" x2="188.3724" y1="404.7983" y2="404.7983"/><line style="stroke:#181818;stroke-width:0.5;" x1="55.43" x2="188.3724" y1="412.7983" y2="412.7983"/></g><!--class PercentageFeeStrategy--><g class="entity" data-qualified-name="Concrete strategies.PercentageFeeStrategy" data-source-line="24" id="ent0008"><rect fill="#F1F1F1" height="48" rx="2.5" ry="2.5" style="stroke:#181818;stroke-width:0.5;" width="184.8447" x="29.48" y="289.7983"/><ellipse cx="44.48" cy="305.7983" fill="#ADD1B2" rx="11" ry="11" style="stroke:#181818;stroke-width:1;"/><path d="M47.4531,311.4413 Q46.8721,311.7402 46.2329,311.8896 Q45.5938,312.039 44.8882,312.039 Q42.3814,312.039 41.0615,310.3871 Q39.7417,308.7353 39.7417,305.6142 Q39.7417,302.4848 41.0615,300.8329 Q42.3814,299.1811 44.8882,299.1811 Q45.5938,299.1811 46.2412,299.3305 Q46.8887,299.4799 47.4531,299.7788 L47.4531,302.5014 Q46.8223,301.9204 46.2288,301.6506 Q45.6353,301.3808 45.0044,301.3808 Q43.6597,301.3808 42.9749,302.4475 Q42.2901,303.5141 42.2901,305.6142 Q42.2901,307.706 42.9749,308.7726 Q43.6597,309.8393 45.0044,309.8393 Q45.6353,309.8393 46.2288,309.5695 Q46.8223,309.2997 47.4531,308.7187 Z " fill="#000000"/><text fill="#000000" font-family="sans-serif" font-size="14" lengthAdjust="spacing" textLength="152.8447" x="58.48" y="311.0893">PercentageFeeStrategy</text><line style="stroke:#181818;stroke-width:0.5;" x1="30.48" x2="213.3247" y1="321.7983" y2="321.7983"/><line style="stroke:#181818;stroke-width:0.5;" x1="30.48" x2="213.3247" y1="329.7983" y2="329.7983"/></g><g class="entity" data-qualified-name="GMN12" data-source-line="32" id="ent0013"><path d="M31.02,43.4883 L31.02,84.1094 A0,0 0 0 0 31.02,84.1094 L118.14,84.1094 L122.14,134.0983 L126.14,84.1094 L212.7807,84.1094 A0,0 0 0 0 212.7807,84.1094 L212.7807,53.4883 L202.7807,43.4883 L31.02,43.4883 A0,0 0 0 0 31.02,43.4883" fill="#FEFFDD" style="stroke:#181818;stroke-width:0.5;"/><path d="M202.7807,43.4883 L202.7807,53.4883 L212.7807,53.4883 L202.7807,43.4883" fill="#FEFFDD" style="stroke:#181818;stroke-width:0.5;"/><text fill="#000000" font-family="sans-serif" font-size="13" lengthAdjust="spacing" textLength="160.7607" x="37.02" y="61.0566">Context kalder strategien</text><text fill="#000000" font-family="sans-serif" font-size="13" lengthAdjust="spacing" textLength="119.063" x="57.8689" y="76.3672">gennem interfacet.</text></g><!--link BuyStockService to IFeeStrategy--><g class="link" data-entity-1="ent0003" data-entity-2="ent0005" data-link-type="dependency" data-source-line="27" id="lnk9"><path codeLine="27" d="M122.14,215.7683 C122.14,247.3583 122.14,285.6783 122.14,285.6783 C122.14,285.6783 195.71,285.6783 274.65,285.6783" fill="none" id="BuyStockService-to-IFeeStrategy" style="stroke:#181818;stroke-width:1;"/><polygon fill="#181818" points="280.65,285.6783,271.65,281.6783,275.65,285.6783,271.65,289.6783,280.65,285.6783" style="stroke:#181818;stroke-width:1;"/><text fill="#000000" font-family="sans-serif" font-size="13" lengthAdjust="spacing" textLength="42.2373" x="167.44" y="286.4966">bruger</text></g><!--link FlatFeeStrategy to IFeeStrategy--><g class="link" data-entity-1="ent0007" data-entity-2="ent0005" data-link-type="extension" data-source-line="28" id="lnk10"><path codeLine="28" d="M122.14,372.5683 C122.14,357.8683 122.14,341.9183 122.14,341.9183 C122.14,341.9183 183.71,341.9183 262.65,341.9183" fill="none" id="FlatFeeStrategy-to-IFeeStrategy" style="stroke:#181818;stroke-width:1;stroke-dasharray:7,7;"/><polygon fill="none" points="280.65,341.9183,262.65,335.9183,262.65,347.9183,280.65,341.9183" style="stroke:#181818;stroke-width:1;"/></g><!--link PercentageFeeStrategy to IFeeStrategy--><g class="link" data-entity-1="ent0008" data-entity-2="ent0005" data-link-type="extension" data-source-line="29" id="lnk11"><path codeLine="29" d="M214.71,313.7983 C235.48,313.7983 240.06,313.7983 262.58,313.7983" fill="none" id="PercentageFeeStrategy-to-IFeeStrategy" style="stroke:#181818;stroke-width:1;stroke-dasharray:7,7;"/><polygon fill="none" points="280.58,313.7983,262.58,307.7983,262.58,319.7983,280.58,313.7983" style="stroke:#181818;stroke-width:1;"/></g><g class="legend" data-source-line="36"><rect fill="#DDDDDD" height="59.4648" rx="7.5" ry="7.5" style="stroke:#000000;stroke-width:1;" width="305.75" x="146.195" y="453.7983"/><text fill="#000000" font-family="sans-serif" font-size="14" lengthAdjust="spacing" textLength="188.3711" x="204.8845" y="472.3334">Context = bruger adf&#230;rden</text><text fill="#000000" font-family="sans-serif" font-size="14" lengthAdjust="spacing" textLength="179.1768" x="209.4816" y="488.8217">Strategy = f&#230;lles interface</text><text fill="#000000" font-family="sans-serif" font-size="14" lengthAdjust="spacing" textLength="295.75" x="151.195" y="505.31">Concrete strategies = udskiftelige varianter</text></g><?plantuml-src RP9DRXin38NtEWMHLOhKFa205EWF0dHHjEZq0hJcIIDO8xaI9utHvZezG_UvM3apJZnsiX4WFV9x9CK89oIPIl2TK1iAh8ISJDs6jEF2FSMG8FiTA1VfyaAe7RVvLqYU7CUAXR9ZksMFHlOHD18v-RWCQE5uYF83z_8-1fzw926h1uen4aJJ6Yaiy7lwXAeHzENnNwgJVg3JnSUi2VToGRyDaOrSAtqOzeraksrGxeB5f12jo07Fm6lwV7kyJW5Nr75g8vxIl-FdW2gNRrHzC0yBpwUqsJIC5JjMeoNou7f5bgCTehvTxefMymsbwRZWBQMXtw1yTTErldJHpco1WEgC3AZBBc-LUTh2_Au6un0LiLGLV3wMrUhTQSNNj2c3r-cUeMcz_dCQQburUINEfAmDRB98xYcxyw_HeW__HrkEBSgnrwIQHqheZmEMjK5gQMGQ4-77oynUW6uENH2txl5lQIVISuatf8yneXwfS-xvg3LoQ7LPdK2N4tJ79V2qcnYNPFGs_m40?></g></svg>