<?plantuml 1.2026.2?><svg xmlns="http://www.w3.org/2000/svg" xmlns:xlink="http://www.w3.org/1999/xlink" contentStyleType="text/css" data-diagram-type="CLASS" height="591.5px" preserveAspectRatio="none" style="width:894px;height:591px;background:#FFFFFF;" version="1.1" viewBox="0 0 894 591" width="894.53px" zoomAndPan="magnify"><title>Tre-lagsarkitektur i ShortBig</title><defs/><g><g class="title" data-source-line="7"><text fill="#000000" font-family="sans-serif" font-size="12.74" font-weight="bold" lengthAdjust="spacing" textLength="190.7703" x="345.6827" y="21.417">Tre-lagsarkitektur i ShortBig</text></g><!--cluster Presentation Layer--><g class="cluster" data-qualified-name="Presentation Layer" data-source-line="9" id="ent0002"><rect fill="none" height="90.09" rx="2.275" ry="2.275" style="stroke:#000000;stroke-width:1.365;" width="379.6884" x="35.7448" y="89.9064"/><text fill="#000000" font-family="sans-serif" font-size="12.74" font-weight="bold" lengthAdjust="spacing" textLength="122.3488" x="164.4146" y="104.0434">Presentation Layer</text></g><!--cluster Business Layer--><g class="cluster" data-qualified-name="Business Layer" data-source-line="14" id="ent0005"><rect fill="none" height="165.62" rx="2.275" ry="2.275" style="stroke:#000000;stroke-width:1.365;" width="190.6268" x="475.7935" y="90.8164"/><text fill="#000000" font-family="sans-serif" font-size="12.74" font-weight="bold" lengthAdjust="spacing" textLength="97.7583" x="522.2277" y="104.9534">Business Layer</text></g><!--cluster Persistence Layer--><g class="cluster" data-qualified-name="Persistence Layer" data-source-line="19" id="ent0008"><rect fill="none" height="241.15" rx="2.275" ry="2.275" style="stroke:#000000;stroke-width:1.365;" width="410.2644" x="479.1514" y="278.2764"/><text fill="#000000" font-family="sans-serif" font-size="12.74" font-weight="bold" lengthAdjust="spacing" textLength="114.6413" x="626.9629" y="292.4134">Persistence Layer</text></g><!--class AppContext--><g class="entity" data-qualified-name="Presentation Layer.AppContext" data-source-line="10" id="ent0003"><rect fill="#F1F1F1" height="43.68" rx="2.275" ry="2.275" style="stroke:#181818;stroke-width:0.455;" width="102.9349" x="50.3048" y="121.7564"/><ellipse cx="63.9548" cy="136.3164" fill="#ADD1B2" rx="10.01" ry="10.01" style="stroke:#181818;stroke-width:0.91;"/><path d="M66.6604,141.4516 Q66.1316,141.7236 65.55,141.8595 Q64.9683,141.9955 64.3263,141.9955 Q62.045,141.9955 60.844,140.4923 Q59.643,138.9891 59.643,136.1489 Q59.643,133.3012 60.844,131.798 Q62.045,130.2948 64.3263,130.2948 Q64.9683,130.2948 65.5575,130.4308 Q66.1467,130.5667 66.6604,130.8387 L66.6604,133.3163 Q66.0863,132.7875 65.5462,132.542 Q65.0061,132.2965 64.432,132.2965 Q63.2083,132.2965 62.5851,133.2672 Q61.962,134.2378 61.962,136.1489 Q61.962,138.0525 62.5851,139.0231 Q63.2083,139.9938 64.432,139.9938 Q65.0061,139.9938 65.5462,139.7483 Q66.0863,139.5028 66.6604,138.974 Z " fill="#000000"/><text fill="#000000" font-family="sans-serif" font-size="12.74" lengthAdjust="spacing" textLength="73.8149" x="76.6948" y="141.1313">AppContext</text><line style="stroke:#181818;stroke-width:0.455;" x1="51.2148" x2="152.3297" y1="150.8764" y2="150.8764"/><line style="stroke:#181818;stroke-width:0.455;" x1="51.2148" x2="152.3297" y1="158.1564" y2="158.1564"/></g><!--class PortfolioViewModel--><g class="entity" data-qualified-name="Presentation Layer.PortfolioViewModel" data-source-line="11" id="ent0004"><rect fill="#F1F1F1" height="43.68" rx="2.275" ry="2.275" style="stroke:#181818;stroke-width:0.455;" width="148.1905" x="252.6797" y="121.7564"/><ellipse cx="266.3297" cy="136.3164" fill="#ADD1B2" rx="10.01" ry="10.01" style="stroke:#181818;stroke-width:0.91;"/><path d="M269.0353,141.4516 Q268.5065,141.7236 267.9249,141.8595 Q267.3432,141.9955 266.7012,141.9955 Q264.4199,141.9955 263.2189,140.4923 Q262.0179,138.9891 262.0179,136.1489 Q262.0179,133.3012 263.2189,131.798 Q264.4199,130.2948 266.7012,130.2948 Q267.3432,130.2948 267.9324,130.4308 Q268.5216,130.5667 269.0353,130.8387 L269.0353,133.3163 Q268.4612,132.7875 267.9211,132.542 Q267.381,132.2965 266.8069,132.2965 Q265.5832,132.2965 264.96,133.2672 Q264.3369,134.2378 264.3369,136.1489 Q264.3369,138.0525 264.96,139.0231 Q265.5832,139.9938 266.8069,139.9938 Q267.381,139.9938 267.9211,139.7483 Q268.4612,139.5028 269.0353,138.974 Z " fill="#000000"/><text fill="#000000" font-family="sans-serif" font-size="12.74" lengthAdjust="spacing" textLength="119.0705" x="279.0697" y="141.1313">PortfolioViewModel</text><line style="stroke:#181818;stroke-width:0.455;" x1="253.5897" x2="399.9602" y1="150.8764" y2="150.8764"/><line style="stroke:#181818;stroke-width:0.455;" x1="253.5897" x2="399.9602" y1="158.1564" y2="158.1564"/></g><!--class BuyStockService--><g class="entity" data-qualified-name="Business Layer.BuyStockService" data-source-line="15" id="ent0006"><rect fill="#F1F1F1" height="43.68" rx="2.275" ry="2.275" style="stroke:#181818;stroke-width:0.455;" width="127.5066" x="507.3523" y="198.1964"/><ellipse cx="521.0023" cy="212.7564" fill="#ADD1B2" rx="10.01" ry="10.01" style="stroke:#181818;stroke-width:0.91;"/><path d="M523.7079,217.8916 Q523.1791,218.1636 522.5975,218.2995 Q522.0158,218.4355 521.3738,218.4355 Q519.0925,218.4355 517.8915,216.9323 Q516.6905,215.4291 516.6905,212.5889 Q516.6905,209.7412 517.8915,208.238 Q519.0925,206.7348 521.3738,206.7348 Q522.0158,206.7348 522.605,206.8708 Q523.1942,207.0067 523.7079,207.2787 L523.7079,209.7563 Q523.1338,209.2275 522.5937,208.982 Q522.0536,208.7365 521.4795,208.7365 Q520.2558,208.7365 519.6326,209.7072 Q519.0095,210.6778 519.0095,212.5889 Q519.0095,214.4925 519.6326,215.4631 Q520.2558,216.4338 521.4795,216.4338 Q522.0536,216.4338 522.5937,216.1883 Q523.1338,215.9428 523.7079,215.414 Z " fill="#000000"/><text fill="#000000" font-family="sans-serif" font-size="12.74" lengthAdjust="spacing" textLength="98.3866" x="533.7423" y="217.5713">BuyStockService</text><line style="stroke:#181818;stroke-width:0.455;" x1="508.2623" x2="633.9489" y1="227.3164" y2="227.3164"/><line style="stroke:#181818;stroke-width:0.455;" x1="508.2623" x2="633.9489" y1="234.5964" y2="234.5964"/></g><!--class PortfolioQueryService--><g class="entity" data-qualified-name="Business Layer.PortfolioQueryService" data-source-line="16" id="ent0007"><rect fill="#F1F1F1" height="43.68" rx="2.275" ry="2.275" style="stroke:#181818;stroke-width:0.455;" width="161.509" x="490.3535" y="122.6664"/><ellipse cx="504.0035" cy="137.2264" fill="#ADD1B2" rx="10.01" ry="10.01" style="stroke:#181818;stroke-width:0.91;"/><path d="M506.7091,142.3616 Q506.1803,142.6336 505.5987,142.7695 Q505.017,142.9055 504.375,142.9055 Q502.0937,142.9055 500.8927,141.4023 Q499.6917,139.8991 499.6917,137.0589 Q499.6917,134.2112 500.8927,132.708 Q502.0937,131.2048 504.375,131.2048 Q505.017,131.2048 505.6062,131.3408 Q506.1954,131.4767 506.7091,131.7487 L506.7091,134.2263 Q506.135,133.6975 505.5949,133.452 Q505.0548,133.2065 504.4807,133.2065 Q503.257,133.2065 502.6338,134.1772 Q502.0107,135.1478 502.0107,137.0589 Q502.0107,138.9625 502.6338,139.9331 Q503.257,140.9038 504.4807,140.9038 Q505.0548,140.9038 505.5949,140.6583 Q506.135,140.4128 506.7091,139.884 Z " fill="#000000"/><text fill="#000000" font-family="sans-serif" font-size="12.74" lengthAdjust="spacing" textLength="132.389" x="516.7435" y="142.0413">PortfolioQueryService</text><line style="stroke:#181818;stroke-width:0.455;" x1="491.2635" x2="650.9525" y1="151.7864" y2="151.7864"/><line style="stroke:#181818;stroke-width:0.455;" x1="491.2635" x2="650.9525" y1="159.0664" y2="159.0664"/></g><!--class UnitOfWork--><g class="entity" data-qualified-name="Persistence Layer.UnitOfWork" data-source-line="20" id="ent0009"><rect fill="#F1F1F1" height="43.68" rx="2.275" ry="2.275" style="stroke:#181818;stroke-width:0.455;" width="100.2662" x="757.9663" y="461.1864"/><ellipse cx="771.6163" cy="475.7464" fill="#B4A7E5" rx="10.01" ry="10.01" style="stroke:#181818;stroke-width:0.91;"/><path d="M767.9105,471.8927 L767.9105,469.9287 L774.6258,469.9287 L774.6258,471.8927 L772.3823,471.8927 L772.3823,479.2425 L774.6258,479.2425 L774.6258,481.2064 L767.9105,481.2064 L767.9105,479.2425 L770.154,479.2425 L770.154,471.8927 Z " fill="#000000"/><text fill="#000000" font-family="sans-serif" font-size="12.74" font-style="italic" lengthAdjust="spacing" textLength="71.1462" x="784.3563" y="480.5613">UnitOfWork</text><line style="stroke:#181818;stroke-width:0.455;" x1="758.8763" x2="857.3225" y1="490.3064" y2="490.3064"/><line style="stroke:#181818;stroke-width:0.455;" x1="758.8763" x2="857.3225" y1="497.5864" y2="497.5864"/></g><!--class PortfolioDAO--><g class="entity" data-qualified-name="Persistence Layer.PortfolioDAO" data-source-line="21" id="ent0010"><rect fill="#F1F1F1" height="43.68" rx="2.275" ry="2.275" style="stroke:#181818;stroke-width:0.455;" width="109.8958" x="753.1524" y="385.6564"/><ellipse cx="766.8024" cy="400.2164" fill="#B4A7E5" rx="10.01" ry="10.01" style="stroke:#181818;stroke-width:0.91;"/><path d="M763.0966,396.3627 L763.0966,394.3987 L769.8119,394.3987 L769.8119,396.3627 L767.5684,396.3627 L767.5684,403.7125 L769.8119,403.7125 L769.8119,405.6764 L763.0966,405.6764 L763.0966,403.7125 L765.3401,403.7125 L765.3401,396.3627 Z " fill="#000000"/><text fill="#000000" font-family="sans-serif" font-size="12.74" font-style="italic" lengthAdjust="spacing" textLength="80.7758" x="779.5424" y="405.0313">PortfolioDAO</text><line style="stroke:#181818;stroke-width:0.455;" x1="754.0624" x2="862.1382" y1="414.7764" y2="414.7764"/><line style="stroke:#181818;stroke-width:0.455;" x1="754.0624" x2="862.1382" y1="422.0564" y2="422.0564"/></g><!--class OwnedStockDAO--><g class="entity" data-qualified-name="Persistence Layer.OwnedStockDAO" data-source-line="22" id="ent0011"><rect fill="#F1F1F1" height="43.68" rx="2.275" ry="2.275" style="stroke:#181818;stroke-width:0.455;" width="133.5096" x="741.3497" y="310.1264"/><ellipse cx="754.9997" cy="324.6864" fill="#B4A7E5" rx="10.01" ry="10.01" style="stroke:#181818;stroke-width:0.91;"/><path d="M751.2939,320.8327 L751.2939,318.8687 L758.0092,318.8687 L758.0092,320.8327 L755.7657,320.8327 L755.7657,328.1825 L758.0092,328.1825 L758.0092,330.1464 L751.2939,330.1464 L751.2939,328.1825 L753.5374,328.1825 L753.5374,320.8327 Z " fill="#000000"/><text fill="#000000" font-family="sans-serif" font-size="12.74" font-style="italic" lengthAdjust="spacing" textLength="104.3896" x="767.7397" y="329.5013">OwnedStockDAO</text><line style="stroke:#181818;stroke-width:0.455;" x1="742.2597" x2="873.9493" y1="339.2464" y2="339.2464"/><line style="stroke:#181818;stroke-width:0.455;" x1="742.2597" x2="873.9493" y1="346.5264" y2="346.5264"/></g><!--class FileUnitOfWork--><g class="entity" data-qualified-name="Persistence Layer.FileUnitOfWork" data-source-line="24" id="ent0012"><rect fill="#F1F1F1" height="43.68" rx="2.275" ry="2.275" style="stroke:#181818;stroke-width:0.455;" width="121.5596" x="510.328" y="461.1864"/><ellipse cx="523.978" cy="475.7464" fill="#ADD1B2" rx="10.01" ry="10.01" style="stroke:#181818;stroke-width:0.91;"/><path d="M526.6836,480.8816 Q526.1548,481.1536 525.5732,481.2895 Q524.9915,481.4255 524.3495,481.4255 Q522.0682,481.4255 520.8672,479.9223 Q519.6662,478.4191 519.6662,475.5789 Q519.6662,472.7312 520.8672,471.228 Q522.0682,469.7248 524.3495,469.7248 Q524.9915,469.7248 525.5807,469.8608 Q526.1699,469.9967 526.6836,470.2687 L526.6836,472.7463 Q526.1095,472.2175 525.5694,471.972 Q525.0293,471.7265 524.4552,471.7265 Q523.2315,471.7265 522.6083,472.6972 Q521.9852,473.6678 521.9852,475.5789 Q521.9852,477.4825 522.6083,478.4531 Q523.2315,479.4238 524.4552,479.4238 Q525.0293,479.4238 525.5694,479.1783 Q526.1095,478.9328 526.6836,478.404 Z " fill="#000000"/><text fill="#000000" font-family="sans-serif" font-size="12.74" lengthAdjust="spacing" textLength="92.4396" x="536.718" y="480.5613">FileUnitOfWork</text><line style="stroke:#181818;stroke-width:0.455;" x1="511.238" x2="630.9776" y1="490.3064" y2="490.3064"/><line style="stroke:#181818;stroke-width:0.455;" x1="511.238" x2="630.9776" y1="497.5864" y2="497.5864"/></g><!--class PortfolioFileDAO--><g class="entity" data-qualified-name="Persistence Layer.PortfolioFileDAO" data-source-line="25" id="ent0013"><rect fill="#F1F1F1" height="43.68" rx="2.275" ry="2.275" style="stroke:#181818;stroke-width:0.455;" width="131.1893" x="505.5141" y="385.6564"/><ellipse cx="519.1641" cy="400.2164" fill="#ADD1B2" rx="10.01" ry="10.01" style="stroke:#181818;stroke-width:0.91;"/><path d="M521.8697,405.3516 Q521.3409,405.6236 520.7593,405.7595 Q520.1776,405.8955 519.5356,405.8955 Q517.2543,405.8955 516.0533,404.3923 Q514.8523,402.8891 514.8523,400.0489 Q514.8523,397.2012 516.0533,395.698 Q517.2543,394.1948 519.5356,394.1948 Q520.1776,394.1948 520.7668,394.3308 Q521.356,394.4667 521.8697,394.7387 L521.8697,397.2163 Q521.2956,396.6875 520.7555,396.442 Q520.2154,396.1965 519.6413,396.1965 Q518.4176,396.1965 517.7944,397.1672 Q517.1713,398.1378 517.1713,400.0489 Q517.1713,401.9525 517.7944,402.9231 Q518.4176,403.8938 519.6413,403.8938 Q520.2154,403.8938 520.7555,403.6483 Q521.2956,403.4028 521.8697,402.874 Z " fill="#000000"/><text fill="#000000" font-family="sans-serif" font-size="12.74" lengthAdjust="spacing" textLength="102.0693" x="531.9041" y="405.0313">PortfolioFileDAO</text><line style="stroke:#181818;stroke-width:0.455;" x1="506.4241" x2="635.7934" y1="414.7764" y2="414.7764"/><line style="stroke:#181818;stroke-width:0.455;" x1="506.4241" x2="635.7934" y1="422.0564" y2="422.0564"/></g><!--class OwnedStockFileDAO--><g class="entity" data-qualified-name="Persistence Layer.OwnedStockFileDAO" data-source-line="26" id="ent0014"><rect fill="#F1F1F1" height="43.68" rx="2.275" ry="2.275" style="stroke:#181818;stroke-width:0.455;" width="154.8031" x="493.7114" y="310.1264"/><ellipse cx="507.3614" cy="324.6864" fill="#ADD1B2" rx="10.01" ry="10.01" style="stroke:#181818;stroke-width:0.91;"/><path d="M510.067,329.8216 Q509.5382,330.0936 508.9566,330.2295 Q508.3749,330.3655 507.7329,330.3655 Q505.4516,330.3655 504.2506,328.8623 Q503.0496,327.3591 503.0496,324.5189 Q503.0496,321.6712 504.2506,320.168 Q505.4516,318.6648 507.7329,318.6648 Q508.3749,318.6648 508.9641,318.8008 Q509.5533,318.9367 510.067,319.2087 L510.067,321.6863 Q509.4929,321.1575 508.9528,320.912 Q508.4127,320.6665 507.8386,320.6665 Q506.6149,320.6665 505.9917,321.6372 Q505.3686,322.6078 505.3686,324.5189 Q505.3686,326.4225 505.9917,327.3931 Q506.6149,328.3638 507.8386,328.3638 Q508.4127,328.3638 508.9528,328.1183 Q509.4929,327.8728 510.067,327.344 Z " fill="#000000"/><text fill="#000000" font-family="sans-serif" font-size="12.74" lengthAdjust="spacing" textLength="125.6831" x="520.1014" y="329.5013">OwnedStockFileDAO</text><line style="stroke:#181818;stroke-width:0.455;" x1="494.6214" x2="647.6045" y1="339.2464" y2="339.2464"/><line style="stroke:#181818;stroke-width:0.455;" x1="494.6214" x2="647.6045" y1="346.5264" y2="346.5264"/></g><g class="entity" data-qualified-name="GMN31" data-source-line="50" id="ent0032"><path d="M5.46,197.0043 L5.46,233.9695 A0,0 0 0 0 5.46,233.9695 L198.0805,233.9695 A0,0 0 0 0 198.0805,233.9695 L198.0805,206.1043 L188.9805,197.0043 L88.6158,197.0043 L84.9758,165.673 L81.3358,197.0043 L5.46,197.0043 A0,0 0 0 0 5.46,197.0043" fill="#FEFFDD" style="stroke:#181818;stroke-width:0.455;"/><path d="M188.9805,197.0043 L188.9805,206.1043 L198.0805,206.1043 L188.9805,197.0043" fill="#FEFFDD" style="stroke:#181818;stroke-width:0.455;"/><text fill="#000000" font-family="sans-serif" font-size="11.83" lengthAdjust="spacing" textLength="128.4202" x="33.4652" y="212.9915">Kun composition root:</text><text fill="#000000" font-family="sans-serif" font-size="11.83" lengthAdjust="spacing" textLength="173.5105" x="10.92" y="226.9241">opretter og forbinder objekter</text></g><g class="entity" data-qualified-name="GMN34" data-source-line="55" id="ent0035"><path d="M455.4732,39.5743 L455.4732,76.5395 L686.7492,76.5395 L686.7492,48.6743 L677.6492,39.5743 L455.4732,39.5743" fill="#FEFFDD" style="stroke:#181818;stroke-width:0.455;"/><path d="M677.6492,39.5743 L677.6492,48.6743 L686.7492,48.6743 L677.6492,39.5743" fill="#FEFFDD" style="stroke:#181818;stroke-width:0.91;"/><text fill="#000000" font-family="sans-serif" font-size="11.83" lengthAdjust="spacing" textLength="168.7912" x="482.6206" y="55.5615">Transaction Script-eksempel:</text><text fill="#000000" font-family="sans-serif" font-size="11.83" lengthAdjust="spacing" textLength="212.166" x="460.9332" y="69.4941">&#233;n metode h&#229;ndterer &#233;n hel use case</text></g><!--link PortfolioViewModel to BuyStockService--><g class="link" data-entity-1="ent0004" data-entity-2="ent0006" data-link-type="dependency" data-source-line="29" id="lnk15"><path codeLine="29" d="M327.0358,165.7367 C327.0358,187.058 327.0358,216.087 327.0358,216.087 C327.0358,216.087 429.2106,216.087 501.5192,216.087" fill="none" id="PortfolioViewModel-to-BuyStockService" style="stroke:#181818;stroke-width:0.91;"/><polygon fill="#181818" points="506.9792,216.087,498.7892,212.447,502.4292,216.087,498.7892,219.727,506.9792,216.087" style="stroke:#181818;stroke-width:0.91;"/><text fill="#000000" font-family="sans-serif" font-size="11.83" lengthAdjust="spacing" textLength="103.8533" x="287.1869" y="228.4342">k&#248;b/salg use case</text></g><!--link PortfolioViewModel to PortfolioQueryService--><g class="link" data-entity-1="ent0004" data-entity-2="ent0007" data-link-type="dependency" data-source-line="30" id="lnk16"><path codeLine="30" d="M401.0825,144.0514 C429.156,144.0514 455.7826,144.0514 484.4658,144.0514" fill="none" id="PortfolioViewModel-to-PortfolioQueryService" style="stroke:#181818;stroke-width:0.91;"/><polygon fill="#181818" points="489.9258,144.0514,481.7358,140.4114,485.3758,144.0514,481.7358,147.6914,489.9258,144.0514" style="stroke:#181818;stroke-width:0.91;"/><text fill="#000000" font-family="sans-serif" font-size="11.83" lengthAdjust="spacing" textLength="115.4234" x="329.9296" y="156.3986">l&#230;ser portef&#248;ljedata</text></g><!--link BuyStockService to UnitOfWork--><g class="link" data-entity-1="ent0006" data-entity-2="ent0009" data-link-type="dependency" data-source-line="32" id="lnk17"><path codeLine="32" d="M635.2437,230.9564 C649.7673,230.9564 661.0058,230.9564 661.0058,230.9564 C661.0058,230.9564 661.0058,475.7464 661.0058,475.7464 C661.0058,475.7464 709.8182,475.7464 752.4335,475.7464" fill="none" id="BuyStockService-to-UnitOfWork" style="stroke:#181818;stroke-width:0.91;"/><polygon fill="#181818" points="757.8935,475.7464,749.7035,472.1064,753.3435,475.7464,749.7035,479.3864,757.8935,475.7464" style="stroke:#181818;stroke-width:0.91;"/></g><!--link BuyStockService to PortfolioDAO--><g class="link" data-entity-1="ent0006" data-entity-2="ent0010" data-link-type="dependency" data-source-line="33" id="lnk18"><path codeLine="33" d="M635.1618,220.0364 C653.7804,220.0364 669.1958,220.0364 669.1958,220.0364 C669.1958,220.0364 669.1958,407.4964 669.1958,407.4964 C669.1958,407.4964 708.6079,407.4964 747.3466,407.4964" fill="none" id="BuyStockService-to-PortfolioDAO" style="stroke:#181818;stroke-width:0.91;"/><polygon fill="#181818" points="752.8066,407.4964,744.6166,403.8564,748.2566,407.4964,744.6166,411.1364,752.8066,407.4964" style="stroke:#181818;stroke-width:0.91;"/></g><!--link BuyStockService to OwnedStockDAO--><g class="link" data-entity-1="ent0006" data-entity-2="ent0011" data-link-type="dependency" data-source-line="34" id="lnk19"><path codeLine="34" d="M635.1982,209.1164 C698.425,209.1164 785.6758,209.1164 785.6758,209.1164 C785.6758,209.1164 785.6758,268.8579 785.6758,304.2569" fill="none" id="BuyStockService-to-OwnedStockDAO" style="stroke:#181818;stroke-width:0.91;"/><polygon fill="#181818" points="785.6758,309.7169,789.3158,301.5269,785.6758,305.1669,782.0358,301.5269,785.6758,309.7169" style="stroke:#181818;stroke-width:0.91;"/></g><!--link PortfolioQueryService to PortfolioDAO--><g class="link" data-entity-1="ent0007" data-entity-2="ent0010" data-link-type="dependency" data-source-line="35" id="lnk20"><path codeLine="35" d="M652.0787,151.7864 C667.1665,151.7864 678.2958,151.7864 678.2958,151.7864 C678.2958,151.7864 678.2958,396.5764 678.2958,396.5764 C678.2958,396.5764 712.2115,396.5764 747.5923,396.5764" fill="none" id="PortfolioQueryService-to-PortfolioDAO" style="stroke:#181818;stroke-width:0.91;"/><polygon fill="#181818" points="753.0523,396.5764,744.8623,392.9364,748.5023,396.5764,744.8623,400.2164,753.0523,396.5764" style="stroke:#181818;stroke-width:0.91;"/></g><!--link PortfolioQueryService to OwnedStockDAO--><g class="link" data-entity-1="ent0007" data-entity-2="ent0011" data-link-type="dependency" data-source-line="36" id="lnk21"><path codeLine="36" d="M652.0423,137.2264 C728.0819,137.2264 830.2658,137.2264 830.2658,137.2264 C830.2658,137.2264 830.2658,253.6154 830.2658,304.5481" fill="none" id="PortfolioQueryService-to-OwnedStockDAO" style="stroke:#181818;stroke-width:0.91;"/><polygon fill="#181818" points="830.2658,310.0081,833.9058,301.8181,830.2658,305.4581,826.6258,301.8181,830.2658,310.0081" style="stroke:#181818;stroke-width:0.91;"/></g><!--link FileUnitOfWork to UnitOfWork--><g class="link" data-entity-1="ent0012" data-entity-2="ent0009" data-link-type="extension" data-source-line="38" id="lnk22"><path codeLine="38" d="M632.1406,490.3064 C671.0886,490.3064 704.5857,490.3064 741.286,490.3064" fill="none" id="FileUnitOfWork-to-UnitOfWork" style="stroke:#181818;stroke-width:0.91;stroke-dasharray:6.37,6.37;"/><polygon fill="none" points="757.666,490.3064,741.286,484.8464,741.286,495.7664,757.666,490.3064" style="stroke:#181818;stroke-width:0.91;"/></g><!--link PortfolioFileDAO to PortfolioDAO--><g class="link" data-entity-1="ent0013" data-entity-2="ent0010" data-link-type="extension" data-source-line="39" id="lnk23"><path codeLine="39" d="M637.1274,418.4164 C673.5547,418.4164 701.9012,418.4164 736.4721,418.4164" fill="none" id="PortfolioFileDAO-to-PortfolioDAO" style="stroke:#181818;stroke-width:0.91;stroke-dasharray:6.37,6.37;"/><polygon fill="none" points="752.8521,418.4164,736.4721,412.9564,736.4721,423.8764,752.8521,418.4164" style="stroke:#181818;stroke-width:0.91;"/></g><!--link OwnedStockFileDAO to OwnedStockDAO--><g class="link" data-entity-1="ent0014" data-entity-2="ent0011" data-link-type="extension" data-source-line="40" id="lnk24"><path codeLine="40" d="M648.7117,331.9664 C678.5415,331.9664 695.9407,331.9664 724.6967,331.9664" fill="none" id="OwnedStockFileDAO-to-OwnedStockDAO" style="stroke:#181818;stroke-width:0.91;stroke-dasharray:6.37,6.37;"/><polygon fill="none" points="741.0767,331.9664,724.6967,326.5064,724.6967,337.4264,741.0767,331.9664" style="stroke:#181818;stroke-width:0.91;"/></g><!--link AppContext to PortfolioViewModel--><g class="link" data-entity-1="ent0003" data-entity-2="ent0004" data-link-type="dependency" data-source-line="42" id="lnk25"><path codeLine="42" d="M153.6717,129.0364 C183.001,129.0364 214.7054,129.0364 247.0741,129.0364" fill="none" id="AppContext-to-PortfolioViewModel" style="stroke:#181818;stroke-width:0.91;stroke-dasharray:6.37,6.37;"/><polygon fill="#181818" points="252.5341,129.0364,244.3441,125.3964,247.9841,129.0364,244.3441,132.6764,252.5341,129.0364" style="stroke:#181818;stroke-width:0.91;"/><text fill="#000000" font-family="sans-serif" font-size="11.83" lengthAdjust="spacing" textLength="84.9646" x="117.5629" y="125.9136">sammens&#230;tter</text></g><!--link AppContext to BuyStockService--><g class="link" data-entity-1="ent0003" data-entity-2="ent0006" data-link-type="dependency" data-source-line="43" id="lnk26"><path codeLine="43" d="M153.3987,136.3164 C193.2021,136.3164 241.4958,136.3164 241.4958,136.3164 C241.4958,136.3164 241.4958,225.0232 241.4958,225.0232 C241.4958,225.0232 405.8509,225.0232 501.7012,225.0232" fill="none" id="AppContext-to-BuyStockService" style="stroke:#181818;stroke-width:0.91;stroke-dasharray:6.37,6.37;"/><polygon fill="#181818" points="507.1612,225.0232,498.9712,221.3832,502.6112,225.0232,498.9712,228.6632,507.1612,225.0232" style="stroke:#181818;stroke-width:0.91;"/><text fill="#000000" font-family="sans-serif" font-size="11.83" lengthAdjust="spacing" textLength="84.9646" x="200.3911" y="237.3704">sammens&#230;tter</text></g><!--link AppContext to PortfolioQueryService--><g class="link" data-entity-1="ent0003" data-entity-2="ent0007" data-link-type="dependency" data-source-line="44" id="lnk27"><path codeLine="44" d="M118.6458,165.7458 C118.6458,174.1269 118.6458,181.6708 118.6458,181.6708 C118.6458,181.6708 500.8458,181.6708 500.8458,181.6708 C500.8458,181.6708 500.8458,180.0237 500.8458,172.0157" fill="none" id="AppContext-to-PortfolioQueryService" style="stroke:#181818;stroke-width:0.91;stroke-dasharray:6.37,6.37;"/><polygon fill="#181818" points="500.8458,166.5557,497.2058,174.7457,500.8458,171.1057,504.4858,174.7457,500.8458,166.5557" style="stroke:#181818;stroke-width:0.91;"/><text fill="#000000" font-family="sans-serif" font-size="11.83" lengthAdjust="spacing" textLength="84.9646" x="223.8054" y="194.018">sammens&#230;tter</text></g><!--link AppContext to FileUnitOfWork--><g class="link" data-entity-1="ent0003" data-entity-2="ent0012" data-link-type="dependency" data-source-line="45" id="lnk28"><path codeLine="45" d="M153.6899,158.1564 C180.9444,158.1564 208.7358,158.1564 208.7358,158.1564 C208.7358,158.1564 208.7358,483.0264 208.7358,483.0264 C208.7358,483.0264 401.31,483.0264 504.5859,483.0264" fill="none" id="AppContext-to-FileUnitOfWork" style="stroke:#181818;stroke-width:0.91;stroke-dasharray:6.37,6.37;"/><polygon fill="#181818" points="510.0459,483.0264,501.8559,479.3864,505.4959,483.0264,501.8559,486.6664,510.0459,483.0264" style="stroke:#181818;stroke-width:0.91;"/><text fill="#000000" font-family="sans-serif" font-size="11.83" lengthAdjust="spacing" textLength="132.4694" x="75.8758" y="456.0707">v&#230;lger implementation</text></g><!--link AppContext to PortfolioFileDAO--><g class="link" data-entity-1="ent0003" data-entity-2="ent0013" data-link-type="dependency" data-source-line="46" id="lnk29"><path codeLine="46" d="M153.4806,150.8764 C185.1486,150.8764 219.6558,150.8764 219.6558,150.8764 C219.6558,150.8764 219.6558,407.4964 219.6558,407.4964 C219.6558,407.4964 398.2342,407.4964 499.954,407.4964" fill="none" id="AppContext-to-PortfolioFileDAO" style="stroke:#181818;stroke-width:0.91;stroke-dasharray:6.37,6.37;"/><polygon fill="#181818" points="505.414,407.4964,497.224,403.8564,500.864,407.4964,497.224,411.1364,505.414,407.4964" style="stroke:#181818;stroke-width:0.91;"/><text fill="#000000" font-family="sans-serif" font-size="11.83" lengthAdjust="spacing" textLength="132.4694" x="86.7958" y="401.3251">v&#230;lger implementation</text></g><!--link AppContext to OwnedStockFileDAO--><g class="link" data-entity-1="ent0003" data-entity-2="ent0014" data-link-type="dependency" data-source-line="47" id="lnk30"><path codeLine="47" d="M153.4169,143.5964 C189.2527,143.5964 230.5758,143.5964 230.5758,143.5964 C230.5758,143.5964 230.5758,331.9664 230.5758,331.9664 C230.5758,331.9664 387.4416,331.9664 487.9511,331.9664" fill="none" id="AppContext-to-OwnedStockFileDAO" style="stroke:#181818;stroke-width:0.91;stroke-dasharray:6.37,6.37;"/><polygon fill="#181818" points="493.4111,331.9664,485.2211,328.3264,488.8611,331.9664,485.2211,335.6064,493.4111,331.9664" style="stroke:#181818;stroke-width:0.91;"/><text fill="#000000" font-family="sans-serif" font-size="11.83" lengthAdjust="spacing" textLength="132.4694" x="97.7158" y="342.9668">v&#230;lger implementation</text></g><!--link BuyStockService to GMN34--><g class="link" data-entity-1="ent0006" data-entity-2="ent0035" data-link-type="association" data-source-line="55" id="lnk36"><path d="M507.0793,207.1417 C488.2696,207.1417 472.6358,207.1417 472.6358,207.1417 C472.6358,207.1417 472.6358,117.0517 472.6358,76.9389" fill="none" id="BuyStockService-GMN34" style="stroke:#181818;stroke-width:0.91;stroke-dasharray:6.37,6.37;"/></g><g class="legend" data-source-line="59"><rect fill="#DDDDDD" height="39.1087" rx="6.825" ry="6.825" style="stroke:#000000;stroke-width:0.91;" width="271.8563" x="305.1398" y="534.8964"/><text fill="#000000" font-family="sans-serif" font-size="12.74" lengthAdjust="spacing" textLength="262.7563" x="309.6898" y="551.7634">Fuld optrukket pil = normalt runtime-flow</text><text fill="#000000" font-family="sans-serif" font-size="12.74" lengthAdjust="spacing" textLength="261.1078" x="310.514" y="566.7678">Stiplet pil = wiring / dependency injection</text></g><?plantuml-src ZLLBRjim4Dth58FidUm3D83J8fkci0kbxPgMHl9O54cGepX2s-CqG6-GlIxMOHpR-jX1Dm8uR-RDZtpIM32m1K_bcY4dZncJDKceo3ZbLGsQ37Bh4ApdjUq1OQrokoLJGg5qm1xYL5Qf4bDkDK9aLARKVOSS2zLeVi0ddcigJOs68PCF-YHXOWbxy3ZJgWpALyHOSUE185rB4RTK9ibR2hXOUWmIg6BLSAzQz1VmCm78j0e1vivzj4Bxn0VJKYWAgyb-9zn-iJdgv7UFxxO9qh3uJRXkcpPbcrKf-aVAS4hujK7Vxj4-vn9zeC1eCkpJKkotK6ByPeWNnG_hgu7vmFnflXW0Ywt1_BMOY1mgkIED0wfHWH7VKUs08yqUaQgdyu7Px6RSFLn3rRsiheBI9JG18LDo1Sx4dfoGCEZkEQ079p0MtOlUOAvO9SauL-JezNKA7epgbCDmPAShcX2TTnjjO3XvkBpyDQXul86Tmo3LP1Sxdr6UutqM-ER4NPQf1bNBUmhTCyVdD8gOhl5TztERUpTeD8nhUEoUTIcBfjffhFUlzMok_G3-Dt0wkhEHYR6CedSER34KXy-DWSpMpWPwbH9lBL-BtJgFiKcmedFMhyZayR3QY2P9wsXoY9nlp2lBREj8FbMB1wzCKA_o2cdcoV4Cgu2rGnqJTNyDrCYoH5XtVqmkx98eMjUoriCJEoRKMCR3BgKGt3KwbtBPDrM538uqV11NNolDu1l3LEEiq7OhlYcJp6Nlj2KVPVnATDa9fUXKAsApUViLY6MNAla7?></g></svg>