<?plantuml 1.2026.2?><svg xmlns="http://www.w3.org/2000/svg" xmlns:xlink="http://www.w3.org/1999/xlink" contentStyleType="text/css" data-diagram-type="CLASS" height="634px" preserveAspectRatio="none" style="width:651px;height:634px;background:#FFFFFF;" version="1.1" viewBox="0 0 651 634" width="651px" zoomAndPan="magnify"><title>DAO og Unit of Work i ShortBig</title><defs/><g><g class="title" data-source-line="7"><text fill="#000000" font-family="sans-serif" font-size="14" font-weight="bold" lengthAdjust="spacing" textLength="225.4219" x="206.1177" y="23.5352">DAO og Unit of Work i ShortBig</text></g><!--cluster Business--><g class="cluster" data-qualified-name="Business" data-source-line="9" id="ent0002"><rect fill="none" height="99" rx="2.5" ry="2.5" style="stroke:#000000;stroke-width:1.5;" width="172.12" x="239.13" y="99.7983"/><text fill="#000000" font-family="sans-serif" font-size="14" font-weight="bold" lengthAdjust="spacing" textLength="63.7109" x="293.3345" y="115.3334">Business</text></g><!--cluster Interfaces--><g class="cluster" data-qualified-name="Interfaces" data-source-line="13" id="ent0004"><rect fill="none" height="431" rx="2.5" ry="2.5" style="stroke:#000000;stroke-width:1.5;" width="178.72" x="441.26" y="172.7983"/><text fill="#000000" font-family="sans-serif" font-size="14" font-weight="bold" lengthAdjust="spacing" textLength="71.6816" x="494.7792" y="188.3334">Interfaces</text></g><!--cluster File Persistence--><g class="cluster" data-qualified-name="File Persistence" data-source-line="21" id="ent0010"><rect fill="none" height="348" rx="2.5" ry="2.5" style="stroke:#000000;stroke-width:1.5;" width="400.98" x="7" y="222.7983"/><text fill="#000000" font-family="sans-serif" font-size="14" font-weight="bold" lengthAdjust="spacing" textLength="112.2256" x="151.3772" y="238.3334">File Persistence</text></g><!--class BuyStockService--><g class="entity" data-qualified-name="Business.BuyStockService" data-source-line="10" id="ent0003"><rect fill="#F1F1F1" height="48" rx="2.5" ry="2.5" style="stroke:#181818;stroke-width:0.5;" width="140.1172" x="255.13" y="134.7983"/><ellipse cx="270.13" cy="150.7983" fill="#ADD1B2" rx="11" ry="11" style="stroke:#181818;stroke-width:1;"/><path d="M273.1031,156.4413 Q272.5221,156.7402 271.8829,156.8896 Q271.2438,157.039 270.5382,157.039 Q268.0314,157.039 266.7115,155.3871 Q265.3917,153.7353 265.3917,150.6142 Q265.3917,147.4848 266.7115,145.8329 Q268.0314,144.1811 270.5382,144.1811 Q271.2438,144.1811 271.8912,144.3305 Q272.5387,144.4799 273.1031,144.7788 L273.1031,147.5014 Q272.4723,146.9204 271.8788,146.6506 Q271.2853,146.3808 270.6544,146.3808 Q269.3097,146.3808 268.6249,147.4475 Q267.9401,148.5141 267.9401,150.6142 Q267.9401,152.706 268.6249,153.7726 Q269.3097,154.8393 270.6544,154.8393 Q271.2853,154.8393 271.8788,154.5695 Q272.4723,154.2997 273.1031,153.7187 Z " fill="#000000"/><text fill="#000000" font-family="sans-serif" font-size="14" lengthAdjust="spacing" textLength="108.1172" x="284.13" y="156.0893">BuyStockService</text><line style="stroke:#181818;stroke-width:0.5;" x1="256.13" x2="394.2472" y1="166.7983" y2="166.7983"/><line style="stroke:#181818;stroke-width:0.5;" x1="256.13" x2="394.2472" y1="174.7983" y2="174.7983"/></g><!--class UnitOfWork--><g class="entity" data-qualified-name="Interfaces.UnitOfWork" data-source-line="14" id="ent0005"><rect fill="#F1F1F1" height="48" rx="2.5" ry="2.5" style="stroke:#181818;stroke-width:0.5;" width="110.1826" x="475.53" y="207.7983"/><ellipse cx="490.53" cy="223.7983" fill="#B4A7E5" rx="11" ry="11" style="stroke:#181818;stroke-width:1;"/><path d="M486.4577,219.5634 L486.4577,217.4052 L493.8371,217.4052 L493.8371,219.5634 L491.3718,219.5634 L491.3718,227.6401 L493.8371,227.6401 L493.8371,229.7983 L486.4577,229.7983 L486.4577,227.6401 L488.9231,227.6401 L488.9231,219.5634 Z " fill="#000000"/><text fill="#000000" font-family="sans-serif" font-size="14" font-style="italic" lengthAdjust="spacing" textLength="78.1826" x="504.53" y="229.0893">UnitOfWork</text><line style="stroke:#181818;stroke-width:0.5;" x1="476.53" x2="584.7126" y1="239.7983" y2="239.7983"/><line style="stroke:#181818;stroke-width:0.5;" x1="476.53" x2="584.7126" y1="247.7983" y2="247.7983"/></g><!--class StockDAO--><g class="entity" data-qualified-name="Interfaces.StockDAO" data-source-line="15" id="ent0006"><rect fill="#F1F1F1" height="48" rx="2.5" ry="2.5" style="stroke:#181818;stroke-width:0.5;" width="99.751" x="480.75" y="290.7983"/><ellipse cx="495.75" cy="306.7983" fill="#B4A7E5" rx="11" ry="11" style="stroke:#181818;stroke-width:1;"/><path d="M491.6777,302.5634 L491.6777,300.4052 L499.0571,300.4052 L499.0571,302.5634 L496.5918,302.5634 L496.5918,310.6401 L499.0571,310.6401 L499.0571,312.7983 L491.6777,312.7983 L491.6777,310.6401 L494.1431,310.6401 L494.1431,302.5634 Z " fill="#000000"/><text fill="#000000" font-family="sans-serif" font-size="14" font-style="italic" lengthAdjust="spacing" textLength="67.751" x="509.75" y="312.0893">StockDAO</text><line style="stroke:#181818;stroke-width:0.5;" x1="481.75" x2="579.501" y1="322.7983" y2="322.7983"/><line style="stroke:#181818;stroke-width:0.5;" x1="481.75" x2="579.501" y1="330.7983" y2="330.7983"/></g><!--class PortfolioDAO--><g class="entity" data-qualified-name="Interfaces.PortfolioDAO" data-source-line="16" id="ent0007"><rect fill="#F1F1F1" height="48" rx="2.5" ry="2.5" style="stroke:#181818;stroke-width:0.5;" width="120.7646" x="470.24" y="373.7983"/><ellipse cx="485.24" cy="389.7983" fill="#B4A7E5" rx="11" ry="11" style="stroke:#181818;stroke-width:1;"/><path d="M481.1677,385.5634 L481.1677,383.4052 L488.5471,383.4052 L488.5471,385.5634 L486.0818,385.5634 L486.0818,393.6401 L488.5471,393.6401 L488.5471,395.7983 L481.1677,395.7983 L481.1677,393.6401 L483.6331,393.6401 L483.6331,385.5634 Z " fill="#000000"/><text fill="#000000" font-family="sans-serif" font-size="14" font-style="italic" lengthAdjust="spacing" textLength="88.7646" x="499.24" y="395.0893">PortfolioDAO</text><line style="stroke:#181818;stroke-width:0.5;" x1="471.24" x2="590.0046" y1="405.7983" y2="405.7983"/><line style="stroke:#181818;stroke-width:0.5;" x1="471.24" x2="590.0046" y1="413.7983" y2="413.7983"/></g><!--class OwnedStockDAO--><g class="entity" data-qualified-name="Interfaces.OwnedStockDAO" data-source-line="17" id="ent0008"><rect fill="#F1F1F1" height="48" rx="2.5" ry="2.5" style="stroke:#181818;stroke-width:0.5;" width="146.7139" x="457.26" y="456.7983"/><ellipse cx="472.26" cy="472.7983" fill="#B4A7E5" rx="11" ry="11" style="stroke:#181818;stroke-width:1;"/><path d="M468.1877,468.5634 L468.1877,466.4052 L475.5671,466.4052 L475.5671,468.5634 L473.1018,468.5634 L473.1018,476.6401 L475.5671,476.6401 L475.5671,478.7983 L468.1877,478.7983 L468.1877,476.6401 L470.6531,476.6401 L470.6531,468.5634 Z " fill="#000000"/><text fill="#000000" font-family="sans-serif" font-size="14" font-style="italic" lengthAdjust="spacing" textLength="114.7139" x="486.26" y="478.0893">OwnedStockDAO</text><line style="stroke:#181818;stroke-width:0.5;" x1="458.26" x2="602.9739" y1="488.7983" y2="488.7983"/><line style="stroke:#181818;stroke-width:0.5;" x1="458.26" x2="602.9739" y1="496.7983" y2="496.7983"/></g><!--class TransactionDAO--><g class="entity" data-qualified-name="Interfaces.TransactionDAO" data-source-line="18" id="ent0009"><rect fill="#F1F1F1" height="48" rx="2.5" ry="2.5" style="stroke:#181818;stroke-width:0.5;" width="142.6328" x="459.3" y="539.7983"/><ellipse cx="474.3" cy="555.7983" fill="#B4A7E5" rx="11" ry="11" style="stroke:#181818;stroke-width:1;"/><path d="M470.2277,551.5634 L470.2277,549.4052 L477.6071,549.4052 L477.6071,551.5634 L475.1418,551.5634 L475.1418,559.6401 L477.6071,559.6401 L477.6071,561.7983 L470.2277,561.7983 L470.2277,559.6401 L472.6931,559.6401 L472.6931,551.5634 Z " fill="#000000"/><text fill="#000000" font-family="sans-serif" font-size="14" font-style="italic" lengthAdjust="spacing" textLength="110.6328" x="488.3" y="561.0893">TransactionDAO</text><line style="stroke:#181818;stroke-width:0.5;" x1="460.3" x2="600.9328" y1="571.7983" y2="571.7983"/><line style="stroke:#181818;stroke-width:0.5;" x1="460.3" x2="600.9328" y1="579.7983" y2="579.7983"/></g><!--class FileUnitOfWork--><g class="entity" data-qualified-name="File Persistence.FileUnitOfWork" data-source-line="22" id="ent0011"><rect fill="#F1F1F1" height="48" rx="2.5" ry="2.5" style="stroke:#181818;stroke-width:0.5;" width="133.582" x="258.4" y="257.7983"/><ellipse cx="273.4" cy="273.7983" fill="#ADD1B2" rx="11" ry="11" style="stroke:#181818;stroke-width:1;"/><path d="M276.3731,279.4413 Q275.7921,279.7402 275.1529,279.8896 Q274.5138,280.039 273.8082,280.039 Q271.3014,280.039 269.9815,278.3871 Q268.6617,276.7353 268.6617,273.6142 Q268.6617,270.4848 269.9815,268.8329 Q271.3014,267.1811 273.8082,267.1811 Q274.5138,267.1811 275.1612,267.3305 Q275.8087,267.4799 276.3731,267.7788 L276.3731,270.5014 Q275.7423,269.9204 275.1488,269.6506 Q274.5553,269.3808 273.9244,269.3808 Q272.5797,269.3808 271.8949,270.4475 Q271.2101,271.5141 271.2101,273.6142 Q271.2101,275.706 271.8949,276.7726 Q272.5797,277.8393 273.9244,277.8393 Q274.5553,277.8393 275.1488,277.5695 Q275.7423,277.2997 276.3731,276.7187 Z " fill="#000000"/><text fill="#000000" font-family="sans-serif" font-size="14" lengthAdjust="spacing" textLength="101.582" x="287.4" y="279.0893">FileUnitOfWork</text><line style="stroke:#181818;stroke-width:0.5;" x1="259.4" x2="390.982" y1="289.7983" y2="289.7983"/><line style="stroke:#181818;stroke-width:0.5;" x1="259.4" x2="390.982" y1="297.7983" y2="297.7983"/></g><!--class StockFileDAO--><g class="entity" data-qualified-name="File Persistence.StockFileDAO" data-source-line="23" id="ent0012"><rect fill="#F1F1F1" height="48" rx="2.5" ry="2.5" style="stroke:#181818;stroke-width:0.5;" width="123.1504" x="46.48" y="257.7983"/><ellipse cx="61.48" cy="273.7983" fill="#ADD1B2" rx="11" ry="11" style="stroke:#181818;stroke-width:1;"/><path d="M64.4531,279.4413 Q63.8721,279.7402 63.2329,279.8896 Q62.5938,280.039 61.8882,280.039 Q59.3814,280.039 58.0615,278.3871 Q56.7417,276.7353 56.7417,273.6142 Q56.7417,270.4848 58.0615,268.8329 Q59.3814,267.1811 61.8882,267.1811 Q62.5938,267.1811 63.2412,267.3305 Q63.8887,267.4799 64.4531,267.7788 L64.4531,270.5014 Q63.8223,269.9204 63.2288,269.6506 Q62.6353,269.3808 62.0044,269.3808 Q60.6597,269.3808 59.9749,270.4475 Q59.2901,271.5141 59.2901,273.6142 Q59.2901,275.706 59.9749,276.7726 Q60.6597,277.8393 62.0044,277.8393 Q62.6353,277.8393 63.2288,277.5695 Q63.8223,277.2997 64.4531,276.7187 Z " fill="#000000"/><text fill="#000000" font-family="sans-serif" font-size="14" lengthAdjust="spacing" textLength="91.1504" x="75.48" y="279.0893">StockFileDAO</text><line style="stroke:#181818;stroke-width:0.5;" x1="47.48" x2="168.6304" y1="289.7983" y2="289.7983"/><line style="stroke:#181818;stroke-width:0.5;" x1="47.48" x2="168.6304" y1="297.7983" y2="297.7983"/></g><!--class PortfolioFileDAO--><g class="entity" data-qualified-name="File Persistence.PortfolioFileDAO" data-source-line="24" id="ent0013"><rect fill="#F1F1F1" height="48" rx="2.5" ry="2.5" style="stroke:#181818;stroke-width:0.5;" width="144.1641" x="35.97" y="340.7983"/><ellipse cx="50.97" cy="356.7983" fill="#ADD1B2" rx="11" ry="11" style="stroke:#181818;stroke-width:1;"/><path d="M53.9431,362.4413 Q53.3621,362.7402 52.7229,362.8896 Q52.0838,363.039 51.3782,363.039 Q48.8714,363.039 47.5515,361.3871 Q46.2317,359.7353 46.2317,356.6142 Q46.2317,353.4848 47.5515,351.8329 Q48.8714,350.1811 51.3782,350.1811 Q52.0838,350.1811 52.7312,350.3305 Q53.3787,350.4799 53.9431,350.7788 L53.9431,353.5014 Q53.3123,352.9204 52.7188,352.6506 Q52.1253,352.3808 51.4944,352.3808 Q50.1497,352.3808 49.4649,353.4475 Q48.7801,354.5141 48.7801,356.6142 Q48.7801,358.706 49.4649,359.7726 Q50.1497,360.8393 51.4944,360.8393 Q52.1253,360.8393 52.7188,360.5695 Q53.3123,360.2997 53.9431,359.7187 Z " fill="#000000"/><text fill="#000000" font-family="sans-serif" font-size="14" lengthAdjust="spacing" textLength="112.1641" x="64.97" y="362.0893">PortfolioFileDAO</text><line style="stroke:#181818;stroke-width:0.5;" x1="36.97" x2="179.1341" y1="372.7983" y2="372.7983"/><line style="stroke:#181818;stroke-width:0.5;" x1="36.97" x2="179.1341" y1="380.7983" y2="380.7983"/></g><!--class OwnedStockFileDAO--><g class="entity" data-qualified-name="File Persistence.OwnedStockFileDAO" data-source-line="25" id="ent0014"><rect fill="#F1F1F1" height="48" rx="2.5" ry="2.5" style="stroke:#181818;stroke-width:0.5;" width="170.1133" x="23" y="423.7983"/><ellipse cx="38" cy="439.7983" fill="#ADD1B2" rx="11" ry="11" style="stroke:#181818;stroke-width:1;"/><path d="M40.9731,445.4413 Q40.3921,445.7402 39.7529,445.8896 Q39.1138,446.039 38.4082,446.039 Q35.9014,446.039 34.5815,444.3871 Q33.2617,442.7353 33.2617,439.6142 Q33.2617,436.4848 34.5815,434.8329 Q35.9014,433.1811 38.4082,433.1811 Q39.1138,433.1811 39.7612,433.3305 Q40.4087,433.4799 40.9731,433.7788 L40.9731,436.5014 Q40.3423,435.9204 39.7488,435.6506 Q39.1553,435.3808 38.5244,435.3808 Q37.1797,435.3808 36.4949,436.4475 Q35.8101,437.5141 35.8101,439.6142 Q35.8101,441.706 36.4949,442.7726 Q37.1797,443.8393 38.5244,443.8393 Q39.1553,443.8393 39.7488,443.5695 Q40.3423,443.2997 40.9731,442.7187 Z " fill="#000000"/><text fill="#000000" font-family="sans-serif" font-size="14" lengthAdjust="spacing" textLength="138.1133" x="52" y="445.0893">OwnedStockFileDAO</text><line style="stroke:#181818;stroke-width:0.5;" x1="24" x2="192.1133" y1="455.7983" y2="455.7983"/><line style="stroke:#181818;stroke-width:0.5;" x1="24" x2="192.1133" y1="463.7983" y2="463.7983"/></g><!--class TransactionFileDAO--><g class="entity" data-qualified-name="File Persistence.TransactionFileDAO" data-source-line="26" id="ent0015"><rect fill="#F1F1F1" height="48" rx="2.5" ry="2.5" style="stroke:#181818;stroke-width:0.5;" width="166.0322" x="25.04" y="506.7983"/><ellipse cx="40.04" cy="522.7983" fill="#ADD1B2" rx="11" ry="11" style="stroke:#181818;stroke-width:1;"/><path d="M43.0131,528.4413 Q42.4321,528.7402 41.7929,528.8896 Q41.1538,529.039 40.4482,529.039 Q37.9414,529.039 36.6215,527.3871 Q35.3017,525.7353 35.3017,522.6142 Q35.3017,519.4848 36.6215,517.8329 Q37.9414,516.1811 40.4482,516.1811 Q41.1538,516.1811 41.8012,516.3305 Q42.4487,516.4799 43.0131,516.7788 L43.0131,519.5014 Q42.3823,518.9204 41.7888,518.6506 Q41.1953,518.3808 40.5644,518.3808 Q39.2197,518.3808 38.5349,519.4475 Q37.8501,520.5141 37.8501,522.6142 Q37.8501,524.706 38.5349,525.7726 Q39.2197,526.8393 40.5644,526.8393 Q41.1953,526.8393 41.7888,526.5695 Q42.3823,526.2997 43.0131,525.7187 Z " fill="#000000"/><text fill="#000000" font-family="sans-serif" font-size="14" lengthAdjust="spacing" textLength="134.0322" x="54.04" y="528.0893">TransactionFileDAO</text><line style="stroke:#181818;stroke-width:0.5;" x1="26.04" x2="190.0722" y1="538.7983" y2="538.7983"/><line style="stroke:#181818;stroke-width:0.5;" x1="26.04" x2="190.0722" y1="546.7983" y2="546.7983"/></g><g class="entity" data-qualified-name="GMN30" data-source-line="47" id="ent0031"><path d="M253.11,586.4883 L253.11,627.1094 L397.2609,627.1094 L397.2609,596.4883 L387.2609,586.4883 L253.11,586.4883" fill="#FEFFDD" style="stroke:#181818;stroke-width:0.5;"/><path d="M387.2609,586.4883 L387.2609,596.4883 L397.2609,596.4883 L387.2609,586.4883" fill="#FEFFDD" style="stroke:#181818;stroke-width:1;"/><text fill="#000000" font-family="sans-serif" font-size="13" lengthAdjust="spacing" textLength="72.9854" x="284.1928" y="604.0566">&#201;n use case</text><text fill="#000000" font-family="sans-serif" font-size="13" lengthAdjust="spacing" textLength="123.1509" x="259.11" y="619.3672">bruger flere DAO'er</text></g><g class="entity" data-qualified-name="GMN33" data-source-line="52" id="ent0034"><path d="M253.57,43.4883 L253.57,84.1094 L396.8132,84.1094 L396.8132,53.4883 L386.8132,43.4883 L253.57,43.4883" fill="#FEFFDD" style="stroke:#181818;stroke-width:0.5;"/><path d="M386.8132,43.4883 L386.8132,53.4883 L396.8132,53.4883 L386.8132,43.4883" fill="#FEFFDD" style="stroke:#181818;stroke-width:1;"/><text fill="#000000" font-family="sans-serif" font-size="13" lengthAdjust="spacing" textLength="122.2432" x="259.57" y="61.0566">F&#230;lles Unit of Work</text><text fill="#000000" font-family="sans-serif" font-size="13" lengthAdjust="spacing" textLength="98.998" x="271.1926" y="76.3672">for flere DAO'er</text></g><!--link BuyStockService to UnitOfWork--><g class="link" data-entity-1="ent0003" data-entity-2="ent0005" data-link-type="dependency" data-source-line="29" id="lnk16"><path codeLine="29" d="M395.72,142.7983 C455.29,142.7983 530.98,142.7983 530.98,142.7983 C530.98,142.7983 530.98,175.1283 530.98,201.4783" fill="none" id="BuyStockService-to-UnitOfWork" style="stroke:#181818;stroke-width:1;"/><polygon fill="#181818" points="530.98,207.4783,534.98,198.4783,530.98,202.4783,526.98,198.4783,530.98,207.4783" style="stroke:#181818;stroke-width:1;"/><text fill="#000000" font-family="sans-serif" font-size="13" lengthAdjust="spacing" textLength="146.9673" x="496.69" y="156.3666">begin/commit/rollback</text></g><!--link BuyStockService to StockDAO--><g class="link" data-entity-1="ent0003" data-entity-2="ent0006" data-link-type="dependency" data-source-line="30" id="lnk17"><path codeLine="30" d="M395.58,158.7983 C416.03,158.7983 432.98,158.7983 432.98,158.7983 C432.98,158.7983 432.98,298.2983 432.98,298.2983 C432.98,298.2983 450.44,298.2983 474.37,298.2983" fill="none" id="BuyStockService-to-StockDAO" style="stroke:#181818;stroke-width:1;"/><polygon fill="#181818" points="480.37,298.2983,471.37,294.2983,475.37,298.2983,471.37,302.2983,480.37,298.2983" style="stroke:#181818;stroke-width:1;"/></g><!--link BuyStockService to PortfolioDAO--><g class="link" data-entity-1="ent0003" data-entity-2="ent0007" data-link-type="dependency" data-source-line="31" id="lnk18"><path codeLine="31" d="M395.56,166.7983 C410.04,166.7983 420.98,166.7983 420.98,166.7983 C420.98,166.7983 420.98,378.7983 420.98,378.7983 C420.98,378.7983 438.67,378.7983 464.03,378.7983" fill="none" id="BuyStockService-to-PortfolioDAO" style="stroke:#181818;stroke-width:1;"/><polygon fill="#181818" points="470.03,378.7983,461.03,374.7983,465.03,378.7983,461.03,382.7983,470.03,378.7983" style="stroke:#181818;stroke-width:1;"/></g><!--link BuyStockService to OwnedStockDAO--><g class="link" data-entity-1="ent0003" data-entity-2="ent0008" data-link-type="dependency" data-source-line="32" id="lnk19"><path codeLine="32" d="M395.4,150.7983 C429.82,150.7983 463.98,150.7983 463.98,150.7983 C463.98,150.7983 463.98,374.3183 463.98,450.5283" fill="none" id="BuyStockService-to-OwnedStockDAO" style="stroke:#181818;stroke-width:1;"/><polygon fill="#181818" points="463.98,456.5283,467.98,447.5283,463.98,451.5283,459.98,447.5283,463.98,456.5283" style="stroke:#181818;stroke-width:1;"/></g><!--link BuyStockService to TransactionDAO--><g class="link" data-entity-1="ent0003" data-entity-2="ent0009" data-link-type="dependency" data-source-line="33" id="lnk20"><path codeLine="33" d="M395.52,174.7983 C403.58,174.7983 408.98,174.7983 408.98,174.7983 C408.98,174.7983 408.98,544.7983 408.98,544.7983 C408.98,544.7983 426.47,544.7983 452.81,544.7983" fill="none" id="BuyStockService-to-TransactionDAO" style="stroke:#181818;stroke-width:1;"/><polygon fill="#181818" points="458.81,544.7983,449.81,540.7983,453.81,544.7983,449.81,548.7983,458.81,544.7983" style="stroke:#181818;stroke-width:1;"/></g><!--link FileUnitOfWork to UnitOfWork--><g class="link" data-entity-1="ent0011" data-entity-2="ent0005" data-link-type="extension" data-source-line="35" id="lnk21"><path codeLine="35" d="M392.29,279.7983 C452.34,279.7983 530.98,279.7983 530.98,279.7983 C530.98,279.7983 530.98,285.9883 530.98,274.0783" fill="none" id="FileUnitOfWork-to-UnitOfWork" style="stroke:#181818;stroke-width:1;stroke-dasharray:7,7;"/><polygon fill="none" points="530.98,256.0783,524.98,274.0783,536.98,274.0783,530.98,256.0783" style="stroke:#181818;stroke-width:1;"/></g><!--link StockFileDAO to StockDAO--><g class="link" data-entity-1="ent0012" data-entity-2="ent0006" data-link-type="extension" data-source-line="36" id="lnk22"><path codeLine="36" d="M107.98,306.2883 C107.98,314.8183 107.98,322.2983 107.98,322.2983 C107.98,322.2983 350.52,322.2983 462.48,322.2983" fill="none" id="StockFileDAO-to-StockDAO" style="stroke:#181818;stroke-width:1;stroke-dasharray:7,7;"/><polygon fill="none" points="480.48,322.2983,462.48,316.2983,462.48,328.2983,480.48,322.2983" style="stroke:#181818;stroke-width:1;"/></g><!--link PortfolioFileDAO to PortfolioDAO--><g class="link" data-entity-1="ent0013" data-entity-2="ent0007" data-link-type="extension" data-source-line="37" id="lnk23"><path codeLine="37" d="M180.22,383.7983 C261.9,383.7983 375.51,383.7983 452.06,383.7983" fill="none" id="PortfolioFileDAO-to-PortfolioDAO" style="stroke:#181818;stroke-width:1;stroke-dasharray:7,7;"/><polygon fill="none" points="470.06,383.7983,452.06,377.7983,452.06,389.7983,470.06,383.7983" style="stroke:#181818;stroke-width:1;"/></g><!--link OwnedStockFileDAO to OwnedStockDAO--><g class="link" data-entity-1="ent0014" data-entity-2="ent0008" data-link-type="extension" data-source-line="38" id="lnk24"><path codeLine="38" d="M193.57,464.2983 C270.86,464.2983 365.46,464.2983 438.88,464.2983" fill="none" id="OwnedStockFileDAO-to-OwnedStockDAO" style="stroke:#181818;stroke-width:1;stroke-dasharray:7,7;"/><polygon fill="none" points="456.88,464.2983,438.88,458.2983,438.88,470.2983,456.88,464.2983" style="stroke:#181818;stroke-width:1;"/></g><!--link TransactionFileDAO to TransactionDAO--><g class="link" data-entity-1="ent0015" data-entity-2="ent0009" data-link-type="extension" data-source-line="39" id="lnk25"><path codeLine="39" d="M191.54,549.7983 C269.59,549.7983 366.91,549.7983 440.91,549.7983" fill="none" id="TransactionFileDAO-to-TransactionDAO" style="stroke:#181818;stroke-width:1;stroke-dasharray:7,7;"/><polygon fill="none" points="458.91,549.7983,440.91,543.7983,440.91,555.7983,458.91,549.7983" style="stroke:#181818;stroke-width:1;"/></g><!--link StockFileDAO to FileUnitOfWork--><g class="link" data-entity-1="ent0012" data-entity-2="ent0011" data-link-type="dependency" data-source-line="41" id="lnk26"><path codeLine="41" d="M169.99,269.7983 C197.56,269.7983 224.1,269.7983 252.24,269.7983" fill="none" id="StockFileDAO-to-FileUnitOfWork" style="stroke:#181818;stroke-width:1;"/><polygon fill="#181818" points="258.24,269.7983,249.24,265.7983,253.24,269.7983,249.24,273.7983,258.24,269.7983" style="stroke:#181818;stroke-width:1;"/></g><!--link PortfolioFileDAO to FileUnitOfWork--><g class="link" data-entity-1="ent0013" data-entity-2="ent0011" data-link-type="dependency" data-source-line="42" id="lnk27"><path codeLine="42" d="M174.98,340.3483 C174.98,315.8583 174.98,281.7983 174.98,281.7983 C174.98,281.7983 212,281.7983 251.99,281.7983" fill="none" id="PortfolioFileDAO-to-FileUnitOfWork" style="stroke:#181818;stroke-width:1;"/><polygon fill="#181818" points="257.99,281.7983,248.99,277.7983,252.99,281.7983,248.99,285.7983,257.99,281.7983" style="stroke:#181818;stroke-width:1;"/></g><!--link OwnedStockFileDAO to FileUnitOfWork--><g class="link" data-entity-1="ent0014" data-entity-2="ent0011" data-link-type="dependency" data-source-line="43" id="lnk28"><path codeLine="43" d="M186.98,423.3983 C186.98,379.9683 186.98,293.7983 186.98,293.7983 C186.98,293.7983 216.89,293.7983 252.11,293.7983" fill="none" id="OwnedStockFileDAO-to-FileUnitOfWork" style="stroke:#181818;stroke-width:1;"/><polygon fill="#181818" points="258.11,293.7983,249.11,289.7983,253.11,293.7983,249.11,297.7983,258.11,293.7983" style="stroke:#181818;stroke-width:1;"/></g><!--link TransactionFileDAO to FileUnitOfWork--><g class="link" data-entity-1="ent0015" data-entity-2="ent0011" data-link-type="dependency" data-source-line="44" id="lnk29"><path codeLine="44" d="M191.3,523.2983 C252.48,523.2983 324.98,523.2983 324.98,523.2983 C324.98,523.2983 324.98,373.6783 324.98,312.2783" fill="none" id="TransactionFileDAO-to-FileUnitOfWork" style="stroke:#181818;stroke-width:1;"/><polygon fill="#181818" points="324.98,306.2783,320.98,315.2783,324.98,311.2783,328.98,315.2783,324.98,306.2783" style="stroke:#181818;stroke-width:1;"/></g><!--link GMN30 to BuyStockService--><g class="link" data-entity-1="ent0031" data-entity-2="ent0003" data-link-type="association" data-source-line="47" id="lnk32"><path d="M252.82,606.7983 C236.04,606.7983 222.98,606.7983 222.98,606.7983 C222.98,606.7983 222.98,158.7983 222.98,158.7983 C222.98,158.7983 237.05,158.7983 254.76,158.7983" fill="none" id="GMN30-BuyStockService" style="stroke:#181818;stroke-width:1;stroke-dasharray:7,7;"/></g><!--link FileUnitOfWork to GMN33--><g class="link" data-entity-1="ent0011" data-entity-2="ent0034" data-link-type="association" data-source-line="52" id="lnk35"><path d="M392.44,268.7983 C419.74,268.7983 444.98,268.7983 444.98,268.7983 C444.98,268.7983 444.98,63.7983 444.98,63.7983 C444.98,63.7983 422.66,63.7983 397.29,63.7983" fill="none" id="FileUnitOfWork-GMN33" style="stroke:#181818;stroke-width:1;stroke-dasharray:7,7;"/></g><?plantuml-src TPH1Rjim44NtFCKWcwwIxBie4AC8q9K3E4NND3Ma1wP8WnmrDTeUe1VfHNAnafBZaXIpCQ3vdpEFNnfRr0pi8P0vC0mKK35v9-AHt4a6EO8bXtm-8VZ01ry8yI07_qBEW9OsOg6Sf3fAWpi-MuJSKJfZIyE0MawMd_47FrWoRaJ7eD8F1Y6OE1tx_B05R-2h8mQluPiFHo3O7HB5XemGbnbmivbY8epn1duA06LbZB2PpZlswhZ3y9qKYj-5_qkUegN2ombwUvvdRNMUL9NdJWcdAZub3kqj-LROlZWSkaUUWtHHpl5cgMHwf7JZ9moH8gDJMDubQnNPKfv7P6qPinIlLAtmdwfL2getAP4r0SBjxQSY7lW8UpJaxfKVH-BxuAtTfxjqZrspw8bLZ3r37MVFqSGgwhpWxkvNYIxA41RnshrDRv4hn5MEYwUcN4Uwk5hIga--IlEgLpmTpngeO-e0TLp2USRqNt3A-zPk4C3h7mTJH50oviTzc0m6q1R3lAmVqkgY6o0tkRJQUsO_vcwhR_ZnzQ-r6AlrJcNjt-lu3m00?></g></svg>