<?plantuml 1.2026.2?><svg xmlns="http://www.w3.org/2000/svg" xmlns:xlink="http://www.w3.org/1999/xlink" contentStyleType="text/css" data-diagram-type="CLASS" height="835px" preserveAspectRatio="none" style="width:1017px;height:835px;background:#FFFFFF;" version="1.1" viewBox="0 0 1017 835" width="1017px" zoomAndPan="magnify"><title>Observer Design M&#248;nster i ShortBig</title><defs/><g><g class="title" data-source-line="7"><text fill="#000000" font-family="sans-serif" font-size="14" font-weight="bold" lengthAdjust="spacing" textLength="259.1504" x="372.4148" y="23.5352">Observer Design M&#248;nster i ShortBig</text></g><!--cluster Subject--><g class="cluster" data-qualified-name="Subject" data-source-line="11" id="ent0003"><rect fill="none" height="181" rx="2.5" ry="2.5" style="stroke:#000000;stroke-width:1.5;" width="502.9" x="262.16" y="44.4883"/><text fill="#000000" font-family="sans-serif" font-size="14" font-weight="bold" lengthAdjust="spacing" textLength="52.459" x="487.3805" y="60.0234">Subject</text></g><!--cluster Events--><g class="cluster" data-qualified-name="Events" data-source-line="22" id="ent0005"><rect fill="none" height="348" rx="2.5" ry="2.5" style="stroke:#000000;stroke-width:1.5;" width="218.92" x="793.06" y="195.4883"/><text fill="#000000" font-family="sans-serif" font-size="14" font-weight="bold" lengthAdjust="spacing" textLength="47.7012" x="878.6694" y="211.0234">Events</text></g><!--cluster Observers--><g class="cluster" data-qualified-name="Observers" data-source-line="29" id="ent0010"><rect fill="none" height="447" rx="2.5" ry="2.5" style="stroke:#000000;stroke-width:1.5;" width="257.72" x="384.75" y="249.4883"/><text fill="#000000" font-family="sans-serif" font-size="14" font-weight="bold" lengthAdjust="spacing" textLength="74.0742" x="476.5729" y="265.0234">Observers</text></g><!--class StockMarket--><g class="entity" data-qualified-name="Subject.StockMarket" data-source-line="12" id="ent0004"><rect fill="#F1F1F1" height="130.4414" rx="2.5" ry="2.5" style="stroke:#181818;stroke-width:0.5;" width="470.8965" x="278.16" y="79.2683"/><ellipse cx="467.6248" cy="95.2683" fill="#ADD1B2" rx="11" ry="11" style="stroke:#181818;stroke-width:1;"/><path d="M470.598,100.9113 Q470.0169,101.2102 469.3778,101.3596 Q468.7386,101.509 468.033,101.509 Q465.5262,101.509 464.2064,99.8571 Q462.8866,98.2053 462.8866,95.0842 Q462.8866,91.9548 464.2064,90.3029 Q465.5262,88.6511 468.033,88.6511 Q468.7386,88.6511 469.3861,88.8005 Q470.0335,88.9499 470.598,89.2487 L470.598,91.9714 Q469.9671,91.3904 469.3736,91.1206 Q468.7801,90.8508 468.1493,90.8508 Q466.8045,90.8508 466.1197,91.9175 Q465.4349,92.9841 465.4349,95.0842 Q465.4349,97.176 466.1197,98.2426 Q466.8045,99.3093 468.1493,99.3093 Q468.7801,99.3093 469.3736,99.0395 Q469.9671,98.7697 470.598,98.1887 Z " fill="#000000"/><text fill="#000000" font-family="sans-serif" font-size="14" lengthAdjust="spacing" textLength="83.4668" x="488.1248" y="100.5593">StockMarket</text><line style="stroke:#181818;stroke-width:0.5;" x1="279.16" x2="748.0565" y1="111.2683" y2="111.2683"/><g data-visibility-modifier="PUBLIC_FIELD"><ellipse cx="289.16" cy="125.0124" fill="none" rx="3" ry="3" style="stroke:#038048;stroke-width:1;"/></g><text fill="#000000" font-family="sans-serif" font-size="14" lengthAdjust="spacing" textLength="442.7773" x="298.16" y="128.8034">onStockPriceChange : List&lt;Consumer&lt;StockPriceUpdateEvent&gt;&gt;</text><g data-visibility-modifier="PUBLIC_FIELD"><ellipse cx="289.16" cy="141.5007" fill="none" rx="3" ry="3" style="stroke:#038048;stroke-width:1;"/></g><text fill="#000000" font-family="sans-serif" font-size="14" lengthAdjust="spacing" textLength="444.8965" x="298.16" y="145.2917">onStockStateChange : List&lt;Consumer&lt;StockStateUpdateEvent&gt;&gt;</text><g data-visibility-modifier="PUBLIC_FIELD"><ellipse cx="289.16" cy="157.989" fill="none" rx="3" ry="3" style="stroke:#038048;stroke-width:1;"/></g><text fill="#000000" font-family="sans-serif" font-size="14" lengthAdjust="spacing" textLength="429.6045" x="298.16" y="161.78">onStockBankruptcy : List&lt;Consumer&lt;StockBankruptcyEvent&gt;&gt;</text><g data-visibility-modifier="PUBLIC_FIELD"><ellipse cx="289.16" cy="174.4773" fill="none" rx="3" ry="3" style="stroke:#038048;stroke-width:1;"/></g><text fill="#000000" font-family="sans-serif" font-size="14" lengthAdjust="spacing" textLength="352.0439" x="298.16" y="178.2683">onStockReset : List&lt;Consumer&lt;StockResetEvent&gt;&gt;</text><line style="stroke:#181818;stroke-width:1;" x1="279.16" x2="748.0565" y1="185.2214" y2="185.2214"/><g data-visibility-modifier="PUBLIC_METHOD"><ellipse cx="439.4276" cy="198.9655" fill="#84BE84" rx="3" ry="3" style="stroke:#038048;stroke-width:1;"/></g><text fill="#000000" font-family="sans-serif" font-size="14" lengthAdjust="spacing" textLength="144.3613" x="448.4276" y="202.7566">updateAllLiveStocks()</text></g><!--class StockPriceUpdateEvent--><g class="entity" data-qualified-name="Events.StockPriceUpdateEvent" data-source-line="23" id="ent0006"><rect fill="#F1F1F1" height="48" rx="2.5" ry="2.5" style="stroke:#181818;stroke-width:0.5;" width="185.8633" x="809.59" y="230.4883"/><ellipse cx="824.59" cy="246.4883" fill="#ADD1B2" rx="11" ry="11" style="stroke:#181818;stroke-width:1;"/><path d="M827.5631,252.1313 Q826.9821,252.4302 826.3429,252.5796 Q825.7038,252.729 824.9982,252.729 Q822.4914,252.729 821.1715,251.0771 Q819.8517,249.4253 819.8517,246.3042 Q819.8517,243.1748 821.1715,241.5229 Q822.4914,239.8711 824.9982,239.8711 Q825.7038,239.8711 826.3512,240.0205 Q826.9987,240.1699 827.5631,240.4688 L827.5631,243.1914 Q826.9323,242.6104 826.3388,242.3406 Q825.7453,242.0708 825.1144,242.0708 Q823.7697,242.0708 823.0849,243.1375 Q822.4001,244.2041 822.4001,246.3042 Q822.4001,248.396 823.0849,249.4626 Q823.7697,250.5293 825.1144,250.5293 Q825.7453,250.5293 826.3388,250.2595 Q826.9323,249.9897 827.5631,249.4087 Z " fill="#000000"/><text fill="#000000" font-family="sans-serif" font-size="14" lengthAdjust="spacing" textLength="153.8633" x="838.59" y="251.7793">StockPriceUpdateEvent</text><line style="stroke:#181818;stroke-width:0.5;" x1="810.59" x2="994.4533" y1="262.4883" y2="262.4883"/><line style="stroke:#181818;stroke-width:0.5;" x1="810.59" x2="994.4533" y1="270.4883" y2="270.4883"/></g><!--class StockStateUpdateEvent--><g class="entity" data-qualified-name="Events.StockStateUpdateEvent" data-source-line="24" id="ent0007"><rect fill="#F1F1F1" height="48" rx="2.5" ry="2.5" style="stroke:#181818;stroke-width:0.5;" width="186.9229" x="809.06" y="313.4883"/><ellipse cx="824.06" cy="329.4883" fill="#ADD1B2" rx="11" ry="11" style="stroke:#181818;stroke-width:1;"/><path d="M827.0331,335.1313 Q826.4521,335.4302 825.8129,335.5796 Q825.1738,335.729 824.4682,335.729 Q821.9614,335.729 820.6415,334.0771 Q819.3217,332.4253 819.3217,329.3042 Q819.3217,326.1748 820.6415,324.5229 Q821.9614,322.8711 824.4682,322.8711 Q825.1738,322.8711 825.8212,323.0205 Q826.4687,323.1699 827.0331,323.4688 L827.0331,326.1914 Q826.4023,325.6104 825.8088,325.3406 Q825.2153,325.0708 824.5844,325.0708 Q823.2397,325.0708 822.5549,326.1375 Q821.8701,327.2041 821.8701,329.3042 Q821.8701,331.396 822.5549,332.4626 Q823.2397,333.5293 824.5844,333.5293 Q825.2153,333.5293 825.8088,333.2595 Q826.4023,332.9897 827.0331,332.4087 Z " fill="#000000"/><text fill="#000000" font-family="sans-serif" font-size="14" lengthAdjust="spacing" textLength="154.9229" x="838.06" y="334.7793">StockStateUpdateEvent</text><line style="stroke:#181818;stroke-width:0.5;" x1="810.06" x2="994.9829" y1="345.4883" y2="345.4883"/><line style="stroke:#181818;stroke-width:0.5;" x1="810.06" x2="994.9829" y1="353.4883" y2="353.4883"/></g><!--class StockBankruptcyEvent--><g class="entity" data-qualified-name="Events.StockBankruptcyEvent" data-source-line="25" id="ent0008"><rect fill="#F1F1F1" height="48" rx="2.5" ry="2.5" style="stroke:#181818;stroke-width:0.5;" width="180.8936" x="812.07" y="396.4883"/><ellipse cx="827.07" cy="412.4883" fill="#ADD1B2" rx="11" ry="11" style="stroke:#181818;stroke-width:1;"/><path d="M830.0431,418.1313 Q829.4621,418.4302 828.8229,418.5796 Q828.1838,418.729 827.4782,418.729 Q824.9714,418.729 823.6515,417.0771 Q822.3317,415.4253 822.3317,412.3042 Q822.3317,409.1748 823.6515,407.5229 Q824.9714,405.8711 827.4782,405.8711 Q828.1838,405.8711 828.8312,406.0205 Q829.4787,406.1699 830.0431,406.4688 L830.0431,409.1914 Q829.4123,408.6104 828.8188,408.3406 Q828.2253,408.0708 827.5944,408.0708 Q826.2497,408.0708 825.5649,409.1375 Q824.8801,410.2041 824.8801,412.3042 Q824.8801,414.396 825.5649,415.4626 Q826.2497,416.5293 827.5944,416.5293 Q828.2253,416.5293 828.8188,416.2595 Q829.4123,415.9897 830.0431,415.4087 Z " fill="#000000"/><text fill="#000000" font-family="sans-serif" font-size="14" lengthAdjust="spacing" textLength="148.8936" x="841.07" y="417.7793">StockBankruptcyEvent</text><line style="stroke:#181818;stroke-width:0.5;" x1="813.07" x2="991.9636" y1="428.4883" y2="428.4883"/><line style="stroke:#181818;stroke-width:0.5;" x1="813.07" x2="991.9636" y1="436.4883" y2="436.4883"/></g><!--class StockResetEvent--><g class="entity" data-qualified-name="Events.StockResetEvent" data-source-line="26" id="ent0009"><rect fill="#F1F1F1" height="48" rx="2.5" ry="2.5" style="stroke:#181818;stroke-width:0.5;" width="142.1133" x="831.46" y="479.4883"/><ellipse cx="846.46" cy="495.4883" fill="#ADD1B2" rx="11" ry="11" style="stroke:#181818;stroke-width:1;"/><path d="M849.4331,501.1313 Q848.8521,501.4302 848.2129,501.5796 Q847.5738,501.729 846.8682,501.729 Q844.3614,501.729 843.0415,500.0771 Q841.7217,498.4253 841.7217,495.3042 Q841.7217,492.1748 843.0415,490.5229 Q844.3614,488.8711 846.8682,488.8711 Q847.5738,488.8711 848.2212,489.0205 Q848.8687,489.1699 849.4331,489.4688 L849.4331,492.1914 Q848.8023,491.6104 848.2088,491.3406 Q847.6153,491.0708 846.9844,491.0708 Q845.6397,491.0708 844.9549,492.1375 Q844.2701,493.2041 844.2701,495.3042 Q844.2701,497.396 844.9549,498.4626 Q845.6397,499.5293 846.9844,499.5293 Q847.6153,499.5293 848.2088,499.2595 Q848.8023,498.9897 849.4331,498.4087 Z " fill="#000000"/><text fill="#000000" font-family="sans-serif" font-size="14" lengthAdjust="spacing" textLength="110.1133" x="860.46" y="500.7793">StockResetEvent</text><line style="stroke:#181818;stroke-width:0.5;" x1="832.46" x2="972.5733" y1="511.4883" y2="511.4883"/><line style="stroke:#181818;stroke-width:0.5;" x1="832.46" x2="972.5733" y1="519.4883" y2="519.4883"/></g><!--class StockListenerService--><g class="entity" data-qualified-name="Observers.StockListenerService" data-source-line="30" id="ent0011"><rect fill="#F1F1F1" height="80.9766" rx="2.5" ry="2.5" style="stroke:#181818;stroke-width:0.5;" width="202.5107" x="412.35" y="284.0083"/><ellipse cx="441.9965" cy="300.0083" fill="#ADD1B2" rx="11" ry="11" style="stroke:#181818;stroke-width:1;"/><path d="M444.9697,305.6513 Q444.3886,305.9502 443.7495,306.0996 Q443.1103,306.249 442.4047,306.249 Q439.8979,306.249 438.5781,304.5971 Q437.2583,302.9453 437.2583,299.8242 Q437.2583,296.6948 438.5781,295.0429 Q439.8979,293.3911 442.4047,293.3911 Q443.1103,293.3911 443.7578,293.5405 Q444.4052,293.6899 444.9697,293.9888 L444.9697,296.7114 Q444.3388,296.1304 443.7453,295.8606 Q443.1518,295.5908 442.5209,295.5908 Q441.1762,295.5908 440.4914,296.6575 Q439.8066,297.7241 439.8066,299.8242 Q439.8066,301.916 440.4914,302.9826 Q441.1762,304.0493 442.5209,304.0493 Q443.1518,304.0493 443.7453,303.7795 Q444.3388,303.5097 444.9697,302.9287 Z " fill="#000000"/><text fill="#000000" font-family="sans-serif" font-size="14" lengthAdjust="spacing" textLength="137.9629" x="459.2513" y="305.2993">StockListenerService</text><line style="stroke:#181818;stroke-width:0.5;" x1="413.35" x2="613.8607" y1="316.0083" y2="316.0083"/><line style="stroke:#181818;stroke-width:0.5;" x1="413.35" x2="613.8607" y1="324.0083" y2="324.0083"/><g data-visibility-modifier="PUBLIC_METHOD"><ellipse cx="423.35" cy="337.7524" fill="#84BE84" rx="3" ry="3" style="stroke:#038048;stroke-width:1;"/></g><text fill="#000000" font-family="sans-serif" font-size="14" lengthAdjust="spacing" textLength="175.4512" x="432.35" y="341.5434">handlePriceChange(event)</text><g data-visibility-modifier="PUBLIC_METHOD"><ellipse cx="423.35" cy="354.2407" fill="#84BE84" rx="3" ry="3" style="stroke:#038048;stroke-width:1;"/></g><text fill="#000000" font-family="sans-serif" font-size="14" lengthAdjust="spacing" textLength="176.5107" x="432.35" y="358.0317">handleStateChange(event)</text></g><!--class StockBankruptService--><g class="entity" data-qualified-name="Observers.StockBankruptService" data-source-line="35" id="ent0012"><rect fill="#F1F1F1" height="64.4883" rx="2.5" ry="2.5" style="stroke:#181818;stroke-width:0.5;" width="193.248" x="416.98" y="400.2483"/><ellipse cx="439.2099" cy="416.2483" fill="#ADD1B2" rx="11" ry="11" style="stroke:#181818;stroke-width:1;"/><path d="M442.183,421.8913 Q441.602,422.1902 440.9628,422.3396 Q440.3237,422.489 439.6181,422.489 Q437.1113,422.489 435.7914,420.8371 Q434.4716,419.1853 434.4716,416.0642 Q434.4716,412.9348 435.7914,411.2829 Q437.1113,409.6311 439.6181,409.6311 Q440.3237,409.6311 440.9711,409.7805 Q441.6186,409.9299 442.183,410.2288 L442.183,412.9514 Q441.5522,412.3704 440.9587,412.1006 Q440.3652,411.8308 439.7343,411.8308 Q438.3896,411.8308 437.7048,412.8975 Q437.0199,413.9641 437.0199,416.0642 Q437.0199,418.156 437.7048,419.2226 Q438.3896,420.2893 439.7343,420.2893 Q440.3652,420.2893 440.9587,420.0195 Q441.5522,419.7497 442.183,419.1687 Z " fill="#000000"/><text fill="#000000" font-family="sans-serif" font-size="14" lengthAdjust="spacing" textLength="145.1816" x="454.8165" y="421.5393">StockBankruptService</text><line style="stroke:#181818;stroke-width:0.5;" x1="417.98" x2="609.228" y1="432.2483" y2="432.2483"/><line style="stroke:#181818;stroke-width:0.5;" x1="417.98" x2="609.228" y1="440.2483" y2="440.2483"/><g data-visibility-modifier="PUBLIC_METHOD"><ellipse cx="427.98" cy="453.9924" fill="#84BE84" rx="3" ry="3" style="stroke:#038048;stroke-width:1;"/></g><text fill="#000000" font-family="sans-serif" font-size="14" lengthAdjust="spacing" textLength="167.248" x="436.98" y="457.7834">handleBankruptcy(event)</text></g><!--class StockResetService--><g class="entity" data-qualified-name="Observers.StockResetService" data-source-line="39" id="ent0013"><rect fill="#F1F1F1" height="64.4883" rx="2.5" ry="2.5" style="stroke:#181818;stroke-width:0.5;" width="191.1973" x="418.01" y="616.2483"/><ellipse cx="450.2497" cy="632.2483" fill="#ADD1B2" rx="11" ry="11" style="stroke:#181818;stroke-width:1;"/><path d="M453.2229,637.8913 Q452.6418,638.1902 452.0027,638.3396 Q451.3635,638.489 450.6579,638.489 Q448.1511,638.489 446.8313,636.8371 Q445.5115,635.1853 445.5115,632.0642 Q445.5115,628.9348 446.8313,627.2829 Q448.1511,625.6311 450.6579,625.6311 Q451.3635,625.6311 452.011,625.7805 Q452.6584,625.9299 453.2229,626.2288 L453.2229,628.9514 Q452.592,628.3704 451.9985,628.1006 Q451.405,627.8308 450.7742,627.8308 Q449.4294,627.8308 448.7446,628.8975 Q448.0598,629.9641 448.0598,632.0642 Q448.0598,634.156 448.7446,635.2226 Q449.4294,636.2893 450.7742,636.2893 Q451.405,636.2893 451.9985,636.0195 Q452.592,635.7497 453.2229,635.1687 Z " fill="#000000"/><text fill="#000000" font-family="sans-serif" font-size="14" lengthAdjust="spacing" textLength="120.8867" x="468.0808" y="637.5393">StockResetService</text><line style="stroke:#181818;stroke-width:0.5;" x1="419.01" x2="608.2073" y1="648.2483" y2="648.2483"/><line style="stroke:#181818;stroke-width:0.5;" x1="419.01" x2="608.2073" y1="656.2483" y2="656.2483"/><g data-visibility-modifier="PUBLIC_METHOD"><ellipse cx="429.01" cy="669.9924" fill="#84BE84" rx="3" ry="3" style="stroke:#038048;stroke-width:1;"/></g><text fill="#000000" font-family="sans-serif" font-size="14" lengthAdjust="spacing" textLength="165.1973" x="438.01" y="673.7834">handleStockReset(event)</text></g><!--class StockAlertService--><g class="entity" data-qualified-name="Observers.StockAlertService" data-source-line="43" id="ent0014"><rect fill="#F1F1F1" height="80.9766" rx="2.5" ry="2.5" style="stroke:#181818;stroke-width:0.5;" width="225.7188" x="400.75" y="500.0083"/><ellipse cx="451.0933" cy="516.0083" fill="#ADD1B2" rx="11" ry="11" style="stroke:#181818;stroke-width:1;"/><path d="M454.0664,521.6513 Q453.4854,521.9502 452.8462,522.0996 Q452.207,522.249 451.5015,522.249 Q448.9946,522.249 447.6748,520.5971 Q446.355,518.9453 446.355,515.8242 Q446.355,512.6948 447.6748,511.0429 Q448.9946,509.3911 451.5015,509.3911 Q452.207,509.3911 452.8545,509.5405 Q453.502,509.6899 454.0664,509.9888 L454.0664,512.7114 Q453.4355,512.1304 452.842,511.8606 Q452.2485,511.5908 451.6177,511.5908 Q450.2729,511.5908 449.5881,512.6575 Q448.9033,513.7241 448.9033,515.8242 Q448.9033,517.916 449.5881,518.9826 Q450.2729,520.0493 451.6177,520.0493 Q452.2485,520.0493 452.842,519.7795 Q453.4355,519.5097 454.0664,518.9287 Z " fill="#000000"/><text fill="#000000" font-family="sans-serif" font-size="14" lengthAdjust="spacing" textLength="116.5322" x="471.5933" y="521.2993">StockAlertService</text><line style="stroke:#181818;stroke-width:0.5;" x1="401.75" x2="625.4688" y1="532.0083" y2="532.0083"/><line style="stroke:#181818;stroke-width:0.5;" x1="401.75" x2="625.4688" y1="540.0083" y2="540.0083"/><g data-visibility-modifier="PUBLIC_METHOD"><ellipse cx="411.75" cy="553.7524" fill="#84BE84" rx="3" ry="3" style="stroke:#038048;stroke-width:1;"/></g><text fill="#000000" font-family="sans-serif" font-size="14" lengthAdjust="spacing" textLength="199.7188" x="420.75" y="557.5434">handleBankruptcyAlert(event)</text><g data-visibility-modifier="PUBLIC_METHOD"><ellipse cx="411.75" cy="570.2407" fill="#84BE84" rx="3" ry="3" style="stroke:#038048;stroke-width:1;"/></g><text fill="#000000" font-family="sans-serif" font-size="14" lengthAdjust="spacing" textLength="197.668" x="420.75" y="574.0317">handleStockResetAlert(event)</text></g><!--class AppContext--><g class="entity" data-qualified-name="AppContext" data-source-line="9" id="ent0002"><rect fill="#F1F1F1" height="48" rx="2.5" ry="2.5" style="stroke:#181818;stroke-width:0.5;" width="113.1152" x="55.52" y="408.4883"/><ellipse cx="70.52" cy="424.4883" fill="#ADD1B2" rx="11" ry="11" style="stroke:#181818;stroke-width:1;"/><path d="M73.4931,430.1313 Q72.9121,430.4302 72.2729,430.5796 Q71.6338,430.729 70.9282,430.729 Q68.4214,430.729 67.1015,429.0771 Q65.7817,427.4253 65.7817,424.3042 Q65.7817,421.1748 67.1015,419.5229 Q68.4214,417.8711 70.9282,417.8711 Q71.6338,417.8711 72.2812,418.0205 Q72.9287,418.1699 73.4931,418.4688 L73.4931,421.1914 Q72.8623,420.6104 72.2688,420.3406 Q71.6753,420.0708 71.0444,420.0708 Q69.6997,420.0708 69.0149,421.1375 Q68.3301,422.2041 68.3301,424.3042 Q68.3301,426.396 69.0149,427.4626 Q69.6997,428.5293 71.0444,428.5293 Q71.6753,428.5293 72.2688,428.2595 Q72.8623,427.9897 73.4931,427.4087 Z " fill="#000000"/><text fill="#000000" font-family="sans-serif" font-size="14" lengthAdjust="spacing" textLength="81.1152" x="84.52" y="429.7793">AppContext</text><line style="stroke:#181818;stroke-width:0.5;" x1="56.52" x2="167.6352" y1="440.4883" y2="440.4883"/><line style="stroke:#181818;stroke-width:0.5;" x1="56.52" x2="167.6352" y1="448.4883" y2="448.4883"/></g><g class="entity" data-qualified-name="GMN30" data-source-line="68" id="ent0031"><path d="M397.32,715.5283 L397.32,771.4599 L629.8874,771.4599 L629.8874,725.5283 L619.8874,715.5283 L397.32,715.5283" fill="#FEFFDD" style="stroke:#181818;stroke-width:0.5;"/><path d="M619.8874,715.5283 L619.8874,725.5283 L629.8874,725.5283 L619.8874,715.5283" fill="#FEFFDD" style="stroke:#181818;stroke-width:1;"/><text fill="#000000" font-family="sans-serif" font-size="13" lengthAdjust="spacing" textLength="119.3169" x="449.4452" y="733.0966">Subject i projektet.</text><text fill="#000000" font-family="sans-serif" font-size="13" lengthAdjust="spacing" textLength="211.5674" x="403.32" y="748.4072">Kender kun sine lister af listeners</text><text fill="#000000" font-family="sans-serif" font-size="13" lengthAdjust="spacing" textLength="184.3994" x="416.904" y="763.7177">og ikke de konkrete services.</text></g><g class="entity" data-qualified-name="GMN33" data-source-line="74" id="ent0034"><path d="M6,491.1783 L6,531.7994 A0,0 0 0 0 6,531.7994 L218.1597,531.7994 A0,0 0 0 0 218.1597,531.7994 L218.1597,501.1783 L208.1597,491.1783 L115.98,491.1783 L111.98,456.6283 L107.98,491.1783 L6,491.1783 A0,0 0 0 0 6,491.1783" fill="#FEFFDD" style="stroke:#181818;stroke-width:0.5;"/><path d="M208.1597,491.1783 L208.1597,501.1783 L218.1597,501.1783 L208.1597,491.1783" fill="#FEFFDD" style="stroke:#181818;stroke-width:0.5;"/><text fill="#000000" font-family="sans-serif" font-size="13" lengthAdjust="spacing" textLength="114.7212" x="50.2192" y="508.7466">Composition root:</text><text fill="#000000" font-family="sans-serif" font-size="13" lengthAdjust="spacing" textLength="191.1597" x="12" y="524.0572">wiring sker her, ikke i Subject.</text></g><!--link AppContext to StockMarket--><g class="link" data-entity-1="ent0002" data-entity-2="ent0004" data-link-type="dependency" data-source-line="49" id="lnk15"><path codeLine="49" d="M169.01,418.0883 C226.84,418.0883 307.98,418.0883 307.98,418.0883 C307.98,418.0883 307.98,296.9683 307.98,216.0283" fill="none" id="AppContext-to-StockMarket" style="stroke:#181818;stroke-width:1;stroke-dasharray:7,7;"/><polygon fill="#181818" points="307.98,210.0283,303.98,219.0283,307.98,215.0283,311.98,219.0283,307.98,210.0283" style="stroke:#181818;stroke-width:1;"/><text fill="#000000" font-family="sans-serif" font-size="13" lengthAdjust="spacing" textLength="131.7456" x="175.98" y="397.1166">registrerer observers</text></g><!--link AppContext to StockListenerService--><g class="link" data-entity-1="ent0002" data-entity-2="ent0011" data-link-type="dependency" data-source-line="50" id="lnk16"><path codeLine="50" d="M111.98,408.2583 C111.98,376.4083 111.98,324.4883 111.98,324.4883 C111.98,324.4883 287.02,324.4883 406,324.4883" fill="none" id="AppContext-to-StockListenerService" style="stroke:#181818;stroke-width:1;stroke-dasharray:7,7;"/><polygon fill="#181818" points="412,324.4883,403,320.4883,407,324.4883,403,328.4883,412,324.4883" style="stroke:#181818;stroke-width:1;"/><text fill="#000000" font-family="sans-serif" font-size="13" lengthAdjust="spacing" textLength="51.0161" x="168.11" y="338.0566">opretter</text></g><!--link AppContext to StockBankruptService--><g class="link" data-entity-1="ent0002" data-entity-2="ent0012" data-link-type="dependency" data-source-line="51" id="lnk17"><path codeLine="51" d="M168.76,427.6883 C233.07,427.6883 333.07,427.6883 410.61,427.6883" fill="none" id="AppContext-to-StockBankruptService" style="stroke:#181818;stroke-width:1;stroke-dasharray:7,7;"/><polygon fill="#181818" points="416.61,427.6883,407.61,423.6883,411.61,427.6883,407.61,431.6883,416.61,427.6883" style="stroke:#181818;stroke-width:1;"/><text fill="#000000" font-family="sans-serif" font-size="13" lengthAdjust="spacing" textLength="51.0161" x="240.68" y="441.2566">opretter</text></g><!--link AppContext to StockResetService--><g class="link" data-entity-1="ent0002" data-entity-2="ent0013" data-link-type="dependency" data-source-line="52" id="lnk18"><path codeLine="52" d="M168.87,446.8883 C244.26,446.8883 367.98,446.8883 367.98,446.8883 C367.98,446.8883 367.98,648.4883 367.98,648.4883 C367.98,648.4883 384.42,648.4883 411.69,648.4883" fill="none" id="AppContext-to-StockResetService" style="stroke:#181818;stroke-width:1;stroke-dasharray:7,7;"/><polygon fill="#181818" points="417.69,648.4883,408.69,644.4883,412.69,648.4883,408.69,652.4883,417.69,648.4883" style="stroke:#181818;stroke-width:1;"/><text fill="#000000" font-family="sans-serif" font-size="13" lengthAdjust="spacing" textLength="51.0161" x="315.98" y="486.5666">opretter</text></g><!--link AppContext to StockAlertService--><g class="link" data-entity-1="ent0002" data-entity-2="ent0014" data-link-type="dependency" data-source-line="53" id="lnk19"><path codeLine="53" d="M168.94,437.2883 C254.63,437.2883 406.98,437.2883 406.98,437.2883 C406.98,437.2883 406.98,464.8583 406.98,493.7083" fill="none" id="AppContext-to-StockAlertService" style="stroke:#181818;stroke-width:1;stroke-dasharray:7,7;"/><polygon fill="#181818" points="406.98,499.7083,410.98,490.7083,406.98,494.7083,402.98,490.7083,406.98,499.7083" style="stroke:#181818;stroke-width:1;"/><text fill="#000000" font-family="sans-serif" font-size="13" lengthAdjust="spacing" textLength="51.0161" x="320.17" y="450.8566">opretter</text></g><!--link StockMarket to StockPriceUpdateEvent--><g class="link" data-entity-1="ent0004" data-entity-2="ent0006" data-link-type="dependency" data-source-line="55" id="lnk20"><path codeLine="55" d="M724.98,210.0683 C724.98,233.6283 724.98,254.4883 724.98,254.4883 C724.98,254.4883 760.47,254.4883 803.33,254.4883" fill="none" id="StockMarket-to-StockPriceUpdateEvent" style="stroke:#181818;stroke-width:1;stroke-dasharray:7,7;"/><polygon fill="#181818" points="809.33,254.4883,800.33,250.4883,804.33,254.4883,800.33,258.4883,809.33,254.4883" style="stroke:#181818;stroke-width:1;"/><text fill="#000000" font-family="sans-serif" font-size="13" lengthAdjust="spacing" textLength="58.9316" x="685.94" y="268.0566">udsender</text></g><!--link StockMarket to StockStateUpdateEvent--><g class="link" data-entity-1="ent0004" data-entity-2="ent0007" data-link-type="dependency" data-source-line="56" id="lnk21"><path codeLine="56" d="M700.98,209.9783 C700.98,263.1983 700.98,329.4883 700.98,329.4883 C700.98,329.4883 750.2,329.4883 802.83,329.4883" fill="none" id="StockMarket-to-StockStateUpdateEvent" style="stroke:#181818;stroke-width:1;stroke-dasharray:7,7;"/><polygon fill="#181818" points="808.83,329.4883,799.83,325.4883,803.83,329.4883,799.83,333.4883,808.83,329.4883" style="stroke:#181818;stroke-width:1;"/><text fill="#000000" font-family="sans-serif" font-size="13" lengthAdjust="spacing" textLength="58.9316" x="641.98" y="337.2266">udsender</text></g><!--link StockMarket to StockBankruptcyEvent--><g class="link" data-entity-1="ent0004" data-entity-2="ent0008" data-link-type="dependency" data-source-line="57" id="lnk22"><path codeLine="57" d="M677.98,209.9783 C677.98,290.0283 677.98,414.9983 677.98,414.9983 C677.98,414.9983 743.52,414.9983 805.84,414.9983" fill="none" id="StockMarket-to-StockBankruptcyEvent" style="stroke:#181818;stroke-width:1;stroke-dasharray:7,7;"/><polygon fill="#181818" points="811.84,414.9983,802.84,410.9983,806.84,414.9983,802.84,418.9983,811.84,414.9983" style="stroke:#181818;stroke-width:1;"/><text fill="#000000" font-family="sans-serif" font-size="13" lengthAdjust="spacing" textLength="58.9316" x="618.98" y="392.9866">udsender</text></g><!--link StockMarket to StockResetEvent--><g class="link" data-entity-1="ent0004" data-entity-2="ent0009" data-link-type="dependency" data-source-line="58" id="lnk23"><path codeLine="58" d="M653.98,210.2083 C653.98,309.2583 653.98,485.3383 653.98,485.3383 C653.98,485.3383 751.54,485.3383 824.96,485.3383" fill="none" id="StockMarket-to-StockResetEvent" style="stroke:#181818;stroke-width:1;stroke-dasharray:7,7;"/><polygon fill="#181818" points="830.96,485.3383,821.96,481.3383,825.96,485.3383,821.96,489.3383,830.96,485.3383" style="stroke:#181818;stroke-width:1;"/><text fill="#000000" font-family="sans-serif" font-size="13" lengthAdjust="spacing" textLength="58.9316" x="654.98" y="449.8366">udsender</text></g><!--link StockListenerService to StockPriceUpdateEvent--><g class="link" data-entity-1="ent0011" data-entity-2="ent0006" data-link-type="dependency" data-source-line="60" id="lnk24"><path codeLine="60" d="M615.15,298.7483 C730.52,298.7483 902.98,298.7483 902.98,298.7483 C902.98,298.7483 902.98,295.1883 902.98,284.9483" fill="none" id="StockListenerService-to-StockPriceUpdateEvent" style="stroke:#181818;stroke-width:1;stroke-dasharray:7,7;"/><polygon fill="#181818" points="902.98,278.9483,898.98,287.9483,902.98,283.9483,906.98,287.9483,902.98,278.9483" style="stroke:#181818;stroke-width:1;"/><text fill="#000000" font-family="sans-serif" font-size="13" lengthAdjust="spacing" textLength="67.209" x="700.96" y="312.3166">observerer</text></g><!--link StockListenerService to StockStateUpdateEvent--><g class="link" data-entity-1="ent0011" data-entity-2="ent0007" data-link-type="dependency" data-source-line="61" id="lnk25"><path codeLine="61" d="M615.28,345.4883 C675.15,345.4883 744.34,345.4883 802.77,345.4883" fill="none" id="StockListenerService-to-StockStateUpdateEvent" style="stroke:#181818;stroke-width:1;stroke-dasharray:7,7;"/><polygon fill="#181818" points="808.77,345.4883,799.77,341.4883,803.77,345.4883,799.77,349.4883,808.77,345.4883" style="stroke:#181818;stroke-width:1;"/><text fill="#000000" font-family="sans-serif" font-size="13" lengthAdjust="spacing" textLength="67.209" x="644.03" y="359.0566">observerer</text></g><!--link StockBankruptService to StockBankruptcyEvent--><g class="link" data-entity-1="ent0012" data-entity-2="ent0008" data-link-type="dependency" data-source-line="62" id="lnk26"><path codeLine="62" d="M610.49,429.7483 C672.14,429.7483 745.43,429.7483 805.84,429.7483" fill="none" id="StockBankruptService-to-StockBankruptcyEvent" style="stroke:#181818;stroke-width:1;stroke-dasharray:7,7;"/><polygon fill="#181818" points="811.84,429.7483,802.84,425.7483,806.84,429.7483,802.84,433.7483,811.84,429.7483" style="stroke:#181818;stroke-width:1;"/><text fill="#000000" font-family="sans-serif" font-size="13" lengthAdjust="spacing" textLength="67.209" x="643.17" y="426.3166">observerer</text></g><!--link StockResetService to StockResetEvent--><g class="link" data-entity-1="ent0013" data-entity-2="ent0009" data-link-type="dependency" data-source-line="63" id="lnk27"><path codeLine="63" d="M609.36,648.4883 C724.65,648.4883 902.98,648.4883 902.98,648.4883 C902.98,648.4883 902.98,575.0383 902.98,533.7583" fill="none" id="StockResetService-to-StockResetEvent" style="stroke:#181818;stroke-width:1;stroke-dasharray:7,7;"/><polygon fill="#181818" points="902.98,527.7583,898.98,536.7583,902.98,532.7583,906.98,536.7583,902.98,527.7583" style="stroke:#181818;stroke-width:1;"/><text fill="#000000" font-family="sans-serif" font-size="13" lengthAdjust="spacing" textLength="67.209" x="748.53" y="662.0566">observerer</text></g><!--link StockAlertService to StockBankruptcyEvent--><g class="link" data-entity-1="ent0014" data-entity-2="ent0008" data-link-type="dependency" data-source-line="64" id="lnk28"><path codeLine="64" d="M626.68,509.1683 C714.69,509.1683 821.98,509.1683 821.98,509.1683 C821.98,509.1683 821.98,476.9783 821.98,450.7183" fill="none" id="StockAlertService-to-StockBankruptcyEvent" style="stroke:#181818;stroke-width:1;stroke-dasharray:7,7;"/><polygon fill="#181818" points="821.98,444.7183,817.98,453.7183,821.98,449.7183,825.98,453.7183,821.98,444.7183" style="stroke:#181818;stroke-width:1;"/><text fill="#000000" font-family="sans-serif" font-size="13" lengthAdjust="spacing" textLength="67.209" x="757.55" y="522.7366">observerer</text></g><!--link StockAlertService to StockResetEvent--><g class="link" data-entity-1="ent0014" data-entity-2="ent0009" data-link-type="dependency" data-source-line="65" id="lnk29"><path codeLine="65" d="M626.88,518.3283 C692.81,518.3283 767.91,518.3283 825.01,518.3283" fill="none" id="StockAlertService-to-StockResetEvent" style="stroke:#181818;stroke-width:1;stroke-dasharray:7,7;"/><polygon fill="#181818" points="831.01,518.3283,822.01,514.3283,826.01,518.3283,822.01,522.3283,831.01,518.3283" style="stroke:#181818;stroke-width:1;"/><text fill="#000000" font-family="sans-serif" font-size="13" lengthAdjust="spacing" textLength="67.209" x="660.95" y="531.8966">observerer</text></g><!--link GMN30 to StockMarket--><g class="link" data-entity-1="ent0031" data-entity-2="ent0004" data-link-type="association" data-source-line="68" id="lnk32"><path d="M396.95,743.4883 C364.51,743.4883 337.98,743.4883 337.98,743.4883 C337.98,743.4883 337.98,365.4483 337.98,210.0183" fill="none" id="GMN30-StockMarket" style="stroke:#181818;stroke-width:1;stroke-dasharray:7,7;"/></g><g class="legend" data-source-line="78"><rect fill="#DDDDDD" height="26.4883" rx="7.5" ry="7.5" style="stroke:#000000;stroke-width:1;" width="345.5693" x="329.2053" y="789.4599"/><text fill="#000000" font-family="sans-serif" font-size="14" lengthAdjust="spacing" textLength="335.5693" x="334.2053" y="807.9951">Stiplet pil = registrering eller event-afh&#230;ngighed</text></g><?plantuml-src bLPBRjim4Dtp58Ei4hJn0OmqW9DsrGGjwlO0Z3IM6D6aG8xoGP7hz0pTvs8TqdP4CRIDGe0XyxqtNux76bS4PC6ffYMebSEAb3N2TyhqqiarQ6MGddi4wwYr2U1RMTj7PHfOIUqnGNfPTRB19JrhX61HcaQdX1fNSj3q4vzeeLLZrcW8Alv09mGfOjctEu_k0HryHiyCk7tzQppZe63PSYXNgX6Yqj9xMFJzjMNj4mcnTGqdo-7kdZsVm6y1iE4joLRThNGTKZm5-03MnDFlJbLutNAS27EuKPuksAGVrkWkHiAllfQ4NnuuqClBgO4bCNB8G2GSC70bJUU6dghdidx4Y_8Vw3cheZ92gUZyVAiTOZWBhM_K0qQkFprZx4My99MCKl-ka7b5fcYUxXJDafc2OxoJC7ONudqa8MSqw9QCSqnllULkr1gJrfvYi7esWPF6ZJ3xBSPRzZ1cizz2JAei7_7zyeL6TzHx99Lpt7d8AB7Hu_Z0R7OvcP8vJs_3rNN83zXT1ugIl0jpiBr32YDTekSbFKAVrEy8TrAiX2lIrDxO-JrcnL1xD3KhYeByQXyLPBVzA7ySW9GgYbK-bCQkNpi_UxM5Z79jtgu3oUNIIUlAIUQIIGV_mrLPjy-LC9QGbryFTfLUUnwCxVRWPTCxUuyT8Stu-6ji1NI30SzhaNTZN4bojNapOJO0R0Egwv2t77IMGqRsuZT1-PbW4n0SRztVMIAx3X4aQmpWsgvxwrNOnU2ifJcVFIeNjgtls6MBxkF6Yze5cvhMs8Gl6-CX7rAzvZlMAmsVng4Evb1pqI3-99pBLVlwnpJyNm3hO6rZHlm3?></g></svg>