<?plantuml 1.2026.2?><svg xmlns="http://www.w3.org/2000/svg" xmlns:xlink="http://www.w3.org/1999/xlink" contentStyleType="text/css" data-diagram-type="CLASS" height="798px" preserveAspectRatio="none" style="width:883px;height:798px;background:#FFFFFF;" version="1.1" viewBox="0 0 883 798" width="883px" zoomAndPan="magnify"><title>Adapter Design M&#248;nster i mit projekt</title><defs/><g><g class="title" data-source-line="7"><text fill="#000000" font-family="sans-serif" font-size="14" font-weight="bold" lengthAdjust="spacing" textLength="269.9443" x="299.8578" y="23.5352">Adapter Design M&#248;nster i mit projekt</text></g><!--cluster Client--><g class="cluster" data-qualified-name="Client" data-source-line="9" id="ent0002"><rect fill="none" height="131" rx="2.5" ry="2.5" style="stroke:#000000;stroke-width:1.5;" width="541.06" x="7" y="151.4583"/><text fill="#000000" font-family="sans-serif" font-size="14" font-weight="bold" lengthAdjust="spacing" textLength="42.1504" x="256.4548" y="166.9934">Client</text></g><!--cluster Target--><g class="cluster" data-qualified-name="Target" data-source-line="20" id="ent0005"><rect fill="none" height="264" rx="2.5" ry="2.5" style="stroke:#000000;stroke-width:1.5;" width="203.57" x="625.08" y="115.4583"/><text fill="#000000" font-family="sans-serif" font-size="14" font-weight="bold" lengthAdjust="spacing" textLength="47.3662" x="703.1819" y="130.9934">Target</text></g><!--cluster Adapter--><g class="cluster" data-qualified-name="Adapter" data-source-line="33" id="ent0008"><rect fill="none" height="149" rx="2.5" ry="2.5" style="stroke:#000000;stroke-width:1.5;" width="284.93" x="247.3" y="342.4583"/><text fill="#000000" font-family="sans-serif" font-size="14" font-weight="bold" lengthAdjust="spacing" textLength="57.333" x="361.0985" y="357.9934">Adapter</text></g><!--cluster Adaptee--><g class="cluster" data-qualified-name="Adaptee" data-source-line="41" id="ent0010"><rect fill="none" height="248" rx="2.5" ry="2.5" style="stroke:#000000;stroke-width:1.5;" width="301.6" x="576.06" y="470.4583"/><text fill="#000000" font-family="sans-serif" font-size="14" font-weight="bold" lengthAdjust="spacing" textLength="59.1719" x="697.2741" y="485.9934">Adaptee</text></g><!--class MainViewController--><g class="entity" data-qualified-name="Client.MainViewController" data-source-line="10" id="ent0003"><rect fill="#F1F1F1" height="64.4883" rx="2.5" ry="2.5" style="stroke:#181818;stroke-width:0.5;" width="164.4736" x="23" y="198.2183"/><ellipse cx="38" cy="214.2183" fill="#ADD1B2" rx="11" ry="11" style="stroke:#181818;stroke-width:1;"/><path d="M40.9731,219.8613 Q40.3921,220.1602 39.7529,220.3096 Q39.1138,220.459 38.4082,220.459 Q35.9014,220.459 34.5815,218.8071 Q33.2617,217.1553 33.2617,214.0342 Q33.2617,210.9048 34.5815,209.2529 Q35.9014,207.6011 38.4082,207.6011 Q39.1138,207.6011 39.7612,207.7505 Q40.4087,207.8999 40.9731,208.1988 L40.9731,210.9214 Q40.3423,210.3404 39.7488,210.0706 Q39.1553,209.8008 38.5244,209.8008 Q37.1797,209.8008 36.4949,210.8675 Q35.8101,211.9341 35.8101,214.0342 Q35.8101,216.126 36.4949,217.1926 Q37.1797,218.2593 38.5244,218.2593 Q39.1553,218.2593 39.7488,217.9895 Q40.3423,217.7197 40.9731,217.1387 Z " fill="#000000"/><text fill="#000000" font-family="sans-serif" font-size="14" lengthAdjust="spacing" textLength="132.4736" x="52" y="219.5093">MainViewController</text><line style="stroke:#181818;stroke-width:0.5;" x1="24" x2="186.4736" y1="230.2183" y2="230.2183"/><line style="stroke:#181818;stroke-width:0.5;" x1="24" x2="186.4736" y1="238.2183" y2="238.2183"/><g data-visibility-modifier="PUBLIC_METHOD"><ellipse cx="34" cy="251.9624" fill="#84BE84" rx="3" ry="3" style="stroke:#038048;stroke-width:1;"/></g><text fill="#000000" font-family="sans-serif" font-size="14" lengthAdjust="spacing" textLength="66.8213" x="43" y="255.7534">initialize()</text></g><!--class ViewManager--><g class="entity" data-qualified-name="Client.ViewManager" data-source-line="14" id="ent0004"><rect fill="#F1F1F1" height="80.9766" rx="2.5" ry="2.5" style="stroke:#181818;stroke-width:0.5;" width="284.5898" x="247.47" y="185.9683"/><ellipse cx="340.3875" cy="201.9683" fill="#ADD1B2" rx="11" ry="11" style="stroke:#181818;stroke-width:1;"/><path d="M343.3606,207.6113 Q342.7796,207.9102 342.1404,208.0596 Q341.5013,208.209 340.7957,208.209 Q338.2888,208.209 336.969,206.5571 Q335.6492,204.9053 335.6492,201.7842 Q335.6492,198.6548 336.969,197.0029 Q338.2888,195.3511 340.7957,195.3511 Q341.5013,195.3511 342.1487,195.5005 Q342.7962,195.6499 343.3606,195.9488 L343.3606,198.6714 Q342.7298,198.0904 342.1363,197.8206 Q341.5428,197.5508 340.9119,197.5508 Q339.5672,197.5508 338.8824,198.6175 Q338.1975,199.6841 338.1975,201.7842 Q338.1975,203.876 338.8824,204.9426 Q339.5672,206.0093 340.9119,206.0093 Q341.5428,206.0093 342.1363,205.7395 Q342.7298,205.4697 343.3606,204.8887 Z " fill="#000000"/><text fill="#000000" font-family="sans-serif" font-size="14" lengthAdjust="spacing" textLength="90.2549" x="360.8875" y="207.2593">ViewManager</text><line style="stroke:#181818;stroke-width:0.5;" x1="248.47" x2="531.0598" y1="217.9683" y2="217.9683"/><line style="stroke:#181818;stroke-width:0.5;" x1="248.47" x2="531.0598" y1="225.9683" y2="225.9683"/><g data-visibility-modifier="PUBLIC_METHOD"><ellipse cx="258.47" cy="239.7124" fill="#84BE84" rx="3" ry="3" style="stroke:#038048;stroke-width:1;"/></g><text fill="#000000" font-family="sans-serif" font-size="14" lengthAdjust="spacing" textLength="258.5898" x="267.47" y="243.5034">setAlertNotificationManager(manager)</text><g data-visibility-modifier="PUBLIC_METHOD"><ellipse cx="258.47" cy="256.2007" fill="#84BE84" rx="3" ry="3" style="stroke:#038048;stroke-width:1;"/></g><text fill="#000000" font-family="sans-serif" font-size="14" lengthAdjust="spacing" textLength="200.7031" x="267.47" y="259.9917">getAlertNotificationManager()</text></g><!--class NotificationManager--><g class="entity" data-qualified-name="Target.NotificationManager" data-source-line="21" id="ent0006"><rect fill="#F1F1F1" height="64.4883" rx="2.5" ry="2.5" style="stroke:#181818;stroke-width:0.5;" width="171.5645" x="641.08" y="150.2183"/><ellipse cx="657.0714" cy="166.2183" fill="#B4A7E5" rx="11" ry="11" style="stroke:#181818;stroke-width:1;"/><path d="M652.9991,161.9834 L652.9991,159.8252 L660.3785,159.8252 L660.3785,161.9834 L657.9132,161.9834 L657.9132,170.0601 L660.3785,170.0601 L660.3785,172.2183 L652.9991,172.2183 L652.9991,170.0601 L655.4645,170.0601 L655.4645,161.9834 Z " fill="#000000"/><text fill="#000000" font-family="sans-serif" font-size="14" font-style="italic" lengthAdjust="spacing" textLength="137.3613" x="671.2917" y="171.5093">NotificationManager</text><line style="stroke:#181818;stroke-width:0.5;" x1="642.08" x2="811.6445" y1="182.2183" y2="182.2183"/><line style="stroke:#181818;stroke-width:0.5;" x1="642.08" x2="811.6445" y1="190.2183" y2="190.2183"/><g data-visibility-modifier="PUBLIC_METHOD"><ellipse cx="652.08" cy="203.9624" fill="#84BE84" rx="3" ry="3" style="stroke:#038048;stroke-width:1;"/></g><text fill="#000000" font-family="sans-serif" font-size="14" lengthAdjust="spacing" textLength="145.5645" x="661.08" y="207.7534">notify(message, type)</text></g><!--class NotificationType--><g class="entity" data-qualified-name="Target.NotificationType" data-source-line="25" id="ent0007"><rect fill="#F1F1F1" height="113.9531" rx="2.5" ry="2.5" style="stroke:#181818;stroke-width:0.5;" width="143.6719" x="655.03" y="249.4783"/><ellipse cx="670.03" cy="265.4783" fill="#EB937F" rx="11" ry="11" style="stroke:#181818;stroke-width:1;"/><path d="M674.1443,271.4783 L666.4245,271.4783 L666.4245,259.0852 L674.1443,259.0852 L674.1443,261.2434 L668.8733,261.2434 L668.8733,263.9163 L673.6462,263.9163 L673.6462,266.0745 L668.8733,266.0745 L668.8733,269.3201 L674.1443,269.3201 Z " fill="#000000"/><text fill="#000000" font-family="sans-serif" font-size="14" lengthAdjust="spacing" textLength="111.6719" x="684.03" y="270.7693">NotificationType</text><line style="stroke:#181818;stroke-width:0.5;" x1="656.03" x2="797.7019" y1="281.4783" y2="281.4783"/><text fill="#000000" font-family="sans-serif" font-size="14" lengthAdjust="spacing" textLength="59.2813" x="661.03" y="299.0134">SUCCESS</text><text fill="#000000" font-family="sans-serif" font-size="14" lengthAdjust="spacing" textLength="32.7578" x="661.03" y="315.5017">INFO</text><text fill="#000000" font-family="sans-serif" font-size="14" lengthAdjust="spacing" textLength="65.3242" x="661.03" y="331.99">WARNING</text><text fill="#000000" font-family="sans-serif" font-size="14" lengthAdjust="spacing" textLength="45.0215" x="661.03" y="348.4783">ERROR</text><line style="stroke:#181818;stroke-width:0.5;" x1="656.03" x2="797.7019" y1="355.4314" y2="355.4314"/></g><!--class CustomAlertBoxAdapter--><g class="entity" data-qualified-name="Adapter.CustomAlertBoxAdapter" data-source-line="34" id="ent0009"><rect fill="#F1F1F1" height="97.4648" rx="2.5" ry="2.5" style="stroke:#181818;stroke-width:0.5;" width="252.9326" x="263.3" y="377.7283"/><ellipse cx="303.9623" cy="393.7283" fill="#ADD1B2" rx="11" ry="11" style="stroke:#181818;stroke-width:1;"/><path d="M306.9354,399.3713 Q306.3544,399.6702 305.7152,399.8196 Q305.0761,399.969 304.3705,399.969 Q301.8637,399.969 300.5438,398.3171 Q299.224,396.6653 299.224,393.5442 Q299.224,390.4148 300.5438,388.7629 Q301.8637,387.1111 304.3705,387.1111 Q305.0761,387.1111 305.7235,387.2605 Q306.371,387.4099 306.9354,387.7088 L306.9354,390.4314 Q306.3046,389.8504 305.7111,389.5806 Q305.1176,389.3108 304.4867,389.3108 Q303.142,389.3108 302.4572,390.3775 Q301.7724,391.4441 301.7724,393.5442 Q301.7724,395.636 302.4572,396.7026 Q303.142,397.7693 304.4867,397.7693 Q305.1176,397.7693 305.7111,397.4995 Q306.3046,397.2297 306.9354,396.6487 Z " fill="#000000"/><text fill="#000000" font-family="sans-serif" font-size="14" lengthAdjust="spacing" textLength="163.9053" x="323.665" y="399.0193">CustomAlertBoxAdapter</text><line style="stroke:#181818;stroke-width:0.5;" x1="264.3" x2="515.2326" y1="409.7283" y2="409.7283"/><g data-visibility-modifier="PRIVATE_FIELD"><rect fill="none" height="6" style="stroke:#C82930;stroke-width:1;" width="6" x="271.3" y="420.4724"/></g><text fill="#000000" font-family="sans-serif" font-size="14" lengthAdjust="spacing" textLength="177.3379" x="283.3" y="427.2634">adaptee : CustomAlertBox</text><line style="stroke:#181818;stroke-width:0.5;" x1="264.3" x2="515.2326" y1="434.2166" y2="434.2166"/><g data-visibility-modifier="PUBLIC_METHOD"><ellipse cx="274.3" cy="447.9607" fill="#84BE84" rx="3" ry="3" style="stroke:#038048;stroke-width:1;"/></g><text fill="#000000" font-family="sans-serif" font-size="14" lengthAdjust="spacing" textLength="226.9326" x="283.3" y="451.7517">CustomAlertBoxAdapter(adaptee)</text><g data-visibility-modifier="PUBLIC_METHOD"><ellipse cx="274.3" cy="464.449" fill="#84BE84" rx="3" ry="3" style="stroke:#038048;stroke-width:1;"/></g><text fill="#000000" font-family="sans-serif" font-size="14" lengthAdjust="spacing" textLength="145.5645" x="283.3" y="468.24">notify(message, type)</text></g><!--class CustomAlertBox--><g class="entity" data-qualified-name="Adaptee.CustomAlertBox" data-source-line="42" id="ent0011"><rect fill="#F1F1F1" height="64.4883" rx="2.5" ry="2.5" style="stroke:#181818;stroke-width:0.5;" width="269.5986" x="592.06" y="638.2183"/><ellipse cx="667.5458" cy="654.2183" fill="#ADD1B2" rx="11" ry="11" style="stroke:#181818;stroke-width:1;"/><path d="M670.519,659.8613 Q669.9379,660.1602 669.2988,660.3096 Q668.6596,660.459 667.954,660.459 Q665.4472,660.459 664.1274,658.8071 Q662.8076,657.1553 662.8076,654.0342 Q662.8076,650.9048 664.1274,649.2529 Q665.4472,647.6011 667.954,647.6011 Q668.6596,647.6011 669.3071,647.7505 Q669.9545,647.8999 670.519,648.1988 L670.519,650.9214 Q669.8881,650.3404 669.2946,650.0706 Q668.7011,649.8008 668.0703,649.8008 Q666.7255,649.8008 666.0407,650.8675 Q665.3559,651.9341 665.3559,654.0342 Q665.3559,656.126 666.0407,657.1926 Q666.7255,658.2593 668.0703,658.2593 Q668.7011,658.2593 669.2946,657.9895 Q669.8881,657.7197 670.519,657.1387 Z " fill="#000000"/><text fill="#000000" font-family="sans-serif" font-size="14" lengthAdjust="spacing" textLength="110.127" x="688.0458" y="659.5093">CustomAlertBox</text><line style="stroke:#181818;stroke-width:0.5;" x1="593.06" x2="860.6586" y1="670.2183" y2="670.2183"/><line style="stroke:#181818;stroke-width:0.5;" x1="593.06" x2="860.6586" y1="678.2183" y2="678.2183"/><g data-visibility-modifier="PUBLIC_METHOD"><ellipse cx="603.06" cy="691.9624" fill="#84BE84" rx="3" ry="3" style="stroke:#038048;stroke-width:1;"/></g><text fill="#000000" font-family="sans-serif" font-size="14" lengthAdjust="spacing" textLength="243.5986" x="612.06" y="695.7534">showAlert(message, title, alertType)</text></g><!--class AlertType--><g class="entity" data-qualified-name="Adaptee.AlertType" data-source-line="46" id="ent0012"><rect fill="#F1F1F1" height="97.4648" rx="2.5" ry="2.5" style="stroke:#181818;stroke-width:0.5;" width="97.249" x="678.24" y="505.7283"/><ellipse cx="693.24" cy="521.7283" fill="#EB937F" rx="11" ry="11" style="stroke:#181818;stroke-width:1;"/><path d="M697.3543,527.7283 L689.6345,527.7283 L689.6345,515.3352 L697.3543,515.3352 L697.3543,517.4934 L692.0833,517.4934 L692.0833,520.1663 L696.8562,520.1663 L696.8562,522.3245 L692.0833,522.3245 L692.0833,525.5701 L697.3543,525.5701 Z " fill="#000000"/><text fill="#000000" font-family="sans-serif" font-size="14" lengthAdjust="spacing" textLength="65.249" x="707.24" y="527.0193">AlertType</text><line style="stroke:#181818;stroke-width:0.5;" x1="679.24" x2="774.489" y1="537.7283" y2="537.7283"/><text fill="#000000" font-family="sans-serif" font-size="14" lengthAdjust="spacing" textLength="32.7578" x="684.24" y="555.2634">INFO</text><text fill="#000000" font-family="sans-serif" font-size="14" lengthAdjust="spacing" textLength="65.3242" x="684.24" y="571.7517">WARNING</text><text fill="#000000" font-family="sans-serif" font-size="14" lengthAdjust="spacing" textLength="45.0215" x="684.24" y="588.24">ERROR</text><line style="stroke:#181818;stroke-width:0.5;" x1="679.24" x2="774.489" y1="595.1931" y2="595.1931"/></g><g class="entity" data-qualified-name="GMN21" data-source-line="64" id="ent0022"><path d="M595.02,398.4883 L595.02,422.4583 L516.73,426.4583 L595.02,430.4583 L595.02,454.4199 A0,0 0 0 0 595.02,454.4199 L858.7099,454.4199 A0,0 0 0 0 858.7099,454.4199 L858.7099,408.4883 L848.7099,398.4883 L595.02,398.4883 A0,0 0 0 0 595.02,398.4883" fill="#FEFFDD" style="stroke:#181818;stroke-width:0.5;"/><path d="M848.7099,398.4883 L848.7099,408.4883 L858.7099,408.4883 L848.7099,398.4883" fill="#FEFFDD" style="stroke:#181818;stroke-width:0.5;"/><text fill="#000000" font-family="sans-serif" font-size="13" lengthAdjust="spacing" textLength="158.0059" x="643.362" y="416.0566">Adapteren overs&#230;tter fra</text><text fill="#000000" font-family="sans-serif" font-size="13" lengthAdjust="spacing" textLength="135.167" x="654.7815" y="431.3672">notify(message, type)</text><text fill="#000000" font-family="sans-serif" font-size="13" lengthAdjust="spacing" textLength="242.6899" x="601.02" y="446.6777">til showAlert(message, title, alertType)</text></g><g class="entity" data-qualified-name="GMN24" data-source-line="70" id="ent0025"><path d="M619.14,43.4883 L619.14,99.4199 A0,0 0 0 0 619.14,99.4199 L722.66,99.4199 L726.66,149.7583 L730.66,99.4199 L834.5941,99.4199 A0,0 0 0 0 834.5941,99.4199 L834.5941,53.4883 L824.5941,43.4883 L619.14,43.4883 A0,0 0 0 0 619.14,43.4883" fill="#FEFFDD" style="stroke:#181818;stroke-width:0.5;"/><path d="M824.5941,43.4883 L824.5941,53.4883 L834.5941,53.4883 L824.5941,43.4883" fill="#FEFFDD" style="stroke:#181818;stroke-width:0.5;"/><text fill="#000000" font-family="sans-serif" font-size="13" lengthAdjust="spacing" textLength="194.4541" x="625.14" y="61.0566">Resten af systemet kender kun</text><text fill="#000000" font-family="sans-serif" font-size="13" lengthAdjust="spacing" textLength="169.7363" x="637.4989" y="76.3672">dette interface og ikke den</text><text fill="#000000" font-family="sans-serif" font-size="13" lengthAdjust="spacing" textLength="172.1548" x="636.2897" y="91.6777">konkrete alert-komponent.</text></g><!--link MainViewController to CustomAlertBoxAdapter--><g class="link" data-entity-1="ent0003" data-entity-2="ent0009" data-link-type="dependency" data-source-line="53" id="lnk13"><path codeLine="53" d="M105.66,262.8283 C105.66,318.4883 105.66,426.4583 105.66,426.4583 C105.66,426.4583 181.33,426.4583 257.09,426.4583" fill="none" id="MainViewController-to-CustomAlertBoxAdapter" style="stroke:#181818;stroke-width:1;stroke-dasharray:7,7;"/><polygon fill="#181818" points="263.09,426.4583,254.09,422.4583,258.09,426.4583,254.09,430.4583,263.09,426.4583" style="stroke:#181818;stroke-width:1;"/><text fill="#000000" font-family="sans-serif" font-size="13" lengthAdjust="spacing" textLength="51.0161" x="53.66" y="436.9266">opretter</text></g><!--link MainViewController to ViewManager--><g class="link" data-entity-1="ent0003" data-entity-2="ent0004" data-link-type="dependency" data-source-line="54" id="lnk14"><path codeLine="54" d="M187.92,230.4583 C206.54,230.4583 220.83,230.4583 241.12,230.4583" fill="none" id="MainViewController-to-ViewManager" style="stroke:#181818;stroke-width:1;stroke-dasharray:7,7;"/><polygon fill="#181818" points="247.12,230.4583,238.12,226.4583,242.12,230.4583,238.12,234.4583,247.12,230.4583" style="stroke:#181818;stroke-width:1;"/><text fill="#000000" font-family="sans-serif" font-size="13" lengthAdjust="spacing" textLength="118.6187" x="98.52" y="244.0266">registrerer adapter</text></g><!--link ViewManager to NotificationManager--><g class="link" data-entity-1="ent0004" data-entity-2="ent0006" data-link-type="dependency" data-source-line="55" id="lnk15"><path codeLine="55" d="M532.24,200.3383 C569.07,200.3383 601.61,200.3383 634.59,200.3383" fill="none" id="ViewManager-to-NotificationManager" style="stroke:#181818;stroke-width:1;"/><polygon fill="#181818" points="640.59,200.3383,631.59,196.3383,635.59,200.3383,631.59,204.3383,640.59,200.3383" style="stroke:#181818;stroke-width:1;"/><text fill="#000000" font-family="sans-serif" font-size="13" lengthAdjust="spacing" textLength="146.5547" x="439.41" y="196.9066">bruger target-interface</text></g><!--link CustomAlertBoxAdapter to NotificationManager--><g class="link" data-entity-1="ent0009" data-entity-2="ent0006" data-link-type="extension" data-source-line="57" id="lnk16"><path codeLine="57" d="M516.45,384.6483 C581.67,384.6483 647.66,384.6483 647.66,384.6483 C647.66,384.6483 647.66,290.0983 647.66,232.9483" fill="none" id="CustomAlertBoxAdapter-to-NotificationManager" style="stroke:#181818;stroke-width:1;stroke-dasharray:7,7;"/><polygon fill="none" points="647.66,214.9483,641.66,232.9483,653.66,232.9483,647.66,214.9483" style="stroke:#181818;stroke-width:1;"/></g><!--link CustomAlertBoxAdapter to CustomAlertBox--><g class="link" data-entity-1="ent0009" data-entity-2="ent0011" data-link-type="aggregation" data-source-line="58" id="lnk17"><path codeLine="58" d="M528.44,469.9983 C583.06,469.9983 622.66,469.9983 622.66,469.9983 C622.66,469.9983 622.66,574.9983 622.66,631.8083" fill="none" id="CustomAlertBoxAdapter-CustomAlertBox" style="stroke:#181818;stroke-width:1;"/><polygon fill="none" points="516.44,469.9983,522.44,473.9983,528.44,469.9983,522.44,465.9983,516.44,469.9983" style="stroke:#181818;stroke-width:1;"/><polygon fill="#181818" points="622.66,637.8083,626.66,628.8083,622.66,632.8083,618.66,628.8083,622.66,637.8083" style="stroke:#181818;stroke-width:1;"/><text fill="#000000" font-family="sans-serif" font-size="13" lengthAdjust="spacing" textLength="94.7388" x="527.66" y="514.3566">holder adaptee</text></g><!--link CustomAlertBoxAdapter to CustomAlertBox--><g class="link" data-entity-1="ent0009" data-entity-2="ent0011" data-link-type="dependency" data-source-line="61" id="lnk20"><path codeLine="61" d="M516.39,464.8083 C582.87,464.8083 650.66,464.8083 650.66,464.8083 C650.66,464.8083 650.66,573.8883 650.66,631.8683" fill="none" id="CustomAlertBoxAdapter-to-CustomAlertBox" style="stroke:#181818;stroke-width:1;"/><polygon fill="#181818" points="650.66,637.8683,654.66,628.8683,650.66,632.8683,646.66,628.8683,650.66,637.8683" style="stroke:#181818;stroke-width:1;"/><text fill="#000000" font-family="sans-serif" font-size="13" lengthAdjust="spacing" textLength="83.6431" x="566.66" y="480.7766">showAlert(...)</text></g><!--link CustomAlertBoxAdapter to NotificationType--><g class="link" data-entity-1="ent0009" data-entity-2="ent0007" data-link-type="dependency" data-source-line="59" id="lnk18"><path codeLine="59" d="M516.65,391.5683 C612.15,391.5683 726.66,391.5683 726.66,391.5683 C726.66,391.5683 726.66,385.0983 726.66,369.6983" fill="none" id="CustomAlertBoxAdapter-to-NotificationType" style="stroke:#181818;stroke-width:1;stroke-dasharray:7,7;"/><polygon fill="#181818" points="726.66,363.6983,722.66,372.6983,726.66,368.6983,730.66,372.6983,726.66,363.6983" style="stroke:#181818;stroke-width:1;"/><text fill="#000000" font-family="sans-serif" font-size="13" lengthAdjust="spacing" textLength="61.0137" x="573.59" y="388.1366">modtager</text></g><!--link CustomAlertBoxAdapter to AlertType--><g class="link" data-entity-1="ent0009" data-entity-2="ent0012" data-link-type="dependency" data-source-line="60" id="lnk19"><path codeLine="60" d="M516.65,459.6183 C612.15,459.6183 726.66,459.6183 726.66,459.6183 C726.66,459.6183 726.66,476.2283 726.66,499.3683" fill="none" id="CustomAlertBoxAdapter-to-AlertType" style="stroke:#181818;stroke-width:1;stroke-dasharray:7,7;"/><polygon fill="#181818" points="726.66,505.3683,730.66,496.3683,726.66,500.3683,722.66,496.3683,726.66,505.3683" style="stroke:#181818;stroke-width:1;"/><text fill="#000000" font-family="sans-serif" font-size="13" lengthAdjust="spacing" textLength="83.7446" x="645.54" y="468.9366">overs&#230;tter til</text></g><g class="legend" data-source-line="75"><rect fill="#DDDDDD" height="42.9766" rx="7.5" ry="7.5" style="stroke:#000000;stroke-width:1;" width="289.4941" x="290.0829" y="735.4583"/><text fill="#000000" font-family="sans-serif" font-size="14" lengthAdjust="spacing" textLength="231.4033" x="319.1283" y="753.9934">Fuld optrukket pil = runtime-kald</text><text fill="#000000" font-family="sans-serif" font-size="14" lengthAdjust="spacing" textLength="279.4941" x="295.0829" y="770.4817">Stiplet pil = oprettelse eller afh&#230;ngighed</text></g><?plantuml-src ZLN1Rjim3BthAuYU4gpn1mHOW2nhXnwI0acsdLMRTZJBaY7HIxEjlzDlsBq_Difs4xUnso50Gv5yv1FvecfC2SY2KzcE854EOrBM29yhKqed2z3A81rA1EjePpi1lvE9tIkJGIgrnqwab74kCzpGGIE4Yj9akfkGO2ehJLkyfxbMcIdG4CJy1vqGf8XXyqIMV8JFw3a1baz_ZGzd1OKYA9tzWJa9qRQ2YuLMZB-0tm8Wrj9xM4fblYdSBwmXPxLcS0W2V01b52cfrIySZTdr88wW05XAmoLFsHwP9JfQMLAfYcKOK9ipAfhlSPkQlP7QT7heSDvAnu26imgNJsMCq8CzKZ4XTXWLw3txBo4ivdW3D5Nn0hqDQskWcw-BnTLcKzitg-lRslW-NwzkLbzg-sgzlbsVCMotq1thel9aY_gMd-pzyvgQBXEGzHbX-YglvTyB7hMWyRkNFAU6mzHE-zlPVUtib0mQkmGPlDkp6SwVtMs9zmVMexKecWtCQWgsT4X1x0EuhWgd_0lAb2U7_6ddwqGtOpAPzOfc2dUk2WRLEfiS9IP4Fx4e-jDRQI3TXiQlPZw5dTN9aIWETfgTAtKAXKteZOO1TTeDZ_4dEl_q62R96zK3g5wM9qr4KJGMWZM7xIDeq_wzyQvR2ysBrgcJ71jIBHFxFmMYIK8HRCdSMM8EWKtVHW3MoE-X0Pc2Fx1L847E9PXFNXcE9q5XdMV5Pg3o7DaVeharEMiG6mAJt1QbDVo0HXqQ6hDmQ8WmvhhI2KkNNCLr-0tcYtq4LnbI1KvogHFEsP0gzJ7Owfp_Em3MufRfxkdHP3ndJ4AdfeNu1m00?></g></svg>