<?plantuml 1.2026.2?><svg xmlns="http://www.w3.org/2000/svg" xmlns:xlink="http://www.w3.org/1999/xlink" contentStyleType="text/css" data-diagram-type="CLASS" height="594px" preserveAspectRatio="none" style="width:841px;height:594px;background:#FFFFFF;" version="1.1" viewBox="0 0 841 594" width="841px" zoomAndPan="magnify"><title>MVVM i ShortBig</title><defs/><g><g class="title" data-source-line="7"><text fill="#000000" font-family="sans-serif" font-size="14" font-weight="bold" lengthAdjust="spacing" textLength="119.54" x="354.0318" y="23.5352">MVVM i ShortBig</text></g><!--cluster View--><g class="cluster" data-qualified-name="View" data-source-line="9" id="ent0002"><rect fill="none" height="182" rx="2.5" ry="2.5" style="stroke:#000000;stroke-width:1.5;" width="221.69" x="7" y="245.7983"/><text fill="#000000" font-family="sans-serif" font-size="14" font-weight="bold" lengthAdjust="spacing" textLength="34.6172" x="100.5364" y="261.3334">View</text></g><!--cluster ViewModel--><g class="cluster" data-qualified-name="ViewModel" data-source-line="14" id="ent0005"><rect fill="none" height="264" rx="2.5" ry="2.5" style="stroke:#000000;stroke-width:1.5;" width="253.31" x="266.78" y="199.7983"/><text fill="#000000" font-family="sans-serif" font-size="14" font-weight="bold" lengthAdjust="spacing" textLength="78.2988" x="354.2856" y="215.3334">ViewModel</text></g><!--cluster Model--><g class="cluster" data-qualified-name="Model" data-source-line="27" id="ent0008"><rect fill="none" height="431" rx="2.5" ry="2.5" style="stroke:#000000;stroke-width:1.5;" width="209.48" x="594.6" y="99.7983"/><text fill="#000000" font-family="sans-serif" font-size="14" font-weight="bold" lengthAdjust="spacing" textLength="43.6816" x="677.4992" y="115.3334">Model</text></g><!--class MarketViewController--><g class="entity" data-qualified-name="View.MarketViewController" data-source-line="10" id="ent0003"><rect fill="#F1F1F1" height="48" rx="2.5" ry="2.5" style="stroke:#181818;stroke-width:0.5;" width="178.6855" x="28.5" y="363.7983"/><ellipse cx="43.5" cy="379.7983" fill="#ADD1B2" rx="11" ry="11" style="stroke:#181818;stroke-width:1;"/><path d="M46.4731,385.4413 Q45.8921,385.7402 45.2529,385.8896 Q44.6138,386.039 43.9082,386.039 Q41.4014,386.039 40.0815,384.3871 Q38.7617,382.7353 38.7617,379.6142 Q38.7617,376.4848 40.0815,374.8329 Q41.4014,373.1811 43.9082,373.1811 Q44.6138,373.1811 45.2612,373.3305 Q45.9087,373.4799 46.4731,373.7788 L46.4731,376.5014 Q45.8423,375.9204 45.2488,375.6506 Q44.6553,375.3808 44.0244,375.3808 Q42.6797,375.3808 41.9949,376.4475 Q41.3101,377.5141 41.3101,379.6142 Q41.3101,381.706 41.9949,382.7726 Q42.6797,383.8393 44.0244,383.8393 Q44.6553,383.8393 45.2488,383.5695 Q45.8423,383.2997 46.4731,382.7187 Z " fill="#000000"/><text fill="#000000" font-family="sans-serif" font-size="14" lengthAdjust="spacing" textLength="146.6855" x="57.5" y="385.0893">MarketViewController</text><line style="stroke:#181818;stroke-width:0.5;" x1="29.5" x2="206.1855" y1="395.7983" y2="395.7983"/><line style="stroke:#181818;stroke-width:0.5;" x1="29.5" x2="206.1855" y1="403.7983" y2="403.7983"/></g><!--class PortfolioViewController--><g class="entity" data-qualified-name="View.PortfolioViewController" data-source-line="11" id="ent0004"><rect fill="#F1F1F1" height="48" rx="2.5" ry="2.5" style="stroke:#181818;stroke-width:0.5;" width="189.6914" x="23" y="280.7983"/><ellipse cx="38" cy="296.7983" fill="#ADD1B2" rx="11" ry="11" style="stroke:#181818;stroke-width:1;"/><path d="M40.9731,302.4413 Q40.3921,302.7402 39.7529,302.8896 Q39.1138,303.039 38.4082,303.039 Q35.9014,303.039 34.5815,301.3871 Q33.2617,299.7353 33.2617,296.6142 Q33.2617,293.4848 34.5815,291.8329 Q35.9014,290.1811 38.4082,290.1811 Q39.1138,290.1811 39.7612,290.3305 Q40.4087,290.4799 40.9731,290.7788 L40.9731,293.5014 Q40.3423,292.9204 39.7488,292.6506 Q39.1553,292.3808 38.5244,292.3808 Q37.1797,292.3808 36.4949,293.4475 Q35.8101,294.5141 35.8101,296.6142 Q35.8101,298.706 36.4949,299.7726 Q37.1797,300.8393 38.5244,300.8393 Q39.1553,300.8393 39.7488,300.5695 Q40.3423,300.2997 40.9731,299.7187 Z " fill="#000000"/><text fill="#000000" font-family="sans-serif" font-size="14" lengthAdjust="spacing" textLength="157.6914" x="52" y="302.0893">PortfolioViewController</text><line style="stroke:#181818;stroke-width:0.5;" x1="24" x2="211.6914" y1="312.7983" y2="312.7983"/><line style="stroke:#181818;stroke-width:0.5;" x1="24" x2="211.6914" y1="320.7983" y2="320.7983"/></g><!--class MarketViewModel--><g class="entity" data-qualified-name="ViewModel.MarketViewModel" data-source-line="15" id="ent0006"><rect fill="#F1F1F1" height="80.9766" rx="2.5" ry="2.5" style="stroke:#181818;stroke-width:0.5;" width="184.5938" x="301.14" y="367.3083"/><ellipse cx="330.8788" cy="383.3083" fill="#ADD1B2" rx="11" ry="11" style="stroke:#181818;stroke-width:1;"/><path d="M333.852,388.9513 Q333.2709,389.2502 332.6317,389.3996 Q331.9926,389.549 331.287,389.549 Q328.7802,389.549 327.4604,387.8971 Q326.1405,386.2453 326.1405,383.1242 Q326.1405,379.9948 327.4604,378.3429 Q328.7802,376.6911 331.287,376.6911 Q331.9926,376.6911 332.64,376.8405 Q333.2875,376.9899 333.852,377.2888 L333.852,380.0114 Q333.2211,379.4304 332.6276,379.1606 Q332.0341,378.8908 331.4032,378.8908 Q330.0585,378.8908 329.3737,379.9575 Q328.6889,381.0241 328.6889,383.1242 Q328.6889,385.216 329.3737,386.2826 Q330.0585,387.3493 331.4032,387.3493 Q332.0341,387.3493 332.6276,387.0795 Q333.2211,386.8097 333.852,386.2287 Z " fill="#000000"/><text fill="#000000" font-family="sans-serif" font-size="14" lengthAdjust="spacing" textLength="119.8408" x="348.1541" y="388.5993">MarketViewModel</text><line style="stroke:#181818;stroke-width:0.5;" x1="302.14" x2="484.7338" y1="399.3083" y2="399.3083"/><line style="stroke:#181818;stroke-width:0.5;" x1="302.14" x2="484.7338" y1="407.3083" y2="407.3083"/><g data-visibility-modifier="PUBLIC_METHOD"><ellipse cx="312.14" cy="421.0524" fill="#84BE84" rx="3" ry="3" style="stroke:#038048;stroke-width:1;"/></g><text fill="#000000" font-family="sans-serif" font-size="14" lengthAdjust="spacing" textLength="158.5938" x="321.14" y="424.8434">selectedStockProperty()</text><g data-visibility-modifier="PUBLIC_METHOD"><ellipse cx="312.14" cy="437.5407" fill="#84BE84" rx="3" ry="3" style="stroke:#038048;stroke-width:1;"/></g><text fill="#000000" font-family="sans-serif" font-size="14" lengthAdjust="spacing" textLength="74.7373" x="321.14" y="441.3317">getStocks()</text></g><!--class PortfolioViewModel--><g class="entity" data-qualified-name="ViewModel.PortfolioViewModel" data-source-line="20" id="ent0007"><rect fill="#F1F1F1" height="97.4648" rx="2.5" ry="2.5" style="stroke:#181818;stroke-width:0.5;" width="221.3027" x="282.78" y="235.0683"/><ellipse cx="324.0852" cy="251.0683" fill="#ADD1B2" rx="11" ry="11" style="stroke:#181818;stroke-width:1;"/><path d="M327.0584,256.7113 Q326.4773,257.0102 325.8382,257.1596 Q325.199,257.309 324.4934,257.309 Q321.9866,257.309 320.6668,255.6571 Q319.3469,254.0053 319.3469,250.8842 Q319.3469,247.7548 320.6668,246.1029 Q321.9866,244.4511 324.4934,244.4511 Q325.199,244.4511 325.8465,244.6005 Q326.4939,244.7499 327.0584,245.0487 L327.0584,247.7714 Q326.4275,247.1904 325.834,246.9206 Q325.2405,246.6508 324.6096,246.6508 Q323.2649,246.6508 322.5801,247.7175 Q321.8953,248.7841 321.8953,250.8842 Q321.8953,252.976 322.5801,254.0426 Q323.2649,255.1093 324.6096,255.1093 Q325.2405,255.1093 325.834,254.8395 Q326.4275,254.5697 327.0584,253.9887 Z " fill="#000000"/><text fill="#000000" font-family="sans-serif" font-size="14" lengthAdjust="spacing" textLength="130.8467" x="343.9308" y="256.3593">PortfolioViewModel</text><line style="stroke:#181818;stroke-width:0.5;" x1="283.78" x2="503.0827" y1="267.0683" y2="267.0683"/><line style="stroke:#181818;stroke-width:0.5;" x1="283.78" x2="503.0827" y1="275.0683" y2="275.0683"/><g data-visibility-modifier="PUBLIC_METHOD"><ellipse cx="293.78" cy="288.8124" fill="#84BE84" rx="3" ry="3" style="stroke:#038048;stroke-width:1;"/></g><text fill="#000000" font-family="sans-serif" font-size="14" lengthAdjust="spacing" textLength="195.3027" x="302.78" y="292.6034">selectedBuySymbolProperty()</text><g data-visibility-modifier="PUBLIC_METHOD"><ellipse cx="293.78" cy="305.3007" fill="#84BE84" rx="3" ry="3" style="stroke:#038048;stroke-width:1;"/></g><text fill="#000000" font-family="sans-serif" font-size="14" lengthAdjust="spacing" textLength="70.6494" x="302.78" y="309.0917">buyStock()</text><g data-visibility-modifier="PUBLIC_METHOD"><ellipse cx="293.78" cy="321.789" fill="#84BE84" rx="3" ry="3" style="stroke:#038048;stroke-width:1;"/></g><text fill="#000000" font-family="sans-serif" font-size="14" lengthAdjust="spacing" textLength="68.8652" x="302.78" y="325.58">sellStock()</text></g><!--class StockQueryService--><g class="entity" data-qualified-name="Model.StockQueryService" data-source-line="28" id="ent0009"><rect fill="#F1F1F1" height="48" rx="2.5" ry="2.5" style="stroke:#181818;stroke-width:0.5;" width="156.4688" x="621.11" y="466.7983"/><ellipse cx="636.11" cy="482.7983" fill="#ADD1B2" rx="11" ry="11" style="stroke:#181818;stroke-width:1;"/><path d="M639.0831,488.4413 Q638.5021,488.7402 637.8629,488.8896 Q637.2238,489.039 636.5182,489.039 Q634.0114,489.039 632.6915,487.3871 Q631.3717,485.7353 631.3717,482.6142 Q631.3717,479.4848 632.6915,477.8329 Q634.0114,476.1811 636.5182,476.1811 Q637.2238,476.1811 637.8712,476.3305 Q638.5187,476.4799 639.0831,476.7788 L639.0831,479.5014 Q638.4523,478.9204 637.8588,478.6506 Q637.2653,478.3808 636.6344,478.3808 Q635.2897,478.3808 634.6049,479.4475 Q633.9201,480.5141 633.9201,482.6142 Q633.9201,484.706 634.6049,485.7726 Q635.2897,486.8393 636.6344,486.8393 Q637.2653,486.8393 637.8588,486.5695 Q638.4523,486.2997 639.0831,485.7187 Z " fill="#000000"/><text fill="#000000" font-family="sans-serif" font-size="14" lengthAdjust="spacing" textLength="124.4688" x="650.11" y="488.0893">StockQueryService</text><line style="stroke:#181818;stroke-width:0.5;" x1="622.11" x2="776.5788" y1="498.7983" y2="498.7983"/><line style="stroke:#181818;stroke-width:0.5;" x1="622.11" x2="776.5788" y1="506.7983" y2="506.7983"/></g><!--class PortfolioQueryService--><g class="entity" data-qualified-name="Model.PortfolioQueryService" data-source-line="29" id="ent0010"><rect fill="#F1F1F1" height="48" rx="2.5" ry="2.5" style="stroke:#181818;stroke-width:0.5;" width="177.4824" x="610.6" y="217.7983"/><ellipse cx="625.6" cy="233.7983" fill="#ADD1B2" rx="11" ry="11" style="stroke:#181818;stroke-width:1;"/><path d="M628.5731,239.4413 Q627.9921,239.7402 627.3529,239.8896 Q626.7138,240.039 626.0082,240.039 Q623.5014,240.039 622.1815,238.3871 Q620.8617,236.7353 620.8617,233.6142 Q620.8617,230.4848 622.1815,228.8329 Q623.5014,227.1811 626.0082,227.1811 Q626.7138,227.1811 627.3612,227.3305 Q628.0087,227.4799 628.5731,227.7788 L628.5731,230.5014 Q627.9423,229.9204 627.3488,229.6506 Q626.7553,229.3808 626.1244,229.3808 Q624.7797,229.3808 624.0949,230.4475 Q623.4101,231.5141 623.4101,233.6142 Q623.4101,235.706 624.0949,236.7726 Q624.7797,237.8393 626.1244,237.8393 Q626.7553,237.8393 627.3488,237.5695 Q627.9423,237.2997 628.5731,236.7187 Z " fill="#000000"/><text fill="#000000" font-family="sans-serif" font-size="14" lengthAdjust="spacing" textLength="145.4824" x="639.6" y="239.0893">PortfolioQueryService</text><line style="stroke:#181818;stroke-width:0.5;" x1="611.6" x2="787.0824" y1="249.7983" y2="249.7983"/><line style="stroke:#181818;stroke-width:0.5;" x1="611.6" x2="787.0824" y1="257.7983" y2="257.7983"/></g><!--class BuyStockService--><g class="entity" data-qualified-name="Model.BuyStockService" data-source-line="30" id="ent0011"><rect fill="#F1F1F1" height="48" rx="2.5" ry="2.5" style="stroke:#181818;stroke-width:0.5;" width="140.1172" x="629.28" y="134.7983"/><ellipse cx="644.28" cy="150.7983" fill="#ADD1B2" rx="11" ry="11" style="stroke:#181818;stroke-width:1;"/><path d="M647.2531,156.4413 Q646.6721,156.7402 646.0329,156.8896 Q645.3938,157.039 644.6882,157.039 Q642.1814,157.039 640.8615,155.3871 Q639.5417,153.7353 639.5417,150.6142 Q639.5417,147.4848 640.8615,145.8329 Q642.1814,144.1811 644.6882,144.1811 Q645.3938,144.1811 646.0412,144.3305 Q646.6887,144.4799 647.2531,144.7788 L647.2531,147.5014 Q646.6223,146.9204 646.0288,146.6506 Q645.4353,146.3808 644.8044,146.3808 Q643.4597,146.3808 642.7749,147.4475 Q642.0901,148.5141 642.0901,150.6142 Q642.0901,152.706 642.7749,153.7726 Q643.4597,154.8393 644.8044,154.8393 Q645.4353,154.8393 646.0288,154.5695 Q646.6223,154.2997 647.2531,153.7187 Z " fill="#000000"/><text fill="#000000" font-family="sans-serif" font-size="14" lengthAdjust="spacing" textLength="108.1172" x="658.28" y="156.0893">BuyStockService</text><line style="stroke:#181818;stroke-width:0.5;" x1="630.28" x2="768.3972" y1="166.7983" y2="166.7983"/><line style="stroke:#181818;stroke-width:0.5;" x1="630.28" x2="768.3972" y1="174.7983" y2="174.7983"/></g><!--class SellStockService--><g class="entity" data-qualified-name="Model.SellStockService" data-source-line="31" id="ent0012"><rect fill="#F1F1F1" height="48" rx="2.5" ry="2.5" style="stroke:#181818;stroke-width:0.5;" width="139.4951" x="629.59" y="300.7983"/><ellipse cx="644.59" cy="316.7983" fill="#ADD1B2" rx="11" ry="11" style="stroke:#181818;stroke-width:1;"/><path d="M647.5631,322.4413 Q646.9821,322.7402 646.3429,322.8896 Q645.7038,323.039 644.9982,323.039 Q642.4914,323.039 641.1715,321.3871 Q639.8517,319.7353 639.8517,316.6142 Q639.8517,313.4848 641.1715,311.8329 Q642.4914,310.1811 644.9982,310.1811 Q645.7038,310.1811 646.3512,310.3305 Q646.9987,310.4799 647.5631,310.7788 L647.5631,313.5014 Q646.9323,312.9204 646.3388,312.6506 Q645.7453,312.3808 645.1144,312.3808 Q643.7697,312.3808 643.0849,313.4475 Q642.4001,314.5141 642.4001,316.6142 Q642.4001,318.706 643.0849,319.7726 Q643.7697,320.8393 645.1144,320.8393 Q645.7453,320.8393 646.3388,320.5695 Q646.9323,320.2997 647.5631,319.7187 Z " fill="#000000"/><text fill="#000000" font-family="sans-serif" font-size="14" lengthAdjust="spacing" textLength="107.4951" x="658.59" y="322.0893">SellStockService</text><line style="stroke:#181818;stroke-width:0.5;" x1="630.59" x2="768.0851" y1="332.7983" y2="332.7983"/><line style="stroke:#181818;stroke-width:0.5;" x1="630.59" x2="768.0851" y1="340.7983" y2="340.7983"/></g><!--class StockDTO--><g class="entity" data-qualified-name="Model.StockDTO" data-source-line="32" id="ent0013"><rect fill="#F1F1F1" height="48" rx="2.5" ry="2.5" style="stroke:#181818;stroke-width:0.5;" width="98.9443" x="649.87" y="383.7983"/><ellipse cx="664.87" cy="399.7983" fill="#ADD1B2" rx="11" ry="11" style="stroke:#181818;stroke-width:1;"/><path d="M667.8431,405.4413 Q667.2621,405.7402 666.6229,405.8896 Q665.9838,406.039 665.2782,406.039 Q662.7714,406.039 661.4515,404.3871 Q660.1317,402.7353 660.1317,399.6142 Q660.1317,396.4848 661.4515,394.8329 Q662.7714,393.1811 665.2782,393.1811 Q665.9838,393.1811 666.6312,393.3305 Q667.2787,393.4799 667.8431,393.7788 L667.8431,396.5014 Q667.2123,395.9204 666.6188,395.6506 Q666.0253,395.3808 665.3944,395.3808 Q664.0497,395.3808 663.3649,396.4475 Q662.6801,397.5141 662.6801,399.6142 Q662.6801,401.706 663.3649,402.7726 Q664.0497,403.8393 665.3944,403.8393 Q666.0253,403.8393 666.6188,403.5695 Q667.2123,403.2997 667.8431,402.7187 Z " fill="#000000"/><text fill="#000000" font-family="sans-serif" font-size="14" lengthAdjust="spacing" textLength="66.9443" x="678.87" y="405.0893">StockDTO</text><line style="stroke:#181818;stroke-width:0.5;" x1="650.87" x2="747.8143" y1="415.7983" y2="415.7983"/><line style="stroke:#181818;stroke-width:0.5;" x1="650.87" x2="747.8143" y1="423.7983" y2="423.7983"/></g><g class="entity" data-qualified-name="GMN21" data-source-line="46" id="ent0022"><path d="M12.91,189.4883 L12.91,230.1094 L222.7845,230.1094 L222.7845,199.4883 L212.7845,189.4883 L12.91,189.4883" fill="#FEFFDD" style="stroke:#181818;stroke-width:0.5;"/><path d="M212.7845,189.4883 L212.7845,199.4883 L222.7845,199.4883 L212.7845,189.4883" fill="#FEFFDD" style="stroke:#181818;stroke-width:1;"/><text fill="#000000" font-family="sans-serif" font-size="13" lengthAdjust="spacing" textLength="94.8213" x="65.9366" y="207.0566">View viser data</text><text fill="#000000" font-family="sans-serif" font-size="13" lengthAdjust="spacing" textLength="188.8745" x="18.91" y="222.3672">og sender brugerinput videre.</text></g><g class="entity" data-qualified-name="GMN24" data-source-line="51" id="ent0025"><path d="M288.76,143.4883 L288.76,184.1094 A0,0 0 0 0 288.76,184.1094 L389.6,184.1094 L393.6,234.6483 L397.6,184.1094 L498.1077,184.1094 A0,0 0 0 0 498.1077,184.1094 L498.1077,153.4883 L488.1077,143.4883 L288.76,143.4883 A0,0 0 0 0 288.76,143.4883" fill="#FEFFDD" style="stroke:#181818;stroke-width:0.5;"/><path d="M488.1077,143.4883 L488.1077,153.4883 L498.1077,153.4883 L488.1077,143.4883" fill="#FEFFDD" style="stroke:#181818;stroke-width:0.5;"/><text fill="#000000" font-family="sans-serif" font-size="13" lengthAdjust="spacing" textLength="188.3477" x="294.76" y="161.0566">ViewModel holder UI-tilstand,</text><text fill="#000000" font-family="sans-serif" font-size="13" lengthAdjust="spacing" textLength="160.9004" x="308.4836" y="176.3672">properties og handlinger.</text></g><g class="entity" data-qualified-name="GMN27" data-source-line="56" id="ent0028"><path d="M564.09,43.4883 L564.09,84.1094 L834.6037,84.1094 L834.6037,53.4883 L824.6037,43.4883 L564.09,43.4883" fill="#FEFFDD" style="stroke:#181818;stroke-width:0.5;"/><path d="M824.6037,43.4883 L824.6037,53.4883 L834.6037,53.4883 L824.6037,43.4883" fill="#FEFFDD" style="stroke:#181818;stroke-width:1;"/><text fill="#000000" font-family="sans-serif" font-size="13" lengthAdjust="spacing" textLength="169.2666" x="610.2135" y="61.0566">Wiring sker i AppContext /</text><text fill="#000000" font-family="sans-serif" font-size="13" lengthAdjust="spacing" textLength="249.5137" x="570.09" y="76.3672">ControllerFactory uden for selve flowet.</text></g><!--link MarketViewController to MarketViewModel--><g class="link" data-entity-1="ent0003" data-entity-2="ent0006" data-link-type="dependency" data-source-line="35" id="lnk14"><path codeLine="35" d="M207.32,389.5583 C237.34,389.5583 264.86,389.5583 295.1,389.5583" fill="none" id="MarketViewController-to-MarketViewModel" style="stroke:#181818;stroke-width:1;"/><polygon fill="#181818" points="301.1,389.5583,292.1,385.5583,296.1,389.5583,292.1,393.5583,301.1,389.5583" style="stroke:#181818;stroke-width:1;"/><text fill="#000000" font-family="sans-serif" font-size="13" lengthAdjust="spacing" textLength="95.0752" x="158.21" y="403.1266">binder / kalder</text></g><!--link PortfolioViewController to PortfolioViewModel--><g class="link" data-entity-1="ent0004" data-entity-2="ent0007" data-link-type="dependency" data-source-line="36" id="lnk15"><path codeLine="36" d="M213.07,304.7983 C235.48,304.7983 253.55,304.7983 276.57,304.7983" fill="none" id="PortfolioViewController-to-PortfolioViewModel" style="stroke:#181818;stroke-width:1;"/><polygon fill="#181818" points="282.57,304.7983,273.57,300.7983,277.57,304.7983,273.57,308.7983,282.57,304.7983" style="stroke:#181818;stroke-width:1;"/><text fill="#000000" font-family="sans-serif" font-size="13" lengthAdjust="spacing" textLength="95.0752" x="151.82" y="318.3666">binder / kalder</text></g><!--link MarketViewModel to StockQueryService--><g class="link" data-entity-1="ent0006" data-entity-2="ent0009" data-link-type="dependency" data-source-line="38" id="lnk16"><path codeLine="38" d="M486.19,440.0383 C550.86,440.0383 625.6,440.0383 625.6,440.0383 C625.6,440.0383 625.6,447.3283 625.6,460.3083" fill="none" id="MarketViewModel-to-StockQueryService" style="stroke:#181818;stroke-width:1;"/><polygon fill="#181818" points="625.6,466.3083,629.6,457.3083,625.6,461.3083,621.6,457.3083,625.6,466.3083" style="stroke:#181818;stroke-width:1;"/><text fill="#000000" font-family="sans-serif" font-size="13" lengthAdjust="spacing" textLength="65.5269" x="503.03" y="453.6066">l&#230;ser data</text></g><!--link MarketViewModel to StockDTO--><g class="link" data-entity-1="ent0006" data-entity-2="ent0013" data-link-type="dependency" data-source-line="39" id="lnk17"><path codeLine="39" d="M486.05,407.7983 C539.86,407.7983 599.54,407.7983 643.67,407.7983" fill="none" id="MarketViewModel-to-StockDTO" style="stroke:#181818;stroke-width:1;"/><polygon fill="#181818" points="649.67,407.7983,640.67,403.7983,644.67,407.7983,640.67,411.7983,649.67,407.7983" style="stroke:#181818;stroke-width:1;"/><text fill="#000000" font-family="sans-serif" font-size="13" lengthAdjust="spacing" textLength="102.3433" x="464.86" y="421.3666">eksponerer data</text></g><!--link PortfolioViewModel to PortfolioQueryService--><g class="link" data-entity-1="ent0007" data-entity-2="ent0010" data-link-type="dependency" data-source-line="41" id="lnk18"><path codeLine="41" d="M504.31,245.3083 C539.19,245.3083 571.24,245.3083 604.39,245.3083" fill="none" id="PortfolioViewModel-to-PortfolioQueryService" style="stroke:#181818;stroke-width:1;"/><polygon fill="#181818" points="610.39,245.3083,601.39,241.3083,605.39,245.3083,601.39,249.3083,610.39,245.3083" style="stroke:#181818;stroke-width:1;"/><text fill="#000000" font-family="sans-serif" font-size="13" lengthAdjust="spacing" textLength="65.5269" x="491.35" y="241.8766">l&#230;ser data</text></g><!--link PortfolioViewModel to BuyStockService--><g class="link" data-entity-1="ent0007" data-entity-2="ent0011" data-link-type="dependency" data-source-line="42" id="lnk19"><path codeLine="42" d="M504.56,255.5583 C521.57,255.5583 533.6,255.5583 533.6,255.5583 C533.6,255.5583 533.6,163.1383 533.6,163.1383 C533.6,163.1383 577.88,163.1383 623.05,163.1383" fill="none" id="PortfolioViewModel-to-BuyStockService" style="stroke:#181818;stroke-width:1;"/><polygon fill="#181818" points="629.05,163.1383,620.05,159.1383,624.05,163.1383,620.05,167.1383,629.05,163.1383" style="stroke:#181818;stroke-width:1;"/><text fill="#000000" font-family="sans-serif" font-size="13" lengthAdjust="spacing" textLength="74.7754" x="534.6" y="189.7066">udf&#248;rer k&#248;b</text></g><!--link PortfolioViewModel to SellStockService--><g class="link" data-entity-1="ent0007" data-entity-2="ent0012" data-link-type="dependency" data-source-line="43" id="lnk20"><path codeLine="43" d="M504.31,316.6683 C546.03,316.6683 586.28,316.6683 623.27,316.6683" fill="none" id="PortfolioViewModel-to-SellStockService" style="stroke:#181818;stroke-width:1;"/><polygon fill="#181818" points="629.27,316.6683,620.27,312.6683,624.27,316.6683,620.27,320.6683,629.27,316.6683" style="stroke:#181818;stroke-width:1;"/><text fill="#000000" font-family="sans-serif" font-size="13" lengthAdjust="spacing" textLength="76.6797" x="489.79" y="330.2366">udf&#248;rer salg</text></g><!--link MarketViewController to GMN21--><g class="link" data-entity-1="ent0003" data-entity-2="ent0022" data-link-type="association" data-source-line="46" id="lnk23"><path d="M28.33,387.7983 C21.74,387.7983 17.6,387.7983 17.6,387.7983 C17.6,387.7983 17.6,277.5183 17.6,230.5683" fill="none" id="MarketViewController-GMN21" style="stroke:#181818;stroke-width:1;stroke-dasharray:7,7;"/></g><!--link StockQueryService to GMN27--><g class="link" data-entity-1="ent0009" data-entity-2="ent0028" data-link-type="association" data-source-line="56" id="lnk29"><path d="M620.82,490.7983 C602.19,490.7983 587.6,490.7983 587.6,490.7983 C587.6,490.7983 587.6,169.6883 587.6,84.3983" fill="none" id="StockQueryService-GMN27" style="stroke:#181818;stroke-width:1;stroke-dasharray:7,7;"/></g><g class="legend" data-source-line="60"><rect fill="#DDDDDD" height="26.4883" rx="7.5" ry="7.5" style="stroke:#000000;stroke-width:1;" width="183.4414" x="322.0811" y="547.7983"/><text fill="#000000" font-family="sans-serif" font-size="14" lengthAdjust="spacing" textLength="173.4414" x="327.0811" y="566.3334">Fuld pil = kald / dataflow</text></g><?plantuml-src VLJ1Rjim3BtxAuYUDcnPxmCseEbGO8TW7TnbPzccRS6CQ4XqCcFex-mRUi-FZNAIDhMTNWA7Z-yzag94M0e8WxTLBL1OZxbOTabeh6kDDniWwr3w5e6zr7m6XDeKlBEkWj9Gm3EaDNbZAaob9uIeQ5n5vma5bgOZUS0_SaEsSXjq0hd-e4yIiQAqrNgz0WjfhRPBMoN9KHIkrXPtL_0t0SZ9X00hunkK6Brb9vw9LEK4tYkzPB8ymXz7WYikaEPL1sX003v0GDA6i4Y5y-RUSujU-dVlZsY5CW1XYAZ9R1tpYikkJ_jDnZHHpHI9giy1fT1BvF5LDvDEXiIV7Ve-HR-rEKwBcaMNHzTnF3sPJu0O_FRm8vOpToYmM7oTpFKpPDOL2bv3OqW_aWj7Dh1dnZWLICOUaJcPWX9f_oyeiJ1YBdEq8Kt59hJiq9_IavbANXNuXjK5wcZUIkgASlyKBPlzKtQ9DZwESrumf3V7iI1aBC8RuFBIVOa1sDhdAW6uqaKRHflvhaAljxSJJT48VaeKWQWyqP_MULG_r5npF2JuzNqXbe8-3SL7nTl3pbiCqRRMgBuxwlc6pznU_xO-FaYXKGSBDsqRMzHN1guLV6dtpkJ2ljT1eOEIVRnGMuIIU8ToRabOnJy7KvMuwwY0rX9y6PPDToxEAl8YwP2T_0S0?></g></svg>