<?plantuml 1.2026.2?><svg xmlns="http://www.w3.org/2000/svg" xmlns:xlink="http://www.w3.org/1999/xlink" contentStyleType="text/css" data-diagram-type="CLASS" height="665px" preserveAspectRatio="none" style="width:1056px;height:665px;background:#FFFFFF;" version="1.1" viewBox="0 0 1056 665" width="1056px" zoomAndPan="magnify"><title>State Design M&#248;nster i ShortBig</title><defs/><g><g class="title" data-source-line="7"><text fill="#000000" font-family="sans-serif" font-size="14" font-weight="bold" lengthAdjust="spacing" textLength="228.7715" x="406.7243" y="23.5352">State Design M&#248;nster i ShortBig</text></g><!--cluster Context--><g class="cluster" data-qualified-name="Context" data-source-line="9" id="ent0002"><rect fill="none" height="131" rx="2.5" ry="2.5" style="stroke:#000000;stroke-width:1.5;" width="250.71" x="7" y="454.4883"/><text fill="#000000" font-family="sans-serif" font-size="14" font-weight="bold" lengthAdjust="spacing" textLength="55.9316" x="104.3892" y="470.0234">Context</text></g><!--cluster State--><g class="cluster" data-qualified-name="State" data-source-line="16" id="ent0004"><rect fill="none" height="131" rx="2.5" ry="2.5" style="stroke:#000000;stroke-width:1.5;" width="269.67" x="780.55" y="277.4883"/><text fill="#000000" font-family="sans-serif" font-size="14" font-weight="bold" lengthAdjust="spacing" textLength="35.7793" x="897.4954" y="293.0234">State</text></g><!--cluster Concrete states--><g class="cluster" data-qualified-name="Concrete states" data-source-line="23" id="ent0006"><rect fill="none" height="431" rx="2.5" ry="2.5" style="stroke:#000000;stroke-width:1.5;" width="161.25" x="591.3" y="44.4883"/><text fill="#000000" font-family="sans-serif" font-size="14" font-weight="bold" lengthAdjust="spacing" textLength="112.2324" x="615.8088" y="60.0234">Concrete states</text></g><!--cluster Transition--><g class="cluster" data-qualified-name="Transition" data-source-line="31" id="ent0012"><rect fill="none" height="115" rx="2.5" ry="2.5" style="stroke:#000000;stroke-width:1.5;" width="277.59" x="285.71" y="243.4883"/><text fill="#000000" font-family="sans-serif" font-size="14" font-weight="bold" lengthAdjust="spacing" textLength="74.2793" x="387.3654" y="259.0234">Transition</text></g><!--class LiveStock--><g class="entity" data-qualified-name="Context.LiveStock" data-source-line="10" id="ent0003"><rect fill="#F1F1F1" height="80.9766" rx="2.5" ry="2.5" style="stroke:#181818;stroke-width:0.5;" width="218.7051" x="23" y="488.9983"/><ellipse cx="96.459" cy="504.9983" fill="#ADD1B2" rx="11" ry="11" style="stroke:#181818;stroke-width:1;"/><path d="M99.4321,510.6413 Q98.8511,510.9402 98.2119,511.0896 Q97.5728,511.239 96.8672,511.239 Q94.3604,511.239 93.0405,509.5871 Q91.7207,507.9353 91.7207,504.8142 Q91.7207,501.6848 93.0405,500.0329 Q94.3604,498.3811 96.8672,498.3811 Q97.5728,498.3811 98.2202,498.5305 Q98.8677,498.6799 99.4321,498.9788 L99.4321,501.7014 Q98.8013,501.1204 98.2078,500.8506 Q97.6143,500.5808 96.9834,500.5808 Q95.6387,500.5808 94.9539,501.6475 Q94.269,502.7141 94.269,504.8142 Q94.269,506.906 94.9539,507.9726 Q95.6387,509.0393 96.9834,509.0393 Q97.6143,509.0393 98.2078,508.7695 Q98.8013,508.4997 99.4321,507.9187 Z " fill="#000000"/><text fill="#000000" font-family="sans-serif" font-size="14" lengthAdjust="spacing" textLength="63.2871" x="116.959" y="510.2893">LiveStock</text><line style="stroke:#181818;stroke-width:0.5;" x1="24" x2="240.7051" y1="520.9983" y2="520.9983"/><g data-visibility-modifier="PRIVATE_FIELD"><rect fill="none" height="6" style="stroke:#C82930;stroke-width:1;" width="6" x="31" y="531.7424"/></g><text fill="#000000" font-family="sans-serif" font-size="14" lengthAdjust="spacing" textLength="192.7051" x="43" y="538.5334">currentState : LiveStockState</text><line style="stroke:#181818;stroke-width:0.5;" x1="24" x2="240.7051" y1="545.4866" y2="545.4866"/><g data-visibility-modifier="PUBLIC_METHOD"><ellipse cx="34" cy="559.2307" fill="#84BE84" rx="3" ry="3" style="stroke:#038048;stroke-width:1;"/></g><text fill="#000000" font-family="sans-serif" font-size="14" lengthAdjust="spacing" textLength="88.6689" x="43" y="563.0217">updatePrice()</text></g><!--class LiveStockState--><g class="entity" data-qualified-name="State.LiveStockState" data-source-line="17" id="ent0005"><rect fill="#F1F1F1" height="80.9766" rx="2.5" ry="2.5" style="stroke:#181818;stroke-width:0.5;" width="237.668" x="796.55" y="311.9983"/><ellipse cx="862.7185" cy="327.9983" fill="#B4A7E5" rx="11" ry="11" style="stroke:#181818;stroke-width:1;"/><path d="M858.6462,323.7634 L858.6462,321.6052 L866.0256,321.6052 L866.0256,323.7634 L863.5603,323.7634 L863.5603,331.8401 L866.0256,331.8401 L866.0256,333.9983 L858.6462,333.9983 L858.6462,331.8401 L861.1115,331.8401 L861.1115,323.7634 Z " fill="#000000"/><text fill="#000000" font-family="sans-serif" font-size="14" font-style="italic" lengthAdjust="spacing" textLength="96.8311" x="883.2185" y="333.2893">LiveStockState</text><line style="stroke:#181818;stroke-width:0.5;" x1="797.55" x2="1033.218" y1="343.9983" y2="343.9983"/><line style="stroke:#181818;stroke-width:0.5;" x1="797.55" x2="1033.218" y1="351.9983" y2="351.9983"/><g data-visibility-modifier="PUBLIC_METHOD"><ellipse cx="807.55" cy="365.7424" fill="#84BE84" rx="3" ry="3" style="stroke:#038048;stroke-width:1;"/></g><text fill="#000000" font-family="sans-serif" font-size="14" lengthAdjust="spacing" textLength="211.668" x="816.55" y="369.5334">calculateNewPrice(currentPrice)</text><g data-visibility-modifier="PUBLIC_METHOD"><ellipse cx="807.55" cy="382.2307" fill="#84BE84" rx="3" ry="3" style="stroke:#038048;stroke-width:1;"/></g><text fill="#000000" font-family="sans-serif" font-size="14" lengthAdjust="spacing" textLength="69.8154" x="816.55" y="386.0217">getName()</text></g><!--class SteadyState--><g class="entity" data-qualified-name="Concrete states.SteadyState" data-source-line="24" id="ent0007"><rect fill="#F1F1F1" height="48" rx="2.5" ry="2.5" style="stroke:#181818;stroke-width:0.5;" width="109.9775" x="616.94" y="411.4883"/><ellipse cx="631.94" cy="427.4883" fill="#ADD1B2" rx="11" ry="11" style="stroke:#181818;stroke-width:1;"/><path d="M634.9131,433.1313 Q634.3321,433.4302 633.6929,433.5796 Q633.0538,433.729 632.3482,433.729 Q629.8414,433.729 628.5215,432.0771 Q627.2017,430.4253 627.2017,427.3042 Q627.2017,424.1748 628.5215,422.5229 Q629.8414,420.8711 632.3482,420.8711 Q633.0538,420.8711 633.7012,421.0205 Q634.3487,421.1699 634.9131,421.4688 L634.9131,424.1914 Q634.2823,423.6104 633.6888,423.3406 Q633.0953,423.0708 632.4644,423.0708 Q631.1197,423.0708 630.4349,424.1375 Q629.7501,425.2041 629.7501,427.3042 Q629.7501,429.396 630.4349,430.4626 Q631.1197,431.5293 632.4644,431.5293 Q633.0953,431.5293 633.6888,431.2595 Q634.2823,430.9897 634.9131,430.4087 Z " fill="#000000"/><text fill="#000000" font-family="sans-serif" font-size="14" lengthAdjust="spacing" textLength="77.9775" x="645.94" y="432.7793">SteadyState</text><line style="stroke:#181818;stroke-width:0.5;" x1="617.94" x2="725.9175" y1="443.4883" y2="443.4883"/><line style="stroke:#181818;stroke-width:0.5;" x1="617.94" x2="725.9175" y1="451.4883" y2="451.4883"/></g><!--class GrowingState--><g class="entity" data-qualified-name="Concrete states.GrowingState" data-source-line="25" id="ent0008"><rect fill="#F1F1F1" height="48" rx="2.5" ry="2.5" style="stroke:#181818;stroke-width:0.5;" width="122.2412" x="610.81" y="328.4883"/><ellipse cx="625.81" cy="344.4883" fill="#ADD1B2" rx="11" ry="11" style="stroke:#181818;stroke-width:1;"/><path d="M628.7831,350.1313 Q628.2021,350.4302 627.5629,350.5796 Q626.9238,350.729 626.2182,350.729 Q623.7114,350.729 622.3915,349.0771 Q621.0717,347.4253 621.0717,344.3042 Q621.0717,341.1748 622.3915,339.5229 Q623.7114,337.8711 626.2182,337.8711 Q626.9238,337.8711 627.5712,338.0205 Q628.2187,338.1699 628.7831,338.4688 L628.7831,341.1914 Q628.1523,340.6104 627.5588,340.3406 Q626.9653,340.0708 626.3344,340.0708 Q624.9897,340.0708 624.3049,341.1375 Q623.6201,342.2041 623.6201,344.3042 Q623.6201,346.396 624.3049,347.4626 Q624.9897,348.5293 626.3344,348.5293 Q626.9653,348.5293 627.5588,348.2595 Q628.1523,347.9897 628.7831,347.4087 Z " fill="#000000"/><text fill="#000000" font-family="sans-serif" font-size="14" lengthAdjust="spacing" textLength="90.2412" x="639.81" y="349.7793">GrowingState</text><line style="stroke:#181818;stroke-width:0.5;" x1="611.81" x2="732.0512" y1="360.4883" y2="360.4883"/><line style="stroke:#181818;stroke-width:0.5;" x1="611.81" x2="732.0512" y1="368.4883" y2="368.4883"/></g><!--class DecliningState--><g class="entity" data-qualified-name="Concrete states.DecliningState" data-source-line="26" id="ent0009"><rect fill="#F1F1F1" height="48" rx="2.5" ry="2.5" style="stroke:#181818;stroke-width:0.5;" width="129.248" x="607.3" y="245.4883"/><ellipse cx="622.3" cy="261.4883" fill="#ADD1B2" rx="11" ry="11" style="stroke:#181818;stroke-width:1;"/><path d="M625.2731,267.1313 Q624.6921,267.4302 624.0529,267.5796 Q623.4138,267.729 622.7082,267.729 Q620.2014,267.729 618.8815,266.0771 Q617.5617,264.4253 617.5617,261.3042 Q617.5617,258.1748 618.8815,256.5229 Q620.2014,254.8711 622.7082,254.8711 Q623.4138,254.8711 624.0612,255.0205 Q624.7087,255.1699 625.2731,255.4688 L625.2731,258.1914 Q624.6423,257.6104 624.0488,257.3406 Q623.4553,257.0708 622.8244,257.0708 Q621.4797,257.0708 620.7949,258.1375 Q620.1101,259.2041 620.1101,261.3042 Q620.1101,263.396 620.7949,264.4626 Q621.4797,265.5293 622.8244,265.5293 Q623.4553,265.5293 624.0488,265.2595 Q624.6423,264.9897 625.2731,264.4087 Z " fill="#000000"/><text fill="#000000" font-family="sans-serif" font-size="14" lengthAdjust="spacing" textLength="97.248" x="636.3" y="266.7793">DecliningState</text><line style="stroke:#181818;stroke-width:0.5;" x1="608.3" x2="735.548" y1="277.4883" y2="277.4883"/><line style="stroke:#181818;stroke-width:0.5;" x1="608.3" x2="735.548" y1="285.4883" y2="285.4883"/></g><!--class BankruptState--><g class="entity" data-qualified-name="Concrete states.BankruptState" data-source-line="27" id="ent0010"><rect fill="#F1F1F1" height="48" rx="2.5" ry="2.5" style="stroke:#181818;stroke-width:0.5;" width="126.6641" x="608.59" y="162.4883"/><ellipse cx="623.59" cy="178.4883" fill="#ADD1B2" rx="11" ry="11" style="stroke:#181818;stroke-width:1;"/><path d="M626.5631,184.1313 Q625.9821,184.4302 625.3429,184.5796 Q624.7038,184.729 623.9982,184.729 Q621.4914,184.729 620.1715,183.0771 Q618.8517,181.4253 618.8517,178.3042 Q618.8517,175.1748 620.1715,173.5229 Q621.4914,171.8711 623.9982,171.8711 Q624.7038,171.8711 625.3512,172.0205 Q625.9987,172.1699 626.5631,172.4688 L626.5631,175.1914 Q625.9323,174.6104 625.3388,174.3406 Q624.7453,174.0708 624.1144,174.0708 Q622.7697,174.0708 622.0849,175.1375 Q621.4001,176.2041 621.4001,178.3042 Q621.4001,180.396 622.0849,181.4626 Q622.7697,182.5293 624.1144,182.5293 Q624.7453,182.5293 625.3388,182.2595 Q625.9323,181.9897 626.5631,181.4087 Z " fill="#000000"/><text fill="#000000" font-family="sans-serif" font-size="14" lengthAdjust="spacing" textLength="94.6641" x="637.59" y="183.7793">BankruptState</text><line style="stroke:#181818;stroke-width:0.5;" x1="609.59" x2="734.2541" y1="194.4883" y2="194.4883"/><line style="stroke:#181818;stroke-width:0.5;" x1="609.59" x2="734.2541" y1="202.4883" y2="202.4883"/></g><!--class ResetState--><g class="entity" data-qualified-name="Concrete states.ResetState" data-source-line="28" id="ent0011"><rect fill="#F1F1F1" height="48" rx="2.5" ry="2.5" style="stroke:#181818;stroke-width:0.5;" width="102.3691" x="620.74" y="79.4883"/><ellipse cx="635.74" cy="95.4883" fill="#ADD1B2" rx="11" ry="11" style="stroke:#181818;stroke-width:1;"/><path d="M638.7131,101.1313 Q638.1321,101.4302 637.4929,101.5796 Q636.8538,101.729 636.1482,101.729 Q633.6414,101.729 632.3215,100.0771 Q631.0017,98.4253 631.0017,95.3042 Q631.0017,92.1748 632.3215,90.5229 Q633.6414,88.8711 636.1482,88.8711 Q636.8538,88.8711 637.5012,89.0205 Q638.1487,89.1699 638.7131,89.4688 L638.7131,92.1914 Q638.0823,91.6104 637.4888,91.3406 Q636.8953,91.0708 636.2644,91.0708 Q634.9197,91.0708 634.2349,92.1375 Q633.5501,93.2041 633.5501,95.3042 Q633.5501,97.396 634.2349,98.4626 Q634.9197,99.5293 636.2644,99.5293 Q636.8953,99.5293 637.4888,99.2595 Q638.0823,98.9897 638.7131,98.4087 Z " fill="#000000"/><text fill="#000000" font-family="sans-serif" font-size="14" lengthAdjust="spacing" textLength="70.3691" x="649.74" y="100.7793">ResetState</text><line style="stroke:#181818;stroke-width:0.5;" x1="621.74" x2="722.1091" y1="111.4883" y2="111.4883"/><line style="stroke:#181818;stroke-width:0.5;" x1="621.74" x2="722.1091" y1="119.4883" y2="119.4883"/></g><!--class TransitionManager--><g class="entity" data-qualified-name="Transition.TransitionManager" data-source-line="32" id="ent0013"><rect fill="#F1F1F1" height="64.4883" rx="2.5" ry="2.5" style="stroke:#181818;stroke-width:0.5;" width="245.5977" x="301.71" y="278.2483"/><ellipse cx="356.647" cy="294.2483" fill="#ADD1B2" rx="11" ry="11" style="stroke:#181818;stroke-width:1;"/><path d="M359.6202,299.8913 Q359.0391,300.1902 358.3999,300.3396 Q357.7608,300.489 357.0552,300.489 Q354.5484,300.489 353.2286,298.8371 Q351.9087,297.1853 351.9087,294.0642 Q351.9087,290.9348 353.2286,289.2829 Q354.5484,287.6311 357.0552,287.6311 Q357.7608,287.6311 358.4082,287.7805 Q359.0557,287.9299 359.6202,288.2288 L359.6202,290.9514 Q358.9893,290.3704 358.3958,290.1006 Q357.8023,289.8308 357.1714,289.8308 Q355.8267,289.8308 355.1419,290.8975 Q354.4571,291.9641 354.4571,294.0642 Q354.4571,296.156 355.1419,297.2226 Q355.8267,298.2893 357.1714,298.2893 Q357.8023,298.2893 358.3958,298.0195 Q358.9893,297.7497 359.6202,297.1687 Z " fill="#000000"/><text fill="#000000" font-family="sans-serif" font-size="14" lengthAdjust="spacing" textLength="127.2236" x="377.147" y="299.5393">TransitionManager</text><line style="stroke:#181818;stroke-width:0.5;" x1="302.71" x2="546.3077" y1="310.2483" y2="310.2483"/><line style="stroke:#181818;stroke-width:0.5;" x1="302.71" x2="546.3077" y1="318.2483" y2="318.2483"/><g data-visibility-modifier="PUBLIC_METHOD"><ellipse cx="312.71" cy="331.9924" fill="#84BE84" rx="3" ry="3" style="stroke:#038048;stroke-width:1;"/></g><text fill="#000000" font-family="sans-serif" font-size="14" lengthAdjust="spacing" textLength="219.5977" x="321.71" y="335.7834">getNextState(currentState, ticks)</text></g><g class="entity" data-qualified-name="GMN27" data-source-line="54" id="ent0028"><path d="M332.19,419.1783 L332.19,459.7994 L516.8262,459.7994 L516.8262,429.1783 L506.8262,419.1783 L332.19,419.1783" fill="#FEFFDD" style="stroke:#181818;stroke-width:0.5;"/><path d="M506.8262,419.1783 L506.8262,429.1783 L516.8262,429.1783 L506.8262,419.1783" fill="#FEFFDD" style="stroke:#181818;stroke-width:1;"/><text fill="#000000" font-family="sans-serif" font-size="13" lengthAdjust="spacing" textLength="146.4658" x="346.7752" y="436.7466">Context skifter adfaerd</text><text fill="#000000" font-family="sans-serif" font-size="13" lengthAdjust="spacing" textLength="163.6362" x="338.19" y="452.0572">ved at skifte state-objekt.</text></g><g class="entity" data-qualified-name="GMN30" data-source-line="59" id="ent0031"><path d="M334.23,171.5183 L334.23,227.4499 A0,0 0 0 0 334.23,227.4499 L420.22,227.4499 L424.22,277.7883 L428.22,227.4499 L514.772,227.4499 A0,0 0 0 0 514.772,227.4499 L514.772,181.5183 L504.772,171.5183 L334.23,171.5183 A0,0 0 0 0 334.23,171.5183" fill="#FEFFDD" style="stroke:#181818;stroke-width:0.5;"/><path d="M504.772,171.5183 L504.772,181.5183 L514.772,181.5183 L504.772,171.5183" fill="#FEFFDD" style="stroke:#181818;stroke-width:0.5;"/><text fill="#000000" font-family="sans-serif" font-size="13" lengthAdjust="spacing" textLength="159.542" x="340.23" y="189.0866">Overgange er samlet her,</text><text fill="#000000" font-family="sans-serif" font-size="13" lengthAdjust="spacing" textLength="153.3657" x="343.3181" y="204.3972">saa state-klasserne ikke</text><text fill="#000000" font-family="sans-serif" font-size="13" lengthAdjust="spacing" textLength="155.4351" x="342.2835" y="219.7077">kender alle andre states.</text></g><!--reverse link LiveStock to LiveStockState--><g class="link" data-entity-1="ent0003" data-entity-2="ent0005" data-link-type="composition" data-source-line="37" id="lnk14"><path codeLine="37" d="M132.22,476.7783 C132.22,433.9683 132.22,384.7283 132.22,384.7283 C132.22,384.7283 577.35,384.7283 796.44,384.7283" fill="none" id="LiveStock-backto-LiveStockState" style="stroke:#181818;stroke-width:1;"/><polygon fill="#181818" points="132.22,488.7783,136.22,482.7783,132.22,476.7783,128.22,482.7783,132.22,488.7783" style="stroke:#181818;stroke-width:1;"/><text fill="#000000" font-family="sans-serif" font-size="13" lengthAdjust="spacing" textLength="75.4419" x="336.3" y="398.2966">holder state</text></g><!--link LiveStock to LiveStockState--><g class="link" data-entity-1="ent0003" data-entity-2="ent0005" data-link-type="dependency" data-source-line="38" id="lnk15"><path codeLine="38" d="M77.22,488.8083 C77.22,444.7283 77.22,380.6083 77.22,380.6083 C77.22,380.6083 558.78,380.6083 790.19,380.6083" fill="none" id="LiveStock-to-LiveStockState" style="stroke:#181818;stroke-width:1;"/><polygon fill="#181818" points="796.19,380.6083,787.19,376.6083,791.19,380.6083,787.19,384.6083,796.19,380.6083" style="stroke:#181818;stroke-width:1;"/><text fill="#000000" font-family="sans-serif" font-size="13" lengthAdjust="spacing" textLength="128.3242" x="253.6" y="377.1766">delegerer adfaerd til</text></g><!--reverse link LiveStock to TransitionManager--><g class="link" data-entity-1="ent0003" data-entity-2="ent0013" data-link-type="composition" data-source-line="39" id="lnk16"><path codeLine="39" d="M254.03,529.4883 C293.83,529.4883 317.22,529.4883 317.22,529.4883 C317.22,529.4883 317.22,403.7183 317.22,342.7983" fill="none" id="LiveStock-backto-TransitionManager" style="stroke:#181818;stroke-width:1;"/><polygon fill="#181818" points="242.03,529.4883,248.03,533.4883,254.03,529.4883,248.03,525.4883,242.03,529.4883" style="stroke:#181818;stroke-width:1;"/><text fill="#000000" font-family="sans-serif" font-size="13" lengthAdjust="spacing" textLength="90.4668" x="318.22" y="487.3066">bruger til skift</text></g><!--link SteadyState to LiveStockState--><g class="link" data-entity-1="ent0007" data-entity-2="ent0005" data-link-type="extension" data-source-line="41" id="lnk17"><path codeLine="41" d="M672.22,411.0783 C672.22,399.7983 672.22,388.8583 672.22,388.8583 C672.22,388.8583 716.68,388.8583 778.3,388.8583" fill="none" id="SteadyState-to-LiveStockState" style="stroke:#181818;stroke-width:1;stroke-dasharray:7,7;"/><polygon fill="none" points="796.3,388.8583,778.3,382.8583,778.3,394.8583,796.3,388.8583" style="stroke:#181818;stroke-width:1;"/></g><!--link GrowingState to LiveStockState--><g class="link" data-entity-1="ent0008" data-entity-2="ent0005" data-link-type="extension" data-source-line="42" id="lnk18"><path codeLine="42" d="M733.36,352.4883 C752.52,352.4883 756.34,352.4883 778.06,352.4883" fill="none" id="GrowingState-to-LiveStockState" style="stroke:#181818;stroke-width:1;stroke-dasharray:7,7;"/><polygon fill="none" points="796.06,352.4883,778.06,346.4883,778.06,358.4883,796.06,352.4883" style="stroke:#181818;stroke-width:1;"/></g><!--link DecliningState to LiveStockState--><g class="link" data-entity-1="ent0009" data-entity-2="ent0005" data-link-type="extension" data-source-line="43" id="lnk19"><path codeLine="43" d="M672.22,293.9783 C672.22,306.9583 672.22,320.2483 672.22,320.2483 C672.22,320.2483 716.68,320.2483 778.3,320.2483" fill="none" id="DecliningState-to-LiveStockState" style="stroke:#181818;stroke-width:1;stroke-dasharray:7,7;"/><polygon fill="none" points="796.3,320.2483,778.3,314.2483,778.3,326.2483,796.3,320.2483" style="stroke:#181818;stroke-width:1;"/></g><!--link BankruptState to LiveStockState--><g class="link" data-entity-1="ent0010" data-entity-2="ent0005" data-link-type="extension" data-source-line="44" id="lnk20"><path codeLine="44" d="M735.73,186.4883 C795.67,186.4883 876.22,186.4883 876.22,186.4883 C876.22,186.4883 876.22,244.7383 876.22,293.8783" fill="none" id="BankruptState-to-LiveStockState" style="stroke:#181818;stroke-width:1;stroke-dasharray:7,7;"/><polygon fill="none" points="876.22,311.8783,882.22,293.8783,870.22,293.8783,876.22,311.8783" style="stroke:#181818;stroke-width:1;"/></g><!--link ResetState to LiveStockState--><g class="link" data-entity-1="ent0011" data-entity-2="ent0005" data-link-type="extension" data-source-line="45" id="lnk21"><path codeLine="45" d="M723.56,103.4883 C805.27,103.4883 955.22,103.4883 955.22,103.4883 C955.22,103.4883 955.22,223.0083 955.22,293.6483" fill="none" id="ResetState-to-LiveStockState" style="stroke:#181818;stroke-width:1;stroke-dasharray:7,7;"/><polygon fill="none" points="955.22,311.6483,961.22,293.6483,949.22,293.6483,955.22,311.6483" style="stroke:#181818;stroke-width:1;"/></g><!--link TransitionManager to SteadyState--><g class="link" data-entity-1="ent0013" data-entity-2="ent0007" data-link-type="dependency" data-source-line="47" id="lnk22"><path codeLine="47" d="M532.22,343.0883 C532.22,373.8683 532.22,415.3283 532.22,415.3283 C532.22,415.3283 571.66,415.3283 610.71,415.3283" fill="none" id="TransitionManager-to-SteadyState" style="stroke:#181818;stroke-width:1;stroke-dasharray:7,7;"/><polygon fill="#181818" points="616.71,415.3283,607.71,411.3283,611.71,415.3283,607.71,419.3283,616.71,415.3283" style="stroke:#181818;stroke-width:1;"/><text fill="#000000" font-family="sans-serif" font-size="13" lengthAdjust="spacing" textLength="64.0034" x="539.34" y="428.8966">returnerer</text></g><!--link TransitionManager to GrowingState--><g class="link" data-entity-1="ent0013" data-entity-2="ent0008" data-link-type="dependency" data-source-line="48" id="lnk23"><path codeLine="48" d="M547.49,335.6083 C569.32,335.6083 585.18,335.6083 604.35,335.6083" fill="none" id="TransitionManager-to-GrowingState" style="stroke:#181818;stroke-width:1;stroke-dasharray:7,7;"/><polygon fill="#181818" points="610.35,335.6083,601.35,331.6083,605.35,335.6083,601.35,339.6083,610.35,335.6083" style="stroke:#181818;stroke-width:1;"/><text fill="#000000" font-family="sans-serif" font-size="13" lengthAdjust="spacing" textLength="64.0034" x="513.92" y="349.1766">returnerer</text></g><!--link TransitionManager to DecliningState--><g class="link" data-entity-1="ent0013" data-entity-2="ent0009" data-link-type="dependency" data-source-line="49" id="lnk24"><path codeLine="49" d="M547.49,285.8683 C567.99,285.8683 582.51,285.8683 600.81,285.8683" fill="none" id="TransitionManager-to-DecliningState" style="stroke:#181818;stroke-width:1;stroke-dasharray:7,7;"/><polygon fill="#181818" points="606.81,285.8683,597.81,281.8683,601.81,285.8683,597.81,289.8683,606.81,285.8683" style="stroke:#181818;stroke-width:1;"/><text fill="#000000" font-family="sans-serif" font-size="13" lengthAdjust="spacing" textLength="64.0034" x="512.15" y="282.4366">returnerer</text></g><!--link TransitionManager to BankruptState--><g class="link" data-entity-1="ent0013" data-entity-2="ent0010" data-link-type="dependency" data-source-line="50" id="lnk25"><path codeLine="50" d="M536.22,277.8383 C536.22,242.4583 536.22,191.0083 536.22,191.0083 C536.22,191.0083 567.12,191.0083 602.44,191.0083" fill="none" id="TransitionManager-to-BankruptState" style="stroke:#181818;stroke-width:1;stroke-dasharray:7,7;"/><polygon fill="#181818" points="608.44,191.0083,599.44,187.0083,603.44,191.0083,599.44,195.0083,608.44,191.0083" style="stroke:#181818;stroke-width:1;"/><text fill="#000000" font-family="sans-serif" font-size="13" lengthAdjust="spacing" textLength="64.0034" x="537.22" y="211.8766">returnerer</text></g><!--link TransitionManager to ResetState--><g class="link" data-entity-1="ent0013" data-entity-2="ent0011" data-link-type="dependency" data-source-line="51" id="lnk26"><path codeLine="51" d="M525.22,278.1483 C525.22,219.9283 525.22,103.4883 525.22,103.4883 C525.22,103.4883 572.31,103.4883 614.62,103.4883" fill="none" id="TransitionManager-to-ResetState" style="stroke:#181818;stroke-width:1;stroke-dasharray:7,7;"/><polygon fill="#181818" points="620.62,103.4883,611.62,99.4883,615.62,103.4883,611.62,107.4883,620.62,103.4883" style="stroke:#181818;stroke-width:1;"/><text fill="#000000" font-family="sans-serif" font-size="13" lengthAdjust="spacing" textLength="64.0034" x="460.22" y="156.6866">returnerer</text></g><!--link LiveStock to GMN27--><g class="link" data-entity-1="ent0003" data-entity-2="ent0028" data-link-type="association" data-source-line="54" id="lnk29"><path d="M187.22,488.6983 C187.22,464.8883 187.22,439.4883 187.22,439.4883 C187.22,439.4883 265.19,439.4883 331.74,439.4883" fill="none" id="LiveStock-GMN27" style="stroke:#181818;stroke-width:1;stroke-dasharray:7,7;"/></g><g class="legend" data-source-line="64"><rect fill="#DDDDDD" height="42.9766" rx="7.5" ry="7.5" style="stroke:#000000;stroke-width:1;" width="328.8623" x="356.6788" y="602.4883"/><text fill="#000000" font-family="sans-serif" font-size="14" lengthAdjust="spacing" textLength="160.5078" x="440.8561" y="621.0234">Fuld pil = runtime-kald</text><text fill="#000000" font-family="sans-serif" font-size="14" lengthAdjust="spacing" textLength="318.8623" x="361.6788" y="637.5117">Stiplet pil = implementering eller afh&#230;ngighed</text></g><?plantuml-src ZLHBRjmm3Dth54HMIPEP0mHeWBP1ksdIefCBC19jgvObGwBpGPlhz0pTvsAbR2SZpqo1R0oBV7gFZwBag6BW0D7M3OEnaJJRu5LghUynOWVEUkB7dY14RaAHI0sQS6zz3HMwH4McHzrYJHj-T0IP4NtjIe2X2WV7D_J07vojVKUUGSk7eb9iMRPj69dWafAauUhvhq-I10kRHkhuQ6kbPXKu-XHaumCVmIy5e1sc15_jdSW7tOunW1Ne8KOHc6ZFju0nC69EOUYDBBv7g-duH69FwgcG6P6JYCsLLgXfXsTMEmMDJWzE8jTqF_7D-kFYP4RLnDVO7T8IIpgI4APCcqfh6oOqZozbJx4lSJo8PV2Ij9pTNlWZ-ZOEFI-ZFoZH72hhk8deayqJKPQmZLwX5rnyzPqToL6CHCTboy-0hMxJgzFj0RrRhNQxU0vDS4PeH_S5ThMwsCSQSYGr21nDXHIDIBaTWVsAp-4s3lb7m22JMR5IHMjXlVwzgwNADXy4B5j-4B9e_q74zYWEfjM-b_NweXmByIQpCqIVc_8V-CBA6_0xpjwmOsdq3HiAtmkqya52qmCLgcqxP9Jccp-TttO097D71l0bCStHAjp-f9RNYho1p3aptmRcq6NglRg4wDiTnLhUBu8yZzWvOcWedaag8SxCRRuM9FM2RTjygLhHoFKuUSdGc_XoaKlnFBMocEHbp-V16UXb6jz373pRJdZHPJCRjdtMdPAsaqKtFfRvyINH4AMgUVxZQsaIcQmnaQj_?></g></svg>